<svg width="49" height="48" viewBox="0 0 49 48" fill="none" xmlns="http://www.w3.org/2000/svg">
<g id="icons8_office_worker_in_a_suit_female 1">
<path id="Vector" d="M13.3499 6C11.0373 6 9.1499 7.8874 9.1499 10.2C9.1499 12.5126 11.0373 14.4 13.3499 14.4C14.2056 14.4 15.0075 14.1416 15.6726 13.6992C15.7413 13.657 15.8008 13.6014 15.8475 13.5357C15.8943 13.47 15.9273 13.3955 15.9446 13.3167C15.9619 13.238 15.9632 13.1565 15.9483 13.0773C15.9335 12.998 15.9028 12.9226 15.8581 12.8554C15.8134 12.7883 15.7557 12.7309 15.6883 12.6865C15.6209 12.6422 15.5453 12.612 15.466 12.5975C15.3866 12.5831 15.3052 12.5848 15.2265 12.6025C15.1479 12.6203 15.0736 12.6537 15.0081 12.7008C14.5331 13.0168 13.9654 13.2 13.3499 13.2C11.6857 13.2 10.3499 11.8642 10.3499 10.2C10.3499 8.5358 11.6857 7.2 13.3499 7.2C14.4651 7.2 15.4308 7.80377 15.9491 8.7C15.9867 8.77151 16.0384 8.83468 16.1011 8.88573C16.1637 8.93677 16.236 8.97464 16.3136 8.99707C16.3913 9.01949 16.4726 9.02601 16.5528 9.01622C16.633 9.00644 16.7104 8.98056 16.7804 8.94013C16.8504 8.8997 16.9114 8.84556 16.96 8.78095C17.0085 8.71634 17.0435 8.6426 17.0628 8.56414C17.0821 8.48569 17.0854 8.40414 17.0725 8.32438C17.0595 8.24462 17.0306 8.1683 16.9874 8.1C16.2613 6.84463 14.8999 6 13.3499 6ZM24.7499 6C22.6181 6 20.8507 7.60716 20.5874 9.67031C20.5633 9.66559 20.1237 9.58031 19.5632 9.60352C18.9872 9.62736 18.2352 9.74953 17.6671 10.3172C17.0994 10.8853 16.9773 11.6373 16.9534 12.2133C16.9296 12.7893 17.0226 13.2539 17.0226 13.2539L17.6108 12.5391L17.496 13.7273C17.496 13.7273 17.6 13.7336 17.6108 13.7355V13.7391H17.6729C17.7957 13.7601 18.0586 13.8163 18.5366 13.7965C19.1125 13.7726 19.8646 13.6501 20.4327 13.0828C20.7311 12.7842 20.9031 12.4359 21.0058 12.0879C21.7 13.4556 23.1172 14.4 24.7499 14.4C27.0622 14.4 28.9499 12.5117 28.9499 10.2V9.6H28.828C28.524 7.5825 26.8495 6 24.7499 6ZM36.1499 6C33.8374 6 31.9499 7.88751 31.9499 10.2C31.9499 12.5125 33.8374 14.4 36.1499 14.4C38.4624 14.4 40.3499 12.5125 40.3499 10.2C40.3499 7.88751 38.4624 6 36.1499 6ZM24.7499 7.2C26.4133 7.2 27.7499 8.53662 27.7499 10.2C27.7499 11.8627 26.4132 13.2 24.7499 13.2C23.0873 13.2 21.7499 11.8626 21.7499 10.2C21.7504 8.53652 23.0872 7.2 24.7499 7.2ZM36.1499 7.2C37.8139 7.2 39.1499 8.53604 39.1499 10.2C39.1499 11.864 37.8139 13.2 36.1499 13.2C34.4859 13.2 33.1499 11.864 33.1499 10.2C33.1499 8.53604 34.4859 7.2 36.1499 7.2ZM19.6124 10.8023C19.7882 10.7951 19.7997 10.8117 19.9276 10.8223C19.9382 10.9502 19.9548 10.9617 19.9476 11.1375C19.93 11.5616 19.811 12.0075 19.5843 12.2344C19.3574 12.4609 18.9116 12.5789 18.4874 12.5965C18.3116 12.6038 18.3001 12.5871 18.1722 12.5766C18.1617 12.4489 18.145 12.4376 18.1522 12.2625C18.1698 11.8384 18.2888 11.3925 18.5155 11.1656C18.7424 10.9389 19.1883 10.8199 19.6124 10.8023ZM10.9499 15.6C8.30604 15.6 6.1499 17.7561 6.1499 20.4V29.4C6.1499 30.7184 7.2315 31.8 8.5499 31.8H9.1499V39.6C9.1499 40.9184 10.2315 42 11.5499 42H15.1499C15.2294 42.0011 15.3083 41.9864 15.3821 41.9568C15.4559 41.9271 15.5231 41.8831 15.5797 41.8273C15.6363 41.7715 15.6813 41.7049 15.712 41.6316C15.7426 41.5582 15.7584 41.4795 15.7584 41.4C15.7584 41.3205 15.7426 41.2418 15.712 41.1684C15.6813 41.0951 15.6363 41.0285 15.5797 40.9727C15.5231 40.9169 15.4559 40.8729 15.3821 40.8432C15.3083 40.8136 15.2294 40.7989 15.1499 40.8H11.5499C10.8799 40.8 10.3499 40.27 10.3499 39.6V30.6H8.5499C7.8799 30.6 7.3499 30.07 7.3499 29.4V20.4C7.3499 18.4047 8.95457 16.8 10.9499 16.8H15.7499C16.1095 16.8 16.4547 16.8519 16.78 16.9488C16.8563 16.9743 16.937 16.9842 17.0172 16.9779C17.0975 16.9716 17.1756 16.9492 17.247 16.9121C17.3184 16.875 17.3816 16.8239 17.4329 16.7618C17.4841 16.6998 17.5224 16.628 17.5453 16.5509C17.5683 16.4738 17.5755 16.3928 17.5665 16.3128C17.5576 16.2328 17.5326 16.1555 17.4931 16.0854C17.4536 16.0152 17.4004 15.9537 17.3367 15.9046C17.273 15.8554 17.2 15.8196 17.1222 15.7992C16.6866 15.6694 16.2255 15.6 15.7499 15.6H10.9499ZM26.0097 15.6V16.8L25.5948 15.7652L24.7698 16.5516L24.0409 15.7875C23.9849 15.7286 23.9174 15.6817 23.8427 15.6497C23.7679 15.6177 23.6875 15.6012 23.6062 15.6012C21.9758 15.6012 20.588 16.1785 19.5386 17.182C18.4892 18.1856 17.7711 19.587 17.3272 21.2379L17.3308 21.2227L15.2073 28.3512C15.2043 28.362 15.2015 28.373 15.1991 28.384C14.9702 29.3442 15.5727 30.3231 16.5327 30.552H16.5351C16.7037 30.5917 16.8758 30.6079 17.046 30.5988C17.8251 30.5577 18.5123 30.0066 18.7007 29.2184L18.6831 29.2781L19.7577 26.2418L19.3511 34.7719C19.3473 34.8529 19.36 34.9339 19.3883 35.0098C19.4167 35.0858 19.4602 35.1553 19.5162 35.214C19.5721 35.2727 19.6394 35.3195 19.714 35.3514C19.7885 35.3834 19.8688 35.3999 19.9499 35.4H21.1499V39.6C21.1499 40.9184 22.2315 42 23.5499 42H25.9499C27.2683 42 28.3499 40.9184 28.3499 39.6V35.4H29.5499C29.631 35.3999 29.7113 35.3834 29.7858 35.3514C29.8604 35.3195 29.9277 35.2727 29.9836 35.214C30.0396 35.1553 30.0831 35.0858 30.1115 35.0098C30.1399 34.9339 30.1525 34.8529 30.1487 34.7719L29.946 30.5191C31.0707 30.3222 31.9499 29.3783 31.9499 28.2V21.5402C31.9499 18.2335 29.312 15.6 26.0097 15.6ZM33.7499 15.6C33.2743 15.6 32.8132 15.6694 32.3776 15.7992C32.2998 15.8196 32.2268 15.8554 32.1631 15.9046C32.0994 15.9537 32.0462 16.0152 32.0067 16.0854C31.9672 16.1555 31.9423 16.2328 31.9333 16.3128C31.9243 16.3928 31.9315 16.4738 31.9545 16.5509C31.9774 16.628 32.0157 16.6998 32.0669 16.7618C32.1182 16.8239 32.1814 16.875 32.2528 16.9121C32.3242 16.9492 32.4023 16.9716 32.4826 16.9779C32.5628 16.9842 32.6435 16.9743 32.7198 16.9488C33.0451 16.8519 33.3903 16.8 33.7499 16.8H38.5499C40.5452 16.8 42.1499 18.4047 42.1499 20.4V29.4C42.1499 30.07 41.6199 30.6 40.9499 30.6H39.1499V39.6C39.1499 40.27 38.6199 40.8 37.9499 40.8H34.3499C33.6799 40.8 33.1499 40.27 33.1499 39.6V31.8C33.151 31.7205 33.1363 31.6416 33.1067 31.5678C33.077 31.494 33.033 31.4268 32.9772 31.3702C32.9214 31.3136 32.8548 31.2686 32.7815 31.2379C32.7081 31.2073 32.6294 31.1915 32.5499 31.1915C32.4704 31.1915 32.3917 31.2073 32.3183 31.2379C32.245 31.2686 32.1784 31.3136 32.1226 31.3702C32.0668 31.4268 32.0228 31.494 31.9931 31.5678C31.9635 31.6416 31.9488 31.7205 31.9499 31.8V39.6C31.9499 40.9184 33.0315 42 34.3499 42H37.9499C39.2683 42 40.3499 40.9184 40.3499 39.6V31.8H40.9499C42.2683 31.8 43.3499 30.7184 43.3499 29.4V20.4C43.3499 17.7561 41.1938 15.6 38.5499 15.6H33.7499ZM26.2089 16.8387C28.7787 16.9447 30.7499 18.9339 30.7499 21.5402V28.2C30.7499 28.87 30.2199 29.4 29.5499 29.4H29.3202C29.2391 29.4001 29.1588 29.4166 29.0843 29.4486C29.0097 29.4805 28.9424 29.5273 28.8865 29.586C28.8305 29.6447 28.787 29.7142 28.7586 29.7902C28.7303 29.8661 28.7176 29.9471 28.7214 30.0281L28.9206 34.2H27.7499C27.6445 34.2001 27.5411 34.228 27.4499 34.2809C27.3587 34.228 27.2553 34.2001 27.1499 34.2C26.9908 34.2 26.8382 34.2632 26.7256 34.3757C26.6131 34.4883 26.5499 34.6409 26.5499 34.8C26.5499 34.9591 26.6131 35.1117 26.7256 35.2243C26.8382 35.3368 26.9908 35.4 27.1499 35.4V39.6C27.1499 40.27 26.6199 40.8 25.9499 40.8H23.5499C22.8799 40.8 22.3499 40.27 22.3499 39.6V35.4C22.509 35.4 22.6616 35.3368 22.7742 35.2243C22.8867 35.1117 22.9499 34.9591 22.9499 34.8C22.9499 34.6409 22.8867 34.4883 22.7742 34.3757C22.6616 34.2632 22.509 34.2 22.3499 34.2C22.2445 34.2001 22.1411 34.228 22.0499 34.2809C21.9587 34.228 21.8553 34.2001 21.7499 34.2H20.5792L21.1487 22.2281C21.1553 22.0844 21.1101 21.9432 21.0213 21.83C20.9325 21.7169 20.806 21.6394 20.6648 21.6117C20.5237 21.584 20.3773 21.608 20.2523 21.6792C20.1273 21.7503 20.0321 21.8641 19.9839 21.9996L17.5522 28.8785C17.5449 28.8985 17.5387 28.9188 17.5335 28.9395C17.4687 29.2104 17.2388 29.3867 16.9827 29.4H16.9815C16.928 29.4029 16.8712 29.3986 16.8116 29.3848C16.4841 29.3067 16.2903 28.9925 16.3663 28.6652L18.4815 21.566C18.4832 21.5606 18.4847 21.5551 18.4862 21.5496C18.8896 20.0493 19.5263 18.8544 20.3683 18.0492C21.1593 17.2928 22.1478 16.8899 23.387 16.8398L24.3163 17.8137C24.426 17.9286 24.5768 17.9954 24.7356 17.9994C24.8944 18.0033 25.0483 17.9441 25.1636 17.8348L26.2089 16.8387ZM24.7405 18.5918C24.5816 18.5943 24.4302 18.6597 24.3194 18.7737C24.2087 18.8878 24.1477 19.0411 24.1499 19.2V24.6C24.1488 24.6795 24.1635 24.7584 24.1931 24.8322C24.2228 24.906 24.2668 24.9732 24.3226 25.0298C24.3784 25.0864 24.445 25.1314 24.5183 25.1621C24.5917 25.1927 24.6704 25.2085 24.7499 25.2085C24.8294 25.2085 24.9081 25.1927 24.9815 25.1621C25.0548 25.1314 25.1214 25.0864 25.1772 25.0298C25.233 24.9732 25.277 24.906 25.3067 24.8322C25.3363 24.7584 25.351 24.6795 25.3499 24.6V19.2C25.351 19.1197 25.336 19.04 25.3057 18.9657C25.2755 18.8913 25.2306 18.8238 25.1738 18.7671C25.117 18.7104 25.0494 18.6656 24.9749 18.6355C24.9005 18.6054 24.8208 18.5905 24.7405 18.5918ZM9.7499 21C9.59077 21 9.43816 21.0632 9.32564 21.1757C9.21312 21.2883 9.1499 21.4409 9.1499 21.6C9.1499 21.7591 9.21312 21.9117 9.32564 22.0243C9.43816 22.1368 9.59077 22.2 9.7499 22.2C9.90903 22.2 10.0616 22.1368 10.1742 22.0243C10.2867 21.9117 10.3499 21.7591 10.3499 21.6C10.3499 21.4409 10.2867 21.2883 10.1742 21.1757C10.0616 21.0632 9.90903 21 9.7499 21ZM39.7499 21C39.5908 21 39.4382 21.0632 39.3256 21.1757C39.2131 21.2883 39.1499 21.4409 39.1499 21.6C39.1499 21.7591 39.2131 21.9117 39.3256 22.0243C39.4382 22.1368 39.5908 22.2 39.7499 22.2C39.909 22.2 40.0616 22.1368 40.1742 22.0243C40.2867 21.9117 40.3499 21.7591 40.3499 21.6C40.3499 21.4409 40.2867 21.2883 40.1742 21.1757C40.0616 21.0632 39.909 21 39.7499 21ZM28.3499 22.2C28.1908 22.2 28.0382 22.2632 27.9256 22.3757C27.8131 22.4883 27.7499 22.6409 27.7499 22.8C27.7499 22.9591 27.8131 23.1117 27.9256 23.2243C28.0382 23.3368 28.1908 23.4 28.3499 23.4C28.509 23.4 28.6616 23.3368 28.7742 23.2243C28.8867 23.1117 28.9499 22.9591 28.9499 22.8C28.9499 22.6409 28.8867 22.4883 28.7742 22.3757C28.6616 22.2632 28.509 22.2 28.3499 22.2ZM9.7499 23.4C9.59077 23.4 9.43816 23.4632 9.32564 23.5757C9.21312 23.6883 9.1499 23.8409 9.1499 24C9.1499 24.1591 9.21312 24.3117 9.32564 24.4243C9.43816 24.5368 9.59077 24.6 9.7499 24.6C9.90903 24.6 10.0616 24.5368 10.1742 24.4243C10.2867 24.3117 10.3499 24.1591 10.3499 24C10.3499 23.8409 10.2867 23.6883 10.1742 23.5757C10.0616 23.4632 9.90903 23.4 9.7499 23.4ZM39.7499 23.4C39.5908 23.4 39.4382 23.4632 39.3256 23.5757C39.2131 23.6883 39.1499 23.8409 39.1499 24C39.1499 24.1591 39.2131 24.3117 39.3256 24.4243C39.4382 24.5368 39.5908 24.6 39.7499 24.6C39.909 24.6 40.0616 24.5368 40.1742 24.4243C40.2867 24.3117 40.3499 24.1591 40.3499 24C40.3499 23.8409 40.2867 23.6883 40.1742 23.5757C40.0616 23.4632 39.909 23.4 39.7499 23.4ZM28.3499 24.6C28.1908 24.6 28.0382 24.6632 27.9256 24.7757C27.8131 24.8883 27.7499 25.0409 27.7499 25.2C27.7499 25.3591 27.8131 25.5117 27.9256 25.6243C28.0382 25.7368 28.1908 25.8 28.3499 25.8C28.509 25.8 28.6616 25.7368 28.7742 25.6243C28.8867 25.5117 28.9499 25.3591 28.9499 25.2C28.9499 25.0409 28.8867 24.8883 28.7742 24.7757C28.6616 24.6632 28.509 24.6 28.3499 24.6ZM9.7499 25.8C9.59077 25.8 9.43816 25.8632 9.32564 25.9757C9.21312 26.0883 9.1499 26.2409 9.1499 26.4C9.1499 26.5591 9.21312 26.7117 9.32564 26.8243C9.43816 26.9368 9.59077 27 9.7499 27C9.90903 27 10.0616 26.9368 10.1742 26.8243C10.2867 26.7117 10.3499 26.5591 10.3499 26.4C10.3499 26.2409 10.2867 26.0883 10.1742 25.9757C10.0616 25.8632 9.90903 25.8 9.7499 25.8ZM39.7499 25.8C39.5908 25.8 39.4382 25.8632 39.3256 25.9757C39.2131 26.0883 39.1499 26.2409 39.1499 26.4C39.1499 26.5591 39.2131 26.7117 39.3256 26.8243C39.4382 26.9368 39.5908 27 39.7499 27C39.909 27 40.0616 26.9368 40.1742 26.8243C40.2867 26.7117 40.3499 26.5591 40.3499 26.4C40.3499 26.2409 40.2867 26.0883 40.1742 25.9757C40.0616 25.8632 39.909 25.8 39.7499 25.8ZM28.3499 27C28.1908 27 28.0382 27.0632 27.9256 27.1757C27.8131 27.2883 27.7499 27.4409 27.7499 27.6C27.7499 27.7591 27.8131 27.9117 27.9256 28.0243C28.0382 28.1368 28.1908 28.2 28.3499 28.2C28.509 28.2 28.6616 28.1368 28.7742 28.0243C28.8867 27.9117 28.9499 27.7591 28.9499 27.6C28.9499 27.4409 28.8867 27.2883 28.7742 27.1757C28.6616 27.0632 28.509 27 28.3499 27ZM9.7499 28.2C9.59077 28.2 9.43816 28.2632 9.32564 28.3757C9.21312 28.4883 9.1499 28.6409 9.1499 28.8C9.1499 28.9591 9.21312 29.1117 9.32564 29.2243C9.43816 29.3368 9.59077 29.4 9.7499 29.4C9.90903 29.4 10.0616 29.3368 10.1742 29.2243C10.2867 29.1117 10.3499 28.9591 10.3499 28.8C10.3499 28.6409 10.2867 28.4883 10.1742 28.3757C10.0616 28.2632 9.90903 28.2 9.7499 28.2ZM39.7499 28.2C39.5908 28.2 39.4382 28.2632 39.3256 28.3757C39.2131 28.4883 39.1499 28.6409 39.1499 28.8C39.1499 28.9591 39.2131 29.1117 39.3256 29.2243C39.4382 29.3368 39.5908 29.4 39.7499 29.4C39.909 29.4 40.0616 29.3368 40.1742 29.2243C40.2867 29.1117 40.3499 28.9591 40.3499 28.8C40.3499 28.6409 40.2867 28.4883 40.1742 28.3757C40.0616 28.2632 39.909 28.2 39.7499 28.2ZM15.1417 31.8C14.9826 31.8 14.83 31.8632 14.7175 31.9758C14.6049 32.0883 14.5417 32.2409 14.5417 32.4V38.4C14.5417 38.5591 14.6049 38.7117 14.7175 38.8242C14.83 38.9368 14.9826 39 15.1417 39H17.5417C17.7008 39 17.8534 38.9368 17.9659 38.8242C18.0785 38.7117 18.1417 38.5591 18.1417 38.4V32.4C18.1417 32.2409 18.0785 32.0883 17.9659 31.9758C17.8534 31.8632 17.7008 31.8 17.5417 31.8H15.1417ZM15.7417 33H16.9417V37.8H15.7417V33ZM24.7499 34.2C24.5908 34.2 24.4382 34.2632 24.3256 34.3757C24.2131 34.4883 24.1499 34.6409 24.1499 34.8C24.1499 34.9591 24.2131 35.1117 24.3256 35.2243C24.4382 35.3368 24.5908 35.4 24.7499 35.4C24.909 35.4 25.0616 35.3368 25.1742 35.2243C25.2867 35.1117 25.3499 34.9591 25.3499 34.8C25.3499 34.6409 25.2867 34.4883 25.1742 34.3757C25.0616 34.2632 24.909 34.2 24.7499 34.2Z" fill="black"/>
</g>
</svg>
