<svg width="49" height="48" viewBox="0 0 49 48" fill="none" xmlns="http://www.w3.org/2000/svg">
<g id="icons8_double_decker_bus 1">
<path id="Vector" d="M6.85019 7.80005C3.87598 7.80005 1.4502 10.2258 1.4502 13.2V33.6C1.4502 35.25 2.8002 36.6 4.4502 36.6H5.54941C5.61504 36.6118 5.68066 36.6118 5.74395 36.6H11.0971C11.3924 38.6297 13.1408 40.2001 15.2502 40.2001C17.3596 40.2001 19.108 38.6297 19.4033 36.6H33.8971C34.1924 38.6297 35.9408 40.2001 38.0502 40.2001C40.1596 40.2001 41.908 38.6297 42.2033 36.6H44.6502C45.9697 36.6 47.0502 35.5196 47.0502 34.2001V16.8C47.0502 11.836 43.0143 7.80005 38.0502 7.80005H6.85019ZM6.85019 9.00005H38.0502C42.365 9.00005 45.8502 12.4852 45.8502 16.8V34.2001C45.8502 34.8704 45.3205 35.4 44.6502 35.4H42.2033C41.908 33.3704 40.1596 31.8 38.0502 31.8C35.9408 31.8 34.1924 33.3704 33.8971 35.4H19.4033C19.108 33.3704 17.3596 31.8 15.2502 31.8C15.0463 31.8 14.8471 31.8188 14.6502 31.8469V22.2C14.6502 21.2133 13.8369 20.4 12.8502 20.4H6.85019C5.86348 20.4 5.0502 21.2133 5.0502 22.2V35.4H4.4502C3.44941 35.4 2.6502 34.6008 2.6502 33.6V13.2C2.6502 10.8727 4.52285 9.00005 6.85019 9.00005ZM7.45019 11.4C6.13066 11.4 5.0502 12.4805 5.0502 13.8V16.8C5.0502 17.7868 5.86348 18.6 6.85019 18.6H41.6502C42.6369 18.6 43.4502 17.7868 43.4502 16.8V16.2C43.4502 13.5563 41.2939 11.4 38.6502 11.4H7.45019ZM7.45019 12.6H38.6502C40.6447 12.6 42.2502 14.2055 42.2502 16.2V16.8C42.2502 17.1399 41.99 17.4 41.6502 17.4H6.85019C6.51035 17.4 6.2502 17.1399 6.2502 16.8V13.8C6.2502 13.1297 6.77988 12.6 7.45019 12.6ZM11.6502 13.2C11.3197 13.2 11.0502 13.4696 11.0502 13.8C11.0502 14.1305 11.3197 14.4 11.6502 14.4C11.9807 14.4 12.2502 14.1305 12.2502 13.8C12.2502 13.4696 11.9807 13.2 11.6502 13.2ZM17.6502 13.2C17.3197 13.2 17.0502 13.4696 17.0502 13.8C17.0502 14.1305 17.3197 14.4 17.6502 14.4C17.9807 14.4 18.2502 14.1305 18.2502 13.8C18.2502 13.4696 17.9807 13.2 17.6502 13.2ZM23.6502 13.2C23.3197 13.2 23.0502 13.4696 23.0502 13.8C23.0502 14.1305 23.3197 14.4 23.6502 14.4C23.9807 14.4 24.2502 14.1305 24.2502 13.8C24.2502 13.4696 23.9807 13.2 23.6502 13.2ZM29.6502 13.2C29.3197 13.2 29.0502 13.4696 29.0502 13.8C29.0502 14.1305 29.3197 14.4 29.6502 14.4C29.9807 14.4 30.2502 14.1305 30.2502 13.8C30.2502 13.4696 29.9807 13.2 29.6502 13.2ZM35.6502 13.2C35.3197 13.2 35.0502 13.4696 35.0502 13.8C35.0502 14.1305 35.3197 14.4 35.6502 14.4C35.9807 14.4 36.2502 14.1305 36.2502 13.8C36.2502 13.4696 35.9807 13.2 35.6502 13.2ZM11.6502 15.6C11.3197 15.6 11.0502 15.8696 11.0502 16.2C11.0502 16.5305 11.3197 16.8 11.6502 16.8C11.9807 16.8 12.2502 16.5305 12.2502 16.2C12.2502 15.8696 11.9807 15.6 11.6502 15.6ZM17.6502 15.6C17.3197 15.6 17.0502 15.8696 17.0502 16.2C17.0502 16.5305 17.3197 16.8 17.6502 16.8C17.9807 16.8 18.2502 16.5305 18.2502 16.2C18.2502 15.8696 17.9807 15.6 17.6502 15.6ZM23.6502 15.6C23.3197 15.6 23.0502 15.8696 23.0502 16.2C23.0502 16.5305 23.3197 16.8 23.6502 16.8C23.9807 16.8 24.2502 16.5305 24.2502 16.2C24.2502 15.8696 23.9807 15.6 23.6502 15.6ZM29.6502 15.6C29.3197 15.6 29.0502 15.8696 29.0502 16.2C29.0502 16.5305 29.3197 16.8 29.6502 16.8C29.9807 16.8 30.2502 16.5305 30.2502 16.2C30.2502 15.8696 29.9807 15.6 29.6502 15.6ZM35.6502 15.6C35.3197 15.6 35.0502 15.8696 35.0502 16.2C35.0502 16.5305 35.3197 16.8 35.6502 16.8C35.9807 16.8 36.2502 16.5305 36.2502 16.2C36.2502 15.8696 35.9807 15.6 35.6502 15.6ZM18.2502 20.4C17.2635 20.4 16.4502 21.2133 16.4502 22.2V25.8C16.4502 26.7868 17.2635 27.6 18.2502 27.6H41.0502C42.0369 27.6 42.8502 26.7868 42.8502 25.8V22.2C42.8502 21.2133 42.0369 20.4 41.0502 20.4H18.2502ZM6.85019 21.6H9.2502C9.2502 21.9305 9.51973 22.2 9.85019 22.2C10.1807 22.2 10.4502 21.9305 10.4502 21.6H12.8502C13.19 21.6 13.4502 21.8602 13.4502 22.2V32.2125C12.208 32.8055 11.301 33.9915 11.0971 35.4H6.2502V22.2C6.2502 21.8602 6.51035 21.6 6.85019 21.6ZM18.2502 21.6H41.0502C41.39 21.6 41.6502 21.8602 41.6502 22.2V25.8C41.6502 26.1399 41.39 26.4 41.0502 26.4H18.2502C17.9104 26.4 17.6502 26.1399 17.6502 25.8V22.2C17.6502 21.8602 17.9104 21.6 18.2502 21.6ZM23.6502 22.2C23.3197 22.2 23.0502 22.4696 23.0502 22.8C23.0502 23.1305 23.3197 23.4 23.6502 23.4C23.9807 23.4 24.2502 23.1305 24.2502 22.8C24.2502 22.4696 23.9807 22.2 23.6502 22.2ZM29.6502 22.2C29.3197 22.2 29.0502 22.4696 29.0502 22.8C29.0502 23.1305 29.3197 23.4 29.6502 23.4C29.9807 23.4 30.2502 23.1305 30.2502 22.8C30.2502 22.4696 29.9807 22.2 29.6502 22.2ZM35.6502 22.2C35.3197 22.2 35.0502 22.4696 35.0502 22.8C35.0502 23.1305 35.3197 23.4 35.6502 23.4C35.9807 23.4 36.2502 23.1305 36.2502 22.8C36.2502 22.4696 35.9807 22.2 35.6502 22.2ZM9.85019 23.4C9.51973 23.4 9.2502 23.6696 9.2502 24C9.2502 24.3305 9.51973 24.6 9.85019 24.6C10.1807 24.6 10.4502 24.3305 10.4502 24C10.4502 23.6696 10.1807 23.4 9.85019 23.4ZM23.6502 24.6C23.3197 24.6 23.0502 24.8696 23.0502 25.2001C23.0502 25.5305 23.3197 25.8 23.6502 25.8C23.9807 25.8 24.2502 25.5305 24.2502 25.2001C24.2502 24.8696 23.9807 24.6 23.6502 24.6ZM29.6502 24.6C29.3197 24.6 29.0502 24.8696 29.0502 25.2001C29.0502 25.5305 29.3197 25.8 29.6502 25.8C29.9807 25.8 30.2502 25.5305 30.2502 25.2001C30.2502 24.8696 29.9807 24.6 29.6502 24.6ZM35.6502 24.6C35.3197 24.6 35.0502 24.8696 35.0502 25.2001C35.0502 25.5305 35.3197 25.8 35.6502 25.8C35.9807 25.8 36.2502 25.5305 36.2502 25.2001C36.2502 24.8696 35.9807 24.6 35.6502 24.6ZM9.85019 25.8C9.51973 25.8 9.2502 26.0696 9.2502 26.4C9.2502 26.7305 9.51973 27 9.85019 27C10.1807 27 10.4502 26.7305 10.4502 26.4C10.4502 26.0696 10.1807 25.8 9.85019 25.8ZM9.85019 28.2001C9.51973 28.2001 9.2502 28.4696 9.2502 28.8C9.2502 29.1305 9.51973 29.4 9.85019 29.4C10.1807 29.4 10.4502 29.1305 10.4502 28.8C10.4502 28.4696 10.1807 28.2001 9.85019 28.2001ZM9.85019 30.6C9.51973 30.6 9.2502 30.8696 9.2502 31.2001C9.2502 31.5305 9.51973 31.8 9.85019 31.8C10.1807 31.8 10.4502 31.5305 10.4502 31.2001C10.4502 30.8696 10.1807 30.6 9.85019 30.6ZM9.85019 33C9.51973 33 9.2502 33.2696 9.2502 33.6C9.2502 33.9305 9.51973 34.2001 9.85019 34.2001C10.1807 34.2001 10.4502 33.9305 10.4502 33.6C10.4502 33.2696 10.1807 33 9.85019 33ZM15.2502 33C16.8908 33 18.2104 34.2985 18.2479 35.9297C18.2408 35.979 18.2408 36.0258 18.2479 36.0751C18.208 37.704 16.8885 39 15.2502 39C13.6096 39 12.29 37.7016 12.2525 36.0704C12.2596 36.0211 12.2596 35.9743 12.2525 35.9251C12.2924 34.2961 13.6119 33 15.2502 33ZM38.0502 33C39.6908 33 41.0103 34.2985 41.0478 35.9297C41.0408 35.979 41.0408 36.0258 41.0478 36.0751C41.008 37.704 39.6885 39 38.0502 39C36.4096 39 35.09 37.7016 35.0525 36.0704C35.0596 36.0211 35.0596 35.9743 35.0525 35.9251C35.0924 34.2961 36.4119 33 38.0502 33ZM15.2502 35.4C14.9197 35.4 14.6502 35.6696 14.6502 36C14.6502 36.3305 14.9197 36.6 15.2502 36.6C15.5807 36.6 15.8502 36.3305 15.8502 36C15.8502 35.6696 15.5807 35.4 15.2502 35.4ZM38.0502 35.4C37.7197 35.4 37.4502 35.6696 37.4502 36C37.4502 36.3305 37.7197 36.6 38.0502 36.6C38.3807 36.6 38.6502 36.3305 38.6502 36C38.6502 35.6696 38.3807 35.4 38.0502 35.4Z" fill="black"/>
</g>
</svg>
