<svg width="49" height="48" viewBox="0 0 49 48" fill="none" xmlns="http://www.w3.org/2000/svg">
<g id="icons8_Circle_Chart 1">
<path id="Vector" d="M35.0428 2.78565C34.9247 2.78635 34.8095 2.82186 34.7115 2.88773C34.6136 2.9536 34.5372 3.04691 34.492 3.15597L27.1959 20.7704C27.1505 20.8801 27.1386 21.0007 27.1618 21.1171C27.1849 21.2335 27.2421 21.3404 27.326 21.4243C27.4099 21.5082 27.5168 21.5654 27.6332 21.5885C27.7496 21.6117 27.8702 21.5998 27.9799 21.5544L45.5943 14.2583C45.7413 14.1974 45.8581 14.0806 45.919 13.9335C45.9799 13.7865 45.9798 13.6213 45.9189 13.4743C43.8421 8.46091 39.9242 4.75697 35.276 2.83136C35.2021 2.80073 35.1228 2.78519 35.0428 2.78565ZM24.7502 4.20011C13.8326 4.20011 4.9502 13.0825 4.9502 24.0001C4.9502 34.9177 13.8326 43.8001 24.7502 43.8001C35.6678 43.8001 44.5502 34.9177 44.5502 24.0001C44.5502 21.5917 44.117 19.2824 43.3256 17.1458L42.217 17.6052C42.9496 19.6002 43.3502 21.7543 43.3502 24.0001C43.3502 28.9128 41.4321 33.383 38.31 36.7114L25.3502 23.7517V5.413C27.3795 5.47773 29.3287 5.86628 31.1451 6.53331L31.6045 5.42472C29.4679 4.63332 27.1586 4.20011 24.7502 4.20011ZM35.3486 4.22237C39.2977 6.01032 42.6076 9.17178 44.5244 13.4028L28.8588 19.8915L35.3486 4.22237ZM23.5525 5.44347C23.5635 5.59456 23.6312 5.73592 23.742 5.83917C23.8529 5.94242 23.9987 5.99991 24.1502 6.00011V8.40011C23.9911 8.40011 23.8385 8.46332 23.7259 8.57584C23.6134 8.68837 23.5502 8.84098 23.5502 9.00011C23.5502 9.15924 23.6134 9.31185 23.7259 9.42437C23.8385 9.53689 23.9911 9.60011 24.1502 9.60011V12.0001C23.9911 12.0001 23.8385 12.0633 23.7259 12.1758C23.6134 12.2884 23.5502 12.441 23.5502 12.6001C23.5502 12.7592 23.6134 12.9118 23.7259 13.0244C23.8385 13.1369 23.9911 13.2001 24.1502 13.2001V15.6001C23.9911 15.6001 23.8385 15.6633 23.7259 15.7758C23.6134 15.8884 23.5502 16.041 23.5502 16.2001C23.5502 16.3592 23.6134 16.5118 23.7259 16.6244C23.8385 16.7369 23.9911 16.8001 24.1502 16.8001V19.2001C23.9911 19.2001 23.8385 19.2633 23.7259 19.3758C23.6134 19.4884 23.5502 19.641 23.5502 19.8001C23.5502 19.9592 23.6134 20.1118 23.7259 20.2244C23.8385 20.3369 23.9911 20.4001 24.1502 20.4001V22.8001C23.9911 22.8001 23.8385 22.8633 23.7259 22.9758C23.6134 23.0884 23.5502 23.241 23.5502 23.4001H21.1502C21.1502 23.241 21.087 23.0884 20.9745 22.9758C20.8619 22.8633 20.7093 22.8001 20.5502 22.8001C20.3911 22.8001 20.2385 22.8633 20.1259 22.9758C20.0134 23.0884 19.9502 23.241 19.9502 23.4001H17.5502C17.5502 23.241 17.487 23.0884 17.3745 22.9758C17.2619 22.8633 17.1093 22.8001 16.9502 22.8001C16.7911 22.8001 16.6385 22.8633 16.5259 22.9758C16.4134 23.0884 16.3502 23.241 16.3502 23.4001H13.9502C13.9502 23.241 13.887 23.0884 13.7745 22.9758C13.6619 22.8633 13.5093 22.8001 13.3502 22.8001C13.1911 22.8001 13.0385 22.8633 12.9259 22.9758C12.8134 23.0884 12.7502 23.241 12.7502 23.4001H10.3502C10.3502 23.241 10.287 23.0884 10.1745 22.9758C10.0619 22.8633 9.90933 22.8001 9.7502 22.8001C9.59107 22.8001 9.43845 22.8633 9.32593 22.9758C9.21341 23.0884 9.1502 23.241 9.1502 23.4001H6.16543C6.28669 19.5994 7.55142 16.0847 9.62949 13.1872C9.66919 13.1956 9.70963 13.1999 9.7502 13.2001C9.90933 13.2001 10.0619 13.1369 10.1745 13.0244C10.287 12.9118 10.3502 12.7592 10.3502 12.6001C10.3499 12.5051 10.327 12.4115 10.2834 12.3271C10.5742 11.9674 10.8788 11.6198 11.1951 11.2829C11.298 11.3588 11.4224 11.3999 11.5502 11.4001C11.7093 11.4001 11.8619 11.3369 11.9745 11.2244C12.087 11.1118 12.1502 10.9592 12.1502 10.8001C12.15 10.6723 12.1089 10.5479 12.033 10.445C12.3698 10.1288 12.7176 9.82403 13.0771 9.53331C13.1616 9.57688 13.2552 9.59978 13.3502 9.60011C13.5093 9.60011 13.6619 9.53689 13.7745 9.42437C13.887 9.31185 13.9502 9.15924 13.9502 9.00011C13.9504 8.95958 13.9464 8.91914 13.9385 8.8794C15.8267 7.5254 17.9758 6.5153 20.2971 5.94269C20.3762 5.98007 20.4626 5.99966 20.5502 6.00011C20.6397 5.99995 20.7281 5.97977 20.8088 5.94104C20.8895 5.90231 20.9605 5.84602 21.0166 5.77628C21.8431 5.6072 22.6904 5.49855 23.5525 5.44347ZM18.7502 6.60011C18.5911 6.60011 18.4385 6.66332 18.3259 6.77584C18.2134 6.88837 18.1502 7.04098 18.1502 7.20011C18.1502 7.35924 18.2134 7.51185 18.3259 7.62437C18.4385 7.73689 18.5911 7.80011 18.7502 7.80011C18.9093 7.80011 19.0619 7.73689 19.1745 7.62437C19.287 7.51185 19.3502 7.35924 19.3502 7.20011C19.3502 7.04098 19.287 6.88837 19.1745 6.77584C19.0619 6.66332 18.9093 6.60011 18.7502 6.60011ZM22.3502 6.60011C22.1911 6.60011 22.0385 6.66332 21.9259 6.77584C21.8134 6.88837 21.7502 7.04098 21.7502 7.20011C21.7502 7.35924 21.8134 7.51185 21.9259 7.62437C22.0385 7.73689 22.1911 7.80011 22.3502 7.80011C22.5093 7.80011 22.6619 7.73689 22.7745 7.62437C22.887 7.51185 22.9502 7.35924 22.9502 7.20011C22.9502 7.04098 22.887 6.88837 22.7745 6.77584C22.6619 6.66332 22.5093 6.60011 22.3502 6.60011ZM16.9502 8.40011C16.7911 8.40011 16.6385 8.46332 16.5259 8.57584C16.4134 8.68837 16.3502 8.84098 16.3502 9.00011C16.3502 9.15924 16.4134 9.31185 16.5259 9.42437C16.6385 9.53689 16.7911 9.60011 16.9502 9.60011C17.1093 9.60011 17.2619 9.53689 17.3745 9.42437C17.487 9.31185 17.5502 9.15924 17.5502 9.00011C17.5502 8.84098 17.487 8.68837 17.3745 8.57584C17.2619 8.46332 17.1093 8.40011 16.9502 8.40011ZM20.5502 8.40011C20.3911 8.40011 20.2385 8.46332 20.1259 8.57584C20.0134 8.68837 19.9502 8.84098 19.9502 9.00011C19.9502 9.15924 20.0134 9.31185 20.1259 9.42437C20.2385 9.53689 20.3911 9.60011 20.5502 9.60011C20.7093 9.60011 20.8619 9.53689 20.9745 9.42437C21.087 9.31185 21.1502 9.15924 21.1502 9.00011C21.1502 8.84098 21.087 8.68837 20.9745 8.57584C20.8619 8.46332 20.7093 8.40011 20.5502 8.40011ZM15.1502 10.2001C14.9911 10.2001 14.8385 10.2633 14.7259 10.3758C14.6134 10.4884 14.5502 10.641 14.5502 10.8001C14.5502 10.9592 14.6134 11.1118 14.7259 11.2244C14.8385 11.3369 14.9911 11.4001 15.1502 11.4001C15.3093 11.4001 15.4619 11.3369 15.5745 11.2244C15.687 11.1118 15.7502 10.9592 15.7502 10.8001C15.7502 10.641 15.687 10.4884 15.5745 10.3758C15.4619 10.2633 15.3093 10.2001 15.1502 10.2001ZM18.7502 10.2001C18.5911 10.2001 18.4385 10.2633 18.3259 10.3758C18.2134 10.4884 18.1502 10.641 18.1502 10.8001C18.1502 10.9592 18.2134 11.1118 18.3259 11.2244C18.4385 11.3369 18.5911 11.4001 18.7502 11.4001C18.9093 11.4001 19.0619 11.3369 19.1745 11.2244C19.287 11.1118 19.3502 10.9592 19.3502 10.8001C19.3502 10.641 19.287 10.4884 19.1745 10.3758C19.0619 10.2633 18.9093 10.2001 18.7502 10.2001ZM22.3502 10.2001C22.1911 10.2001 22.0385 10.2633 21.9259 10.3758C21.8134 10.4884 21.7502 10.641 21.7502 10.8001C21.7502 10.9592 21.8134 11.1118 21.9259 11.2244C22.0385 11.3369 22.1911 11.4001 22.3502 11.4001C22.5093 11.4001 22.6619 11.3369 22.7745 11.2244C22.887 11.1118 22.9502 10.9592 22.9502 10.8001C22.9502 10.641 22.887 10.4884 22.7745 10.3758C22.6619 10.2633 22.5093 10.2001 22.3502 10.2001ZM13.3502 12.0001C13.1911 12.0001 13.0385 12.0633 12.9259 12.1758C12.8134 12.2884 12.7502 12.441 12.7502 12.6001C12.7502 12.7592 12.8134 12.9118 12.9259 13.0244C13.0385 13.1369 13.1911 13.2001 13.3502 13.2001C13.5093 13.2001 13.6619 13.1369 13.7745 13.0244C13.887 12.9118 13.9502 12.7592 13.9502 12.6001C13.9502 12.441 13.887 12.2884 13.7745 12.1758C13.6619 12.0633 13.5093 12.0001 13.3502 12.0001ZM16.9502 12.0001C16.7911 12.0001 16.6385 12.0633 16.5259 12.1758C16.4134 12.2884 16.3502 12.441 16.3502 12.6001C16.3502 12.7592 16.4134 12.9118 16.5259 13.0244C16.6385 13.1369 16.7911 13.2001 16.9502 13.2001C17.1093 13.2001 17.2619 13.1369 17.3745 13.0244C17.487 12.9118 17.5502 12.7592 17.5502 12.6001C17.5502 12.441 17.487 12.2884 17.3745 12.1758C17.2619 12.0633 17.1093 12.0001 16.9502 12.0001ZM20.5502 12.0001C20.3911 12.0001 20.2385 12.0633 20.1259 12.1758C20.0134 12.2884 19.9502 12.441 19.9502 12.6001C19.9502 12.7592 20.0134 12.9118 20.1259 13.0244C20.2385 13.1369 20.3911 13.2001 20.5502 13.2001C20.7093 13.2001 20.8619 13.1369 20.9745 13.0244C21.087 12.9118 21.1502 12.7592 21.1502 12.6001C21.1502 12.441 21.087 12.2884 20.9745 12.1758C20.8619 12.0633 20.7093 12.0001 20.5502 12.0001ZM11.5502 13.8001C11.3911 13.8001 11.2385 13.8633 11.1259 13.9758C11.0134 14.0884 10.9502 14.241 10.9502 14.4001C10.9502 14.5592 11.0134 14.7119 11.1259 14.8244C11.2385 14.9369 11.3911 15.0001 11.5502 15.0001C11.7093 15.0001 11.8619 14.9369 11.9745 14.8244C12.087 14.7119 12.1502 14.5592 12.1502 14.4001C12.1502 14.241 12.087 14.0884 11.9745 13.9758C11.8619 13.8633 11.7093 13.8001 11.5502 13.8001ZM15.1502 13.8001C14.9911 13.8001 14.8385 13.8633 14.7259 13.9758C14.6134 14.0884 14.5502 14.241 14.5502 14.4001C14.5502 14.5592 14.6134 14.7119 14.7259 14.8244C14.8385 14.9369 14.9911 15.0001 15.1502 15.0001C15.3093 15.0001 15.4619 14.9369 15.5745 14.8244C15.687 14.7119 15.7502 14.5592 15.7502 14.4001C15.7502 14.241 15.687 14.0884 15.5745 13.9758C15.4619 13.8633 15.3093 13.8001 15.1502 13.8001ZM18.7502 13.8001C18.5911 13.8001 18.4385 13.8633 18.3259 13.9758C18.2134 14.0884 18.1502 14.241 18.1502 14.4001C18.1502 14.5592 18.2134 14.7119 18.3259 14.8244C18.4385 14.9369 18.5911 15.0001 18.7502 15.0001C18.9093 15.0001 19.0619 14.9369 19.1745 14.8244C19.287 14.7119 19.3502 14.5592 19.3502 14.4001C19.3502 14.241 19.287 14.0884 19.1745 13.9758C19.0619 13.8633 18.9093 13.8001 18.7502 13.8001ZM22.3502 13.8001C22.1911 13.8001 22.0385 13.8633 21.9259 13.9758C21.8134 14.0884 21.7502 14.241 21.7502 14.4001C21.7502 14.5592 21.8134 14.7119 21.9259 14.8244C22.0385 14.9369 22.1911 15.0001 22.3502 15.0001C22.5093 15.0001 22.6619 14.9369 22.7745 14.8244C22.887 14.7119 22.9502 14.5592 22.9502 14.4001C22.9502 14.241 22.887 14.0884 22.7745 13.9758C22.6619 13.8633 22.5093 13.8001 22.3502 13.8001ZM9.7502 15.6001C9.59107 15.6001 9.43845 15.6633 9.32593 15.7758C9.21341 15.8884 9.1502 16.041 9.1502 16.2001C9.1502 16.3592 9.21341 16.5118 9.32593 16.6244C9.43845 16.7369 9.59107 16.8001 9.7502 16.8001C9.90933 16.8001 10.0619 16.7369 10.1745 16.6244C10.287 16.5118 10.3502 16.3592 10.3502 16.2001C10.3502 16.041 10.287 15.8884 10.1745 15.7758C10.0619 15.6633 9.90933 15.6001 9.7502 15.6001ZM13.3502 15.6001C13.1911 15.6001 13.0385 15.6633 12.9259 15.7758C12.8134 15.8884 12.7502 16.041 12.7502 16.2001C12.7502 16.3592 12.8134 16.5118 12.9259 16.6244C13.0385 16.7369 13.1911 16.8001 13.3502 16.8001C13.5093 16.8001 13.6619 16.7369 13.7745 16.6244C13.887 16.5118 13.9502 16.3592 13.9502 16.2001C13.9502 16.041 13.887 15.8884 13.7745 15.7758C13.6619 15.6633 13.5093 15.6001 13.3502 15.6001ZM16.9502 15.6001C16.7911 15.6001 16.6385 15.6633 16.5259 15.7758C16.4134 15.8884 16.3502 16.041 16.3502 16.2001C16.3502 16.3592 16.4134 16.5118 16.5259 16.6244C16.6385 16.7369 16.7911 16.8001 16.9502 16.8001C17.1093 16.8001 17.2619 16.7369 17.3745 16.6244C17.487 16.5118 17.5502 16.3592 17.5502 16.2001C17.5502 16.041 17.487 15.8884 17.3745 15.7758C17.2619 15.6633 17.1093 15.6001 16.9502 15.6001ZM20.5502 15.6001C20.3911 15.6001 20.2385 15.6633 20.1259 15.7758C20.0134 15.8884 19.9502 16.041 19.9502 16.2001C19.9502 16.3592 20.0134 16.5118 20.1259 16.6244C20.2385 16.7369 20.3911 16.8001 20.5502 16.8001C20.7093 16.8001 20.8619 16.7369 20.9745 16.6244C21.087 16.5118 21.1502 16.3592 21.1502 16.2001C21.1502 16.041 21.087 15.8884 20.9745 15.7758C20.8619 15.6633 20.7093 15.6001 20.5502 15.6001ZM7.9502 17.4001C7.79107 17.4001 7.63845 17.4633 7.52593 17.5758C7.41341 17.6884 7.3502 17.841 7.3502 18.0001C7.3502 18.1592 7.41341 18.3118 7.52593 18.4244C7.63845 18.5369 7.79107 18.6001 7.9502 18.6001C8.10933 18.6001 8.26194 18.5369 8.37446 18.4244C8.48698 18.3118 8.5502 18.1592 8.5502 18.0001C8.5502 17.841 8.48698 17.6884 8.37446 17.5758C8.26194 17.4633 8.10933 17.4001 7.9502 17.4001ZM11.5502 17.4001C11.3911 17.4001 11.2385 17.4633 11.1259 17.5758C11.0134 17.6884 10.9502 17.841 10.9502 18.0001C10.9502 18.1592 11.0134 18.3118 11.1259 18.4244C11.2385 18.5369 11.3911 18.6001 11.5502 18.6001C11.7093 18.6001 11.8619 18.5369 11.9745 18.4244C12.087 18.3118 12.1502 18.1592 12.1502 18.0001C12.1502 17.841 12.087 17.6884 11.9745 17.5758C11.8619 17.4633 11.7093 17.4001 11.5502 17.4001ZM15.1502 17.4001C14.9911 17.4001 14.8385 17.4633 14.7259 17.5758C14.6134 17.6884 14.5502 17.841 14.5502 18.0001C14.5502 18.1592 14.6134 18.3118 14.7259 18.4244C14.8385 18.5369 14.9911 18.6001 15.1502 18.6001C15.3093 18.6001 15.4619 18.5369 15.5745 18.4244C15.687 18.3118 15.7502 18.1592 15.7502 18.0001C15.7502 17.841 15.687 17.6884 15.5745 17.5758C15.4619 17.4633 15.3093 17.4001 15.1502 17.4001ZM18.7502 17.4001C18.5911 17.4001 18.4385 17.4633 18.3259 17.5758C18.2134 17.6884 18.1502 17.841 18.1502 18.0001C18.1502 18.1592 18.2134 18.3118 18.3259 18.4244C18.4385 18.5369 18.5911 18.6001 18.7502 18.6001C18.9093 18.6001 19.0619 18.5369 19.1745 18.4244C19.287 18.3118 19.3502 18.1592 19.3502 18.0001C19.3502 17.841 19.287 17.6884 19.1745 17.5758C19.0619 17.4633 18.9093 17.4001 18.7502 17.4001ZM22.3502 17.4001C22.1911 17.4001 22.0385 17.4633 21.9259 17.5758C21.8134 17.6884 21.7502 17.841 21.7502 18.0001C21.7502 18.1592 21.8134 18.3118 21.9259 18.4244C22.0385 18.5369 22.1911 18.6001 22.3502 18.6001C22.5093 18.6001 22.6619 18.5369 22.7745 18.4244C22.887 18.3118 22.9502 18.1592 22.9502 18.0001C22.9502 17.841 22.887 17.6884 22.7745 17.5758C22.6619 17.4633 22.5093 17.4001 22.3502 17.4001ZM9.7502 19.2001C9.59107 19.2001 9.43845 19.2633 9.32593 19.3758C9.21341 19.4884 9.1502 19.641 9.1502 19.8001C9.1502 19.9592 9.21341 20.1118 9.32593 20.2244C9.43845 20.3369 9.59107 20.4001 9.7502 20.4001C9.90933 20.4001 10.0619 20.3369 10.1745 20.2244C10.287 20.1118 10.3502 19.9592 10.3502 19.8001C10.3502 19.641 10.287 19.4884 10.1745 19.3758C10.0619 19.2633 9.90933 19.2001 9.7502 19.2001ZM13.3502 19.2001C13.1911 19.2001 13.0385 19.2633 12.9259 19.3758C12.8134 19.4884 12.7502 19.641 12.7502 19.8001C12.7502 19.9592 12.8134 20.1118 12.9259 20.2244C13.0385 20.3369 13.1911 20.4001 13.3502 20.4001C13.5093 20.4001 13.6619 20.3369 13.7745 20.2244C13.887 20.1118 13.9502 19.9592 13.9502 19.8001C13.9502 19.641 13.887 19.4884 13.7745 19.3758C13.6619 19.2633 13.5093 19.2001 13.3502 19.2001ZM16.9502 19.2001C16.7911 19.2001 16.6385 19.2633 16.5259 19.3758C16.4134 19.4884 16.3502 19.641 16.3502 19.8001C16.3502 19.9592 16.4134 20.1118 16.5259 20.2244C16.6385 20.3369 16.7911 20.4001 16.9502 20.4001C17.1093 20.4001 17.2619 20.3369 17.3745 20.2244C17.487 20.1118 17.5502 19.9592 17.5502 19.8001C17.5502 19.641 17.487 19.4884 17.3745 19.3758C17.2619 19.2633 17.1093 19.2001 16.9502 19.2001ZM20.5502 19.2001C20.3911 19.2001 20.2385 19.2633 20.1259 19.3758C20.0134 19.4884 19.9502 19.641 19.9502 19.8001C19.9502 19.9592 20.0134 20.1118 20.1259 20.2244C20.2385 20.3369 20.3911 20.4001 20.5502 20.4001C20.7093 20.4001 20.8619 20.3369 20.9745 20.2244C21.087 20.1118 21.1502 19.9592 21.1502 19.8001C21.1502 19.641 21.087 19.4884 20.9745 19.3758C20.8619 19.2633 20.7093 19.2001 20.5502 19.2001ZM7.9502 21.0001C7.79107 21.0001 7.63845 21.0633 7.52593 21.1758C7.41341 21.2884 7.3502 21.441 7.3502 21.6001C7.3502 21.7592 7.41341 21.9118 7.52593 22.0244C7.63845 22.1369 7.79107 22.2001 7.9502 22.2001C8.10933 22.2001 8.26194 22.1369 8.37446 22.0244C8.48698 21.9118 8.5502 21.7592 8.5502 21.6001C8.5502 21.441 8.48698 21.2884 8.37446 21.1758C8.26194 21.0633 8.10933 21.0001 7.9502 21.0001ZM11.5502 21.0001C11.3911 21.0001 11.2385 21.0633 11.1259 21.1758C11.0134 21.2884 10.9502 21.441 10.9502 21.6001C10.9502 21.7592 11.0134 21.9118 11.1259 22.0244C11.2385 22.1369 11.3911 22.2001 11.5502 22.2001C11.7093 22.2001 11.8619 22.1369 11.9745 22.0244C12.087 21.9118 12.1502 21.7592 12.1502 21.6001C12.1502 21.441 12.087 21.2884 11.9745 21.1758C11.8619 21.0633 11.7093 21.0001 11.5502 21.0001ZM15.1502 21.0001C14.9911 21.0001 14.8385 21.0633 14.7259 21.1758C14.6134 21.2884 14.5502 21.441 14.5502 21.6001C14.5502 21.7592 14.6134 21.9118 14.7259 22.0244C14.8385 22.1369 14.9911 22.2001 15.1502 22.2001C15.3093 22.2001 15.4619 22.1369 15.5745 22.0244C15.687 21.9118 15.7502 21.7592 15.7502 21.6001C15.7502 21.441 15.687 21.2884 15.5745 21.1758C15.4619 21.0633 15.3093 21.0001 15.1502 21.0001ZM18.7502 21.0001C18.5911 21.0001 18.4385 21.0633 18.3259 21.1758C18.2134 21.2884 18.1502 21.441 18.1502 21.6001C18.1502 21.7592 18.2134 21.9118 18.3259 22.0244C18.4385 22.1369 18.5911 22.2001 18.7502 22.2001C18.9093 22.2001 19.0619 22.1369 19.1745 22.0244C19.287 21.9118 19.3502 21.7592 19.3502 21.6001C19.3502 21.441 19.287 21.2884 19.1745 21.1758C19.0619 21.0633 18.9093 21.0001 18.7502 21.0001ZM22.3502 21.0001C22.1911 21.0001 22.0385 21.0633 21.9259 21.1758C21.8134 21.2884 21.7502 21.441 21.7502 21.6001C21.7502 21.7592 21.8134 21.9118 21.9259 22.0244C22.0385 22.1369 22.1911 22.2001 22.3502 22.2001C22.5093 22.2001 22.6619 22.1369 22.7745 22.0244C22.887 21.9118 22.9502 21.7592 22.9502 21.6001C22.9502 21.441 22.887 21.2884 22.7745 21.1758C22.6619 21.0633 22.5093 21.0001 22.3502 21.0001ZM6.16543 24.6001H24.5018L37.4627 37.561C35.82 39.1019 33.8985 40.3474 31.7826 41.2149C31.8899 41.1034 31.9499 40.9548 31.9502 40.8001C31.9502 40.641 31.887 40.4884 31.7745 40.3758C31.6619 40.2633 31.5093 40.2001 31.3502 40.2001C31.1911 40.2001 31.0385 40.2633 30.9259 40.3758C30.8134 40.4884 30.7502 40.641 30.7502 40.8001C30.7503 40.9535 30.8091 41.1011 30.9146 41.2124C31.0201 41.3238 31.1642 41.3905 31.3174 41.3989C29.274 42.1728 27.0615 42.6001 24.7502 42.6001C22.1647 42.6001 19.7017 42.0693 17.4623 41.1118C17.5196 41.0179 17.55 40.9101 17.5502 40.8001C17.5502 40.641 17.487 40.4884 17.3745 40.3758C17.2619 40.2633 17.1093 40.2001 16.9502 40.2001C16.8255 40.2003 16.7041 40.2394 16.6026 40.3119C16.5012 40.3843 16.4248 40.4866 16.3842 40.6044C10.4882 37.6215 6.38854 31.5936 6.16543 24.6001ZM9.7502 25.8001C9.59107 25.8001 9.43845 25.8633 9.32593 25.9758C9.21341 26.0884 9.1502 26.241 9.1502 26.4001C9.1502 26.5592 9.21341 26.7118 9.32593 26.8244C9.43845 26.9369 9.59107 27.0001 9.7502 27.0001C9.90933 27.0001 10.0619 26.9369 10.1745 26.8244C10.287 26.7118 10.3502 26.5592 10.3502 26.4001C10.3502 26.241 10.287 26.0884 10.1745 25.9758C10.0619 25.8633 9.90933 25.8001 9.7502 25.8001ZM13.3502 25.8001C13.1911 25.8001 13.0385 25.8633 12.9259 25.9758C12.8134 26.0884 12.7502 26.241 12.7502 26.4001C12.7502 26.5592 12.8134 26.7118 12.9259 26.8244C13.0385 26.9369 13.1911 27.0001 13.3502 27.0001C13.5093 27.0001 13.6619 26.9369 13.7745 26.8244C13.887 26.7118 13.9502 26.5592 13.9502 26.4001C13.9502 26.241 13.887 26.0884 13.7745 25.9758C13.6619 25.8633 13.5093 25.8001 13.3502 25.8001ZM16.9502 25.8001C16.7911 25.8001 16.6385 25.8633 16.5259 25.9758C16.4134 26.0884 16.3502 26.241 16.3502 26.4001C16.3502 26.5592 16.4134 26.7118 16.5259 26.8244C16.6385 26.9369 16.7911 27.0001 16.9502 27.0001C17.1093 27.0001 17.2619 26.9369 17.3745 26.8244C17.487 26.7118 17.5502 26.5592 17.5502 26.4001C17.5502 26.241 17.487 26.0884 17.3745 25.9758C17.2619 25.8633 17.1093 25.8001 16.9502 25.8001ZM20.5502 25.8001C20.3911 25.8001 20.2385 25.8633 20.1259 25.9758C20.0134 26.0884 19.9502 26.241 19.9502 26.4001C19.9502 26.5592 20.0134 26.7118 20.1259 26.8244C20.2385 26.9369 20.3911 27.0001 20.5502 27.0001C20.7093 27.0001 20.8619 26.9369 20.9745 26.8244C21.087 26.7118 21.1502 26.5592 21.1502 26.4001C21.1502 26.241 21.087 26.0884 20.9745 25.9758C20.8619 25.8633 20.7093 25.8001 20.5502 25.8001ZM24.1502 25.8001C23.9911 25.8001 23.8385 25.8633 23.7259 25.9758C23.6134 26.0884 23.5502 26.241 23.5502 26.4001C23.5502 26.5592 23.6134 26.7118 23.7259 26.8244C23.8385 26.9369 23.9911 27.0001 24.1502 27.0001C24.3093 27.0001 24.4619 26.9369 24.5745 26.8244C24.687 26.7118 24.7502 26.5592 24.7502 26.4001C24.7502 26.241 24.687 26.0884 24.5745 25.9758C24.4619 25.8633 24.3093 25.8001 24.1502 25.8001ZM9.7502 29.4001C9.59107 29.4001 9.43845 29.4633 9.32593 29.5758C9.21341 29.6884 9.1502 29.841 9.1502 30.0001C9.1502 30.1592 9.21341 30.3118 9.32593 30.4244C9.43845 30.5369 9.59107 30.6001 9.7502 30.6001C9.90933 30.6001 10.0619 30.5369 10.1745 30.4244C10.287 30.3118 10.3502 30.1592 10.3502 30.0001C10.3502 29.841 10.287 29.6884 10.1745 29.5758C10.0619 29.4633 9.90933 29.4001 9.7502 29.4001ZM13.3502 29.4001C13.1911 29.4001 13.0385 29.4633 12.9259 29.5758C12.8134 29.6884 12.7502 29.841 12.7502 30.0001C12.7502 30.1592 12.8134 30.3118 12.9259 30.4244C13.0385 30.5369 13.1911 30.6001 13.3502 30.6001C13.5093 30.6001 13.6619 30.5369 13.7745 30.4244C13.887 30.3118 13.9502 30.1592 13.9502 30.0001C13.9502 29.841 13.887 29.6884 13.7745 29.5758C13.6619 29.4633 13.5093 29.4001 13.3502 29.4001ZM16.9502 29.4001C16.7911 29.4001 16.6385 29.4633 16.5259 29.5758C16.4134 29.6884 16.3502 29.841 16.3502 30.0001C16.3502 30.1592 16.4134 30.3118 16.5259 30.4244C16.6385 30.5369 16.7911 30.6001 16.9502 30.6001C17.1093 30.6001 17.2619 30.5369 17.3745 30.4244C17.487 30.3118 17.5502 30.1592 17.5502 30.0001C17.5502 29.841 17.487 29.6884 17.3745 29.5758C17.2619 29.4633 17.1093 29.4001 16.9502 29.4001ZM20.5502 29.4001C20.3911 29.4001 20.2385 29.4633 20.1259 29.5758C20.0134 29.6884 19.9502 29.841 19.9502 30.0001C19.9502 30.1592 20.0134 30.3118 20.1259 30.4244C20.2385 30.5369 20.3911 30.6001 20.5502 30.6001C20.7093 30.6001 20.8619 30.5369 20.9745 30.4244C21.087 30.3118 21.1502 30.1592 21.1502 30.0001C21.1502 29.841 21.087 29.6884 20.9745 29.5758C20.8619 29.4633 20.7093 29.4001 20.5502 29.4001ZM24.1502 29.4001C23.9911 29.4001 23.8385 29.4633 23.7259 29.5758C23.6134 29.6884 23.5502 29.841 23.5502 30.0001C23.5502 30.1592 23.6134 30.3118 23.7259 30.4244C23.8385 30.5369 23.9911 30.6001 24.1502 30.6001C24.3093 30.6001 24.4619 30.5369 24.5745 30.4244C24.687 30.3118 24.7502 30.1592 24.7502 30.0001C24.7502 29.841 24.687 29.6884 24.5745 29.5758C24.4619 29.4633 24.3093 29.4001 24.1502 29.4001ZM27.7502 29.4001C27.5911 29.4001 27.4385 29.4633 27.3259 29.5758C27.2134 29.6884 27.1502 29.841 27.1502 30.0001C27.1502 30.1592 27.2134 30.3118 27.3259 30.4244C27.4385 30.5369 27.5911 30.6001 27.7502 30.6001C27.9093 30.6001 28.0619 30.5369 28.1745 30.4244C28.287 30.3118 28.3502 30.1592 28.3502 30.0001C28.3502 29.841 28.287 29.6884 28.1745 29.5758C28.0619 29.4633 27.9093 29.4001 27.7502 29.4001ZM9.7502 33.0001C9.59107 33.0001 9.43845 33.0633 9.32593 33.1758C9.21341 33.2884 9.1502 33.441 9.1502 33.6001C9.1502 33.7592 9.21341 33.9118 9.32593 34.0244C9.43845 34.1369 9.59107 34.2001 9.7502 34.2001C9.90933 34.2001 10.0619 34.1369 10.1745 34.0244C10.287 33.9118 10.3502 33.7592 10.3502 33.6001C10.3502 33.441 10.287 33.2884 10.1745 33.1758C10.0619 33.0633 9.90933 33.0001 9.7502 33.0001ZM13.3502 33.0001C13.1911 33.0001 13.0385 33.0633 12.9259 33.1758C12.8134 33.2884 12.7502 33.441 12.7502 33.6001C12.7502 33.7592 12.8134 33.9118 12.9259 34.0244C13.0385 34.1369 13.1911 34.2001 13.3502 34.2001C13.5093 34.2001 13.6619 34.1369 13.7745 34.0244C13.887 33.9118 13.9502 33.7592 13.9502 33.6001C13.9502 33.441 13.887 33.2884 13.7745 33.1758C13.6619 33.0633 13.5093 33.0001 13.3502 33.0001ZM16.9502 33.0001C16.7911 33.0001 16.6385 33.0633 16.5259 33.1758C16.4134 33.2884 16.3502 33.441 16.3502 33.6001C16.3502 33.7592 16.4134 33.9118 16.5259 34.0244C16.6385 34.1369 16.7911 34.2001 16.9502 34.2001C17.1093 34.2001 17.2619 34.1369 17.3745 34.0244C17.487 33.9118 17.5502 33.7592 17.5502 33.6001C17.5502 33.441 17.487 33.2884 17.3745 33.1758C17.2619 33.0633 17.1093 33.0001 16.9502 33.0001ZM20.5502 33.0001C20.3911 33.0001 20.2385 33.0633 20.1259 33.1758C20.0134 33.2884 19.9502 33.441 19.9502 33.6001C19.9502 33.7592 20.0134 33.9118 20.1259 34.0244C20.2385 34.1369 20.3911 34.2001 20.5502 34.2001C20.7093 34.2001 20.8619 34.1369 20.9745 34.0244C21.087 33.9118 21.1502 33.7592 21.1502 33.6001C21.1502 33.441 21.087 33.2884 20.9745 33.1758C20.8619 33.0633 20.7093 33.0001 20.5502 33.0001ZM24.1502 33.0001C23.9911 33.0001 23.8385 33.0633 23.7259 33.1758C23.6134 33.2884 23.5502 33.441 23.5502 33.6001C23.5502 33.7592 23.6134 33.9118 23.7259 34.0244C23.8385 34.1369 23.9911 34.2001 24.1502 34.2001C24.3093 34.2001 24.4619 34.1369 24.5745 34.0244C24.687 33.9118 24.7502 33.7592 24.7502 33.6001C24.7502 33.441 24.687 33.2884 24.5745 33.1758C24.4619 33.0633 24.3093 33.0001 24.1502 33.0001ZM27.7502 33.0001C27.5911 33.0001 27.4385 33.0633 27.3259 33.1758C27.2134 33.2884 27.1502 33.441 27.1502 33.6001C27.1502 33.7592 27.2134 33.9118 27.3259 34.0244C27.4385 34.1369 27.5911 34.2001 27.7502 34.2001C27.9093 34.2001 28.0619 34.1369 28.1745 34.0244C28.287 33.9118 28.3502 33.7592 28.3502 33.6001C28.3502 33.441 28.287 33.2884 28.1745 33.1758C28.0619 33.0633 27.9093 33.0001 27.7502 33.0001ZM31.3502 33.0001C31.1911 33.0001 31.0385 33.0633 30.9259 33.1758C30.8134 33.2884 30.7502 33.441 30.7502 33.6001C30.7502 33.7592 30.8134 33.9118 30.9259 34.0244C31.0385 34.1369 31.1911 34.2001 31.3502 34.2001C31.5093 34.2001 31.6619 34.1369 31.7745 34.0244C31.887 33.9118 31.9502 33.7592 31.9502 33.6001C31.9502 33.441 31.887 33.2884 31.7745 33.1758C31.6619 33.0633 31.5093 33.0001 31.3502 33.0001ZM13.3502 36.6001C13.1911 36.6001 13.0385 36.6633 12.9259 36.7758C12.8134 36.8884 12.7502 37.041 12.7502 37.2001C12.7502 37.3592 12.8134 37.5118 12.9259 37.6244C13.0385 37.7369 13.1911 37.8001 13.3502 37.8001C13.5093 37.8001 13.6619 37.7369 13.7745 37.6244C13.887 37.5118 13.9502 37.3592 13.9502 37.2001C13.9502 37.041 13.887 36.8884 13.7745 36.7758C13.6619 36.6633 13.5093 36.6001 13.3502 36.6001ZM16.9502 36.6001C16.7911 36.6001 16.6385 36.6633 16.5259 36.7758C16.4134 36.8884 16.3502 37.041 16.3502 37.2001C16.3502 37.3592 16.4134 37.5118 16.5259 37.6244C16.6385 37.7369 16.7911 37.8001 16.9502 37.8001C17.1093 37.8001 17.2619 37.7369 17.3745 37.6244C17.487 37.5118 17.5502 37.3592 17.5502 37.2001C17.5502 37.041 17.487 36.8884 17.3745 36.7758C17.2619 36.6633 17.1093 36.6001 16.9502 36.6001ZM20.5502 36.6001C20.3911 36.6001 20.2385 36.6633 20.1259 36.7758C20.0134 36.8884 19.9502 37.041 19.9502 37.2001C19.9502 37.3592 20.0134 37.5118 20.1259 37.6244C20.2385 37.7369 20.3911 37.8001 20.5502 37.8001C20.7093 37.8001 20.8619 37.7369 20.9745 37.6244C21.087 37.5118 21.1502 37.3592 21.1502 37.2001C21.1502 37.041 21.087 36.8884 20.9745 36.7758C20.8619 36.6633 20.7093 36.6001 20.5502 36.6001ZM24.1502 36.6001C23.9911 36.6001 23.8385 36.6633 23.7259 36.7758C23.6134 36.8884 23.5502 37.041 23.5502 37.2001C23.5502 37.3592 23.6134 37.5118 23.7259 37.6244C23.8385 37.7369 23.9911 37.8001 24.1502 37.8001C24.3093 37.8001 24.4619 37.7369 24.5745 37.6244C24.687 37.5118 24.7502 37.3592 24.7502 37.2001C24.7502 37.041 24.687 36.8884 24.5745 36.7758C24.4619 36.6633 24.3093 36.6001 24.1502 36.6001ZM27.7502 36.6001C27.5911 36.6001 27.4385 36.6633 27.3259 36.7758C27.2134 36.8884 27.1502 37.041 27.1502 37.2001C27.1502 37.3592 27.2134 37.5118 27.3259 37.6244C27.4385 37.7369 27.5911 37.8001 27.7502 37.8001C27.9093 37.8001 28.0619 37.7369 28.1745 37.6244C28.287 37.5118 28.3502 37.3592 28.3502 37.2001C28.3502 37.041 28.287 36.8884 28.1745 36.7758C28.0619 36.6633 27.9093 36.6001 27.7502 36.6001ZM31.3502 36.6001C31.1911 36.6001 31.0385 36.6633 30.9259 36.7758C30.8134 36.8884 30.7502 37.041 30.7502 37.2001C30.7502 37.3592 30.8134 37.5118 30.9259 37.6244C31.0385 37.7369 31.1911 37.8001 31.3502 37.8001C31.5093 37.8001 31.6619 37.7369 31.7745 37.6244C31.887 37.5118 31.9502 37.3592 31.9502 37.2001C31.9502 37.041 31.887 36.8884 31.7745 36.7758C31.6619 36.6633 31.5093 36.6001 31.3502 36.6001ZM34.9502 36.6001C34.7911 36.6001 34.6385 36.6633 34.5259 36.7758C34.4134 36.8884 34.3502 37.041 34.3502 37.2001C34.3502 37.3592 34.4134 37.5118 34.5259 37.6244C34.6385 37.7369 34.7911 37.8001 34.9502 37.8001C35.1093 37.8001 35.2619 37.7369 35.3745 37.6244C35.487 37.5118 35.5502 37.3592 35.5502 37.2001C35.5502 37.041 35.487 36.8884 35.3745 36.7758C35.2619 36.6633 35.1093 36.6001 34.9502 36.6001ZM20.5502 40.2001C20.3911 40.2001 20.2385 40.2633 20.1259 40.3758C20.0134 40.4884 19.9502 40.641 19.9502 40.8001C19.9502 40.9592 20.0134 41.1118 20.1259 41.2244C20.2385 41.3369 20.3911 41.4001 20.5502 41.4001C20.7093 41.4001 20.8619 41.3369 20.9745 41.2244C21.087 41.1118 21.1502 40.9592 21.1502 40.8001C21.1502 40.641 21.087 40.4884 20.9745 40.3758C20.8619 40.2633 20.7093 40.2001 20.5502 40.2001ZM24.1502 40.2001C23.9911 40.2001 23.8385 40.2633 23.7259 40.3758C23.6134 40.4884 23.5502 40.641 23.5502 40.8001C23.5502 40.9592 23.6134 41.1118 23.7259 41.2244C23.8385 41.3369 23.9911 41.4001 24.1502 41.4001C24.3093 41.4001 24.4619 41.3369 24.5745 41.2244C24.687 41.1118 24.7502 40.9592 24.7502 40.8001C24.7502 40.641 24.687 40.4884 24.5745 40.3758C24.4619 40.2633 24.3093 40.2001 24.1502 40.2001ZM27.7502 40.2001C27.5911 40.2001 27.4385 40.2633 27.3259 40.3758C27.2134 40.4884 27.1502 40.641 27.1502 40.8001C27.1502 40.9592 27.2134 41.1118 27.3259 41.2244C27.4385 41.3369 27.5911 41.4001 27.7502 41.4001C27.9093 41.4001 28.0619 41.3369 28.1745 41.2244C28.287 41.1118 28.3502 40.9592 28.3502 40.8001C28.3502 40.641 28.287 40.4884 28.1745 40.3758C28.0619 40.2633 27.9093 40.2001 27.7502 40.2001Z" fill="black"/>
</g>
</svg>
