<svg width="49" height="48" viewBox="0 0 49 48" fill="none" xmlns="http://www.w3.org/2000/svg">
<g id="icons8_in_progress 1">
<path id="Vector" d="M24.7502 4.19995C24.4197 4.19995 24.1502 4.46948 24.1502 4.79995C24.1502 5.13042 24.4197 5.39995 24.7502 5.39995C25.983 5.39995 27.1854 5.52183 28.3502 5.75151C28.3596 5.75386 28.3689 5.7562 28.3783 5.7562C28.3924 5.75854 28.4041 5.76089 28.4182 5.76089C29.5947 5.99761 30.7291 6.34448 31.8143 6.78979C31.8307 6.79917 31.8494 6.80854 31.8682 6.81558C31.8939 6.82495 31.9174 6.83433 31.9432 6.84136C33.0354 7.29839 34.0736 7.85854 35.0463 8.50542C35.0604 8.51714 35.0721 8.52417 35.0838 8.53354C35.1025 8.54526 35.1213 8.55698 35.14 8.56636C36.1197 9.22729 37.0314 9.97964 37.8658 10.8093C37.8775 10.8234 37.8893 10.8351 37.9033 10.8468C37.9127 10.8585 37.9221 10.8679 37.9338 10.875C38.7658 11.714 39.5205 12.6281 40.1838 13.6101C40.1932 13.6289 40.2049 13.6476 40.2166 13.6664C40.226 13.6828 40.2377 13.6968 40.2494 13.7132C40.8963 14.6859 41.4541 15.7195 41.9088 16.8093C41.9158 16.8328 41.9252 16.8585 41.9346 16.882C41.9416 16.9007 41.951 16.9195 41.9627 16.9382C42.408 18.0234 42.7525 19.1601 42.9869 20.3367C42.9893 20.3484 42.9916 20.3601 42.9939 20.3718C42.9939 20.3718 42.9939 20.3742 42.9939 20.3765C43.226 21.5484 43.3502 22.7601 43.3502 24C43.3502 25.2328 43.2283 26.4375 42.9986 27.6046C42.9963 27.6117 42.9939 27.621 42.9939 27.6281C42.9893 27.6468 42.9869 27.6679 42.9846 27.6867C42.7502 28.8562 42.4033 29.9835 41.9627 31.0593C41.9533 31.0781 41.9439 31.0968 41.9346 31.1156C41.9252 31.1437 41.9158 31.1695 41.9088 31.1976C41.4541 32.2828 40.8963 33.314 40.2541 34.282C40.2518 34.282 40.2518 34.282 40.2518 34.2843C40.2377 34.2984 40.226 34.3148 40.2166 34.3312C40.2002 34.3546 40.1885 34.3757 40.1768 34.3992C39.5158 35.3789 38.7635 36.2906 37.9338 37.125C37.9221 37.132 37.9127 37.1414 37.9033 37.1531C37.8916 37.1624 37.8822 37.1718 37.8752 37.1835C37.0408 38.0132 36.1314 38.7656 35.1541 39.4242C35.1283 39.4359 35.1049 39.4499 35.0838 39.464C35.0674 39.4757 35.051 39.4874 35.0346 39.4992C34.0666 40.1437 33.0354 40.7015 31.9502 41.1562C31.9221 41.1632 31.8963 41.1726 31.8682 41.1843C31.8471 41.1914 31.826 41.2031 31.8072 41.2124C30.7314 41.6554 29.6041 42 28.4393 42.2343C28.4182 42.2343 28.3994 42.239 28.3783 42.2437C28.3736 42.2437 28.3666 42.246 28.3596 42.246C27.1924 42.4757 25.9853 42.5999 24.7502 42.5999C20.9439 42.5999 17.4096 41.4585 14.4658 39.4992C14.4494 39.4874 14.433 39.4757 14.4189 39.464C14.3229 39.4007 14.2104 39.3656 14.0955 39.3632C13.8916 39.3585 13.6994 39.4593 13.5846 39.6281C13.4979 39.7617 13.465 39.9234 13.4955 40.0804C13.526 40.2374 13.6174 40.3734 13.751 40.4624C13.7674 40.4742 13.7861 40.4835 13.8025 40.4929L13.8002 40.5C14.8338 41.1867 15.9447 41.7703 17.1025 42.2554C17.126 42.2695 17.1494 42.2812 17.1752 42.2906C17.1939 42.2999 17.215 42.307 17.2385 42.314C18.3729 42.7804 19.5635 43.1414 20.7939 43.3921C20.8244 43.4039 20.8572 43.4132 20.8877 43.4179C20.9229 43.4249 20.958 43.4296 20.9932 43.4296C22.1955 43.6617 23.433 43.7953 24.7033 43.7976C24.7057 43.7976 24.7057 43.7976 24.708 43.7999C24.7221 43.7999 24.7361 43.7999 24.7502 43.7999C26.058 43.7999 27.3354 43.6687 28.5728 43.4273C28.5869 43.4249 28.601 43.4226 28.6127 43.4203C28.6197 43.4203 28.6244 43.4179 28.6291 43.4156C31.2049 42.9046 33.6025 41.8921 35.7143 40.4835C35.726 40.4765 35.7377 40.4695 35.7494 40.4624C35.7564 40.4578 35.7635 40.4531 35.7705 40.446C36.8205 39.7406 37.8002 38.9367 38.6955 38.0484C38.7143 38.0343 38.733 38.0179 38.7494 37.9992C38.7682 37.9828 38.7822 37.9664 38.7963 37.9476C39.6822 37.0546 40.4861 36.0796 41.1893 35.032C41.1986 35.0203 41.2057 35.0085 41.2127 34.9968C41.2244 34.9804 41.2361 34.964 41.2432 34.9453C42.6447 32.8382 43.6549 30.4499 44.1658 27.8812C44.1682 27.8765 44.1682 27.8695 44.1705 27.8624C44.1728 27.8554 44.1728 27.8484 44.1752 27.8414C44.4166 26.6109 44.5455 25.3406 44.5502 24.0421C44.5502 24.0281 44.5502 24.014 44.5502 24C44.5502 22.6921 44.4189 21.4171 44.1775 20.1796C44.1752 20.1656 44.1728 20.1515 44.1705 20.1375C44.1705 20.1328 44.1682 20.1281 44.1658 20.121C43.915 18.8554 43.54 17.6296 43.0596 16.4625C43.0572 16.4601 43.0572 16.4554 43.0549 16.4531C43.0502 16.4437 43.0478 16.432 43.0432 16.4226C43.0432 16.4203 43.0408 16.4203 43.0408 16.4179C42.551 15.239 41.9533 14.121 41.2549 13.0687C41.2432 13.0453 41.2291 13.0218 41.2127 12.9984C41.2033 12.982 41.1916 12.9656 41.1775 12.9492C40.4768 11.9109 39.6799 10.9406 38.7986 10.0546C38.7846 10.0359 38.7682 10.0171 38.7494 10.0007C38.733 9.98198 38.7166 9.96792 38.6978 9.95386C37.8072 9.07026 36.8369 8.27104 35.7939 7.56792C35.7799 7.5562 35.7658 7.54683 35.7494 7.53511C35.7283 7.52104 35.7049 7.50698 35.6814 7.49761C34.6291 6.79683 33.5064 6.19683 32.3275 5.70698C32.3252 5.70464 32.3205 5.70464 32.3182 5.70464C31.1439 5.21714 29.9135 4.83979 28.6385 4.58433C28.6291 4.58433 28.6221 4.58198 28.6127 4.57964C28.6057 4.57729 28.5963 4.57729 28.5846 4.57495C27.3447 4.3312 26.0627 4.19995 24.7502 4.19995ZM21.0072 4.57026C20.9674 4.56792 20.9275 4.57261 20.8877 4.57964C20.5619 4.64526 20.351 4.96167 20.4166 5.28745C20.4822 5.61089 20.7963 5.82183 21.1221 5.7562C21.4479 5.69292 21.6588 5.37651 21.5932 5.05308C21.5369 4.77183 21.2932 4.57026 21.0072 4.57026ZM17.4072 5.66245C17.3275 5.66011 17.2479 5.67651 17.1729 5.70698C16.8658 5.83354 16.7205 6.18511 16.8471 6.48979C16.976 6.79683 17.3252 6.94214 17.6322 6.81558C17.9393 6.68901 18.0846 6.33745 17.9557 6.03042C17.8643 5.81011 17.6486 5.66245 17.4072 5.66245ZM24.7502 7.19995C24.4197 7.19995 24.1502 7.46948 24.1502 7.79995C24.1502 8.13042 24.4197 8.39995 24.7502 8.39995C25.0807 8.39995 25.3502 8.13042 25.3502 7.79995C25.3502 7.46948 25.0807 7.19995 24.7502 7.19995ZM14.0908 7.43433C13.9689 7.43433 13.8494 7.46948 13.751 7.53745C13.4744 7.72026 13.3994 8.09292 13.5846 8.36948C13.7697 8.6437 14.14 8.7187 14.4166 8.53354C14.6908 8.34839 14.7658 7.97808 14.5807 7.70151C14.4729 7.53745 14.2877 7.43667 14.0908 7.43433ZM27.926 7.50933C27.633 7.50229 27.3799 7.7062 27.3213 7.99448C27.258 8.31792 27.4689 8.63433 27.7947 8.69995C28.1182 8.76323 28.4346 8.55229 28.5002 8.22886C28.5635 7.90308 28.3525 7.58667 28.0291 7.52104C27.9939 7.51636 27.9611 7.51167 27.926 7.50933ZM21.5932 7.51167C21.5533 7.51167 21.5135 7.51401 21.4736 7.52104C21.1479 7.58667 20.9369 7.90308 21.0025 8.22886C21.033 8.38354 21.1244 8.52183 21.258 8.61089C21.3893 8.69761 21.551 8.73042 21.708 8.69995C22.0338 8.63433 22.2447 8.32026 22.1791 7.99448C22.1229 7.71558 21.8791 7.51401 21.5932 7.51167ZM18.5557 8.43276C18.476 8.43276 18.3963 8.44683 18.3213 8.47729C18.0143 8.6062 17.8689 8.95542 17.9979 9.26245C18.1244 9.56948 18.4736 9.71479 18.7807 9.58823C19.0877 9.45933 19.233 9.11011 19.1064 8.80308C19.0127 8.58042 18.7971 8.43511 18.5557 8.43276ZM30.9635 8.43276C30.715 8.42808 30.49 8.57339 30.3939 8.80308C30.2674 9.11011 30.4127 9.45933 30.7197 9.58823C31.0268 9.71479 31.376 9.56948 31.5025 9.26245C31.6314 8.95542 31.4861 8.6062 31.1791 8.47729C31.1111 8.44917 31.0361 8.43511 30.9635 8.43276ZM11.1822 9.82495C11.0205 9.82261 10.8635 9.88589 10.751 10.0007C10.5166 10.2328 10.5166 10.6148 10.751 10.8468C10.983 11.0812 11.365 11.0812 11.5971 10.8468C11.8314 10.6148 11.8314 10.2328 11.5971 10.0007C11.4869 9.88823 11.3393 9.82495 11.1822 9.82495ZM15.7572 9.92808C15.6354 9.92808 15.5158 9.96323 15.415 10.0312C15.1408 10.214 15.0658 10.5867 15.251 10.8632C15.4338 11.1375 15.8064 11.2125 16.083 11.0273C16.3596 10.8445 16.4322 10.4718 16.2494 10.1976C16.1393 10.0312 15.9541 9.93042 15.7572 9.92808ZM33.7596 9.92808C33.5557 9.92573 33.3635 10.0265 33.251 10.1976C33.0658 10.4718 33.1408 10.8445 33.415 11.0273C33.6916 11.2125 34.0643 11.1375 34.2471 10.8632C34.3361 10.732 34.3689 10.5679 34.3385 10.4132C34.308 10.2562 34.2166 10.1179 34.083 10.0312C33.9869 9.96558 33.8768 9.93042 33.7596 9.92808ZM13.3033 11.9437C13.1416 11.9437 12.9846 12.007 12.8721 12.1218C12.6377 12.3539 12.6377 12.7359 12.8721 12.9679C13.1041 13.2023 13.4861 13.2023 13.7182 12.9679C13.9525 12.7359 13.9525 12.3539 13.7182 12.1218C13.608 12.0093 13.4604 11.946 13.3033 11.9437ZM36.2135 11.9437C36.0518 11.9437 35.8947 12.007 35.7822 12.1218C35.5478 12.3539 35.5478 12.7359 35.7822 12.9679C36.0143 13.2023 36.3963 13.2023 36.6283 12.9679C36.8627 12.7359 36.8627 12.3539 36.6283 12.1218C36.5182 12.0093 36.3705 11.946 36.2135 11.9437ZM8.79629 12.7335C8.59238 12.7289 8.4002 12.8296 8.2877 13.0007C8.10254 13.275 8.17754 13.6476 8.4541 13.8304C8.72832 14.0156 9.10098 13.9406 9.28379 13.6664C9.46895 13.3898 9.39394 13.0195 9.11973 12.8343C9.02363 12.771 8.91348 12.7359 8.79629 12.7335ZM38.2268 14.4C38.1049 14.3976 37.9877 14.4328 37.8869 14.5007C37.6127 14.6835 37.5377 15.0562 37.7229 15.3304C37.9057 15.607 38.2783 15.682 38.5525 15.4968C38.8291 15.3117 38.9041 14.9414 38.7189 14.6648C38.6088 14.5007 38.4236 14.4 38.2268 14.4ZM11.29 14.4C11.0861 14.3953 10.8939 14.496 10.7814 14.6648C10.5986 14.9414 10.6713 15.314 10.9479 15.4968C11.2244 15.682 11.5947 15.607 11.7799 15.3328C11.9627 15.0562 11.89 14.6835 11.6135 14.5007C11.5174 14.4375 11.4072 14.4023 11.29 14.4ZM7.02441 16.05C6.77832 16.0453 6.55098 16.1929 6.45723 16.4226C6.33066 16.7273 6.47598 17.0789 6.78066 17.2054C7.0877 17.332 7.43926 17.1867 7.56582 16.882C7.69238 16.575 7.54707 16.2234 7.24004 16.0968C7.17207 16.0687 7.09941 16.0523 7.02441 16.05ZM39.7221 17.2007C39.6424 17.1984 39.5627 17.2148 39.4877 17.2453C39.1807 17.3718 39.0354 17.7234 39.1619 18.0281C39.2908 18.3351 39.64 18.4804 39.9471 18.3539C40.2541 18.2273 40.3994 17.8757 40.2729 17.5687C40.1791 17.3484 39.9635 17.2007 39.7221 17.2007ZM9.79707 17.2007C9.54863 17.196 9.32363 17.3414 9.22988 17.571C9.10332 17.8781 9.24863 18.2273 9.55332 18.3562C9.86035 18.4828 10.2119 18.3375 10.3385 18.0304C10.465 17.7234 10.3197 17.3742 10.0127 17.2476C9.94473 17.2171 9.87207 17.2031 9.79707 17.2007ZM33.2229 18.689L22.8729 28.6687L17.5736 23.2335L16.2846 24.4898L22.8307 31.2093L34.4721 19.9851L33.2229 18.689ZM5.93457 19.6546C5.6416 19.6476 5.38848 19.8515 5.32988 20.1375C5.2666 20.4632 5.47754 20.7773 5.80332 20.8429C5.95801 20.8734 6.11973 20.8406 6.25332 20.7539C6.38457 20.6648 6.47598 20.5265 6.50645 20.3718C6.57207 20.046 6.36113 19.7296 6.0377 19.6664C6.00254 19.6593 5.96973 19.6546 5.93457 19.6546ZM40.6408 20.2406C40.601 20.2382 40.5611 20.2429 40.5213 20.25C40.1978 20.3156 39.9869 20.632 40.0502 20.9554C40.1158 21.2812 40.4322 21.4921 40.7557 21.4289C41.0814 21.3632 41.2924 21.0468 41.2291 20.721C41.1728 20.4421 40.9268 20.2406 40.6408 20.2406ZM8.87832 20.2406C8.58535 20.2335 8.33223 20.4351 8.27363 20.721C8.24316 20.8781 8.27363 21.0421 8.3627 21.1734C8.45176 21.307 8.59004 21.3984 8.74707 21.4289C8.90176 21.4593 9.06348 21.4265 9.19707 21.3398C9.32832 21.2507 9.41973 21.1124 9.45019 20.9554C9.51582 20.632 9.30488 20.3156 8.98144 20.25C8.94629 20.2453 8.91348 20.2406 8.87832 20.2406ZM5.5502 23.4C5.21973 23.4 4.9502 23.6695 4.9502 24C4.9502 24.3304 5.21973 24.6 5.5502 24.6C5.88066 24.6 6.1502 24.3304 6.1502 24C6.1502 23.6695 5.88066 23.4 5.5502 23.4ZM8.5502 23.4C8.21973 23.4 7.9502 23.6695 7.9502 24C7.9502 24.3304 8.21973 24.6 8.5502 24.6C8.88066 24.6 9.1502 24.3304 9.1502 24C9.1502 23.6695 8.88066 23.4 8.5502 23.4ZM40.9502 23.4C40.6197 23.4 40.3502 23.6695 40.3502 24C40.3502 24.3304 40.6197 24.6 40.9502 24.6C41.2807 24.6 41.5502 24.3304 41.5502 24C41.5502 23.6695 41.2807 23.4 40.9502 23.4ZM8.86426 26.5593C8.82441 26.5593 8.78457 26.564 8.74473 26.571C8.41895 26.6367 8.20801 26.9531 8.27363 27.2789C8.33926 27.6023 8.65332 27.8132 8.9791 27.75C9.30488 27.6843 9.51582 27.3679 9.45019 27.0445C9.39395 26.7632 9.1502 26.5617 8.86426 26.5593ZM40.6549 26.5593C40.3619 26.5523 40.1088 26.7562 40.0502 27.0445C39.9869 27.3679 40.1978 27.6843 40.5213 27.75C40.8471 27.8132 41.1635 27.6023 41.2291 27.2789C41.2924 26.9531 41.0814 26.6367 40.7557 26.571C40.7229 26.5664 40.69 26.5617 40.6549 26.5593ZM5.92051 27.1476C5.88066 27.1453 5.84082 27.15 5.80332 27.1593C5.47754 27.2226 5.2666 27.539 5.32988 27.8624C5.39551 28.1882 5.71191 28.3992 6.0377 28.3335C6.36113 28.2703 6.57207 27.9539 6.50645 27.6281C6.45254 27.3492 6.20645 27.1476 5.92051 27.1476ZM39.7314 29.5968C39.483 29.5921 39.258 29.7398 39.1619 29.9695C39.0354 30.2742 39.1807 30.6257 39.4877 30.7523C39.7947 30.8789 40.1439 30.7335 40.2729 30.4289C40.3994 30.1218 40.2541 29.7703 39.9471 29.6437C39.8791 29.6156 39.8041 29.5992 39.7314 29.5968ZM9.78769 29.5992C9.70801 29.5992 9.62832 29.6132 9.55332 29.6437C9.40801 29.7046 9.29082 29.8218 9.22988 29.9695C9.16895 30.1171 9.16895 30.2812 9.22754 30.4289C9.35645 30.7359 9.70566 30.8812 10.0127 30.7523C10.1604 30.6937 10.2775 30.5765 10.3385 30.4289C10.3994 30.2812 10.3994 30.1171 10.3385 29.9695C10.2471 29.7468 10.0291 29.6015 9.78769 29.5992ZM7.01504 30.7476C6.93535 30.7476 6.85801 30.7617 6.78301 30.7945C6.47598 30.921 6.33066 31.2703 6.45957 31.5773C6.58613 31.8843 6.93535 32.0296 7.24238 31.9031C7.54941 31.7742 7.69473 31.4249 7.56582 31.1179C7.47441 30.8953 7.25645 30.7499 7.01504 30.7476ZM38.2314 32.4C38.0275 32.3953 37.8354 32.496 37.7229 32.6648C37.5377 32.9414 37.6127 33.3117 37.8869 33.4968C38.0182 33.5859 38.1822 33.6187 38.3369 33.5859C38.4939 33.5554 38.6322 33.464 38.7189 33.3304C38.9041 33.0562 38.8291 32.6835 38.5525 32.5007C38.4588 32.4351 38.3463 32.4 38.2314 32.4ZM11.2877 32.4C11.1658 32.3976 11.0486 32.4328 10.9479 32.5007C10.6736 32.6859 10.5986 33.0562 10.7814 33.3328C10.9666 33.607 11.3393 33.682 11.6158 33.4968C11.89 33.314 11.965 32.9414 11.7799 32.6648C11.6697 32.5007 11.4846 32.4023 11.2877 32.4ZM8.79395 34.0664C8.67207 34.064 8.55488 34.0992 8.4541 34.1671C8.17754 34.3499 8.10488 34.7226 8.2877 34.9992C8.47051 35.2757 8.84316 35.3484 9.11973 35.1656C9.25332 35.0765 9.34473 34.9406 9.3752 34.7835C9.40801 34.6265 9.3752 34.4648 9.28613 34.3312C9.17598 34.1671 8.99082 34.0687 8.79395 34.0664ZM13.3033 34.8562C13.1416 34.8539 12.9846 34.9171 12.8721 35.032C12.6377 35.264 12.6377 35.646 12.8721 35.8781C13.1041 36.1124 13.4861 36.1124 13.7182 35.8781C13.9525 35.646 13.9525 35.264 13.7182 35.032C13.608 34.9195 13.4604 34.8562 13.3033 34.8562ZM36.2135 34.8562C36.0518 34.8539 35.8947 34.9171 35.7822 35.032C35.5478 35.264 35.5478 35.646 35.7822 35.8781C36.0143 36.1124 36.3963 36.1124 36.6283 35.8781C36.8627 35.646 36.8627 35.264 36.6283 35.032C36.5182 34.9195 36.3705 34.8562 36.2135 34.8562ZM15.7619 36.8695C15.558 36.8648 15.3658 36.9656 15.2533 37.1343C15.0682 37.4109 15.1432 37.7835 15.4197 37.9687C15.6939 38.1515 16.0666 38.0765 16.2494 37.8023C16.4346 37.5257 16.3596 37.1554 16.0854 36.9703C15.9893 36.907 15.8768 36.8695 15.7619 36.8695ZM33.7572 36.8695C33.6353 36.8671 33.5182 36.9023 33.4174 36.9679C33.2838 37.057 33.1924 37.1953 33.1619 37.3523C33.1314 37.507 33.1643 37.671 33.2533 37.8023C33.4361 38.0765 33.8088 38.1515 34.0854 37.9687C34.3596 37.7835 34.4346 37.4109 34.2494 37.1343C34.1416 36.9703 33.9564 36.8695 33.7572 36.8695ZM11.1822 36.9749C11.0205 36.9726 10.8635 37.0359 10.7486 37.1531C10.5143 37.3851 10.5143 37.7671 10.7486 37.9992C10.8611 38.114 11.0135 38.1773 11.1729 38.1773C11.3322 38.1773 11.4846 38.114 11.5971 37.9992C11.8314 37.7648 11.8314 37.3851 11.5971 37.1531C11.4869 37.0406 11.3393 36.9796 11.1822 36.9749ZM18.565 38.3648C18.3166 38.3601 18.0916 38.5078 17.9979 38.7374C17.8713 39.0421 18.0166 39.3937 18.3213 39.5203C18.6283 39.6468 18.9799 39.5015 19.1064 39.1968C19.233 38.8898 19.0877 38.5382 18.7807 38.4117C18.7127 38.3835 18.64 38.3671 18.565 38.3648ZM30.9541 38.3648C30.8744 38.3648 30.7947 38.3812 30.7221 38.4117C30.5744 38.4726 30.4572 38.5898 30.3963 38.7351C30.3354 38.8828 30.3354 39.0492 30.3939 39.1968C30.5229 39.5015 30.8721 39.6468 31.1791 39.5203C31.3268 39.4593 31.4439 39.3421 31.5049 39.1968C31.5658 39.0492 31.5658 38.8828 31.5049 38.7374C31.4135 38.5124 31.1955 38.3671 30.9541 38.3648ZM21.6072 39.2882C21.3143 39.2812 21.0588 39.4851 21.0025 39.771C20.9369 40.0968 21.1479 40.4109 21.4736 40.4765C21.7994 40.5421 22.1135 40.3312 22.1791 40.0054C22.2447 39.6796 22.0338 39.3656 21.708 39.2999C21.6752 39.2929 21.64 39.2882 21.6072 39.2882ZM27.9119 39.2906C27.8721 39.2882 27.8322 39.2929 27.7947 39.2999C27.4689 39.3656 27.258 39.6796 27.3213 40.0054C27.3541 40.1624 27.4455 40.2984 27.5768 40.3874C27.7104 40.4765 27.8721 40.5093 28.0291 40.4789C28.1838 40.446 28.3221 40.3546 28.4111 40.2234C28.4979 40.0898 28.5307 39.9281 28.5002 39.771C28.4439 39.4921 28.1979 39.2906 27.9119 39.2906ZM24.7502 39.5999C24.4197 39.5999 24.1502 39.8695 24.1502 40.1999C24.1502 40.5304 24.4197 40.7999 24.7502 40.7999C25.0807 40.7999 25.3502 40.5304 25.3502 40.1999C25.3502 39.8695 25.0807 39.5999 24.7502 39.5999Z" fill="black"/>
</g>
</svg>
