<svg width="49" height="48" viewBox="0 0 49 48" fill="none" xmlns="http://www.w3.org/2000/svg">
<g id="icons8_upload_to_cloud 1" clip-path="url(#clip0_20_762)">
<path id="Vector" d="M24.5 7.80005C19.7498 7.80005 15.6464 11.0822 14.5742 15.6668C11.6504 16.0418 9.25866 18.1583 8.53086 21.0083C4.06986 21.2027 0.5 24.8916 0.5 29.4C0.5 34.032 4.268 37.8001 8.9 37.8001H22.1V36.6H8.9C4.9298 36.6 1.7 33.3703 1.7 29.4C1.7 25.431 4.92829 22.2012 8.91289 22.2012H8.91523L9.51172 22.2141L9.51406 22.1989C9.67054 22.1952 9.81939 22.1305 9.92886 22.0187C10.0383 21.9068 10.0997 21.7566 10.1 21.6C10.0998 21.4884 10.0684 21.379 10.0094 21.2841C9.95042 21.1893 9.86612 21.1128 9.76602 21.0633C10.4796 18.6939 12.5891 16.9836 15.1098 16.8211L15.4555 16.7989C15.4703 16.7998 15.4851 16.8002 15.5 16.8C15.6591 16.8 15.8117 16.7368 15.9243 16.6243C16.0368 16.5118 16.1 16.3592 16.1 16.2C16.0999 16.0971 16.0733 15.996 16.0229 15.9063C15.9724 15.8166 15.8997 15.7414 15.8117 15.6879C16.8469 11.7766 20.3978 9.00005 24.5 9.00005C28.22 9.00005 31.6012 11.3446 32.9152 14.8348L32.9199 14.8477C32.9068 14.8974 32.9001 14.9486 32.9 15C32.9 15.1592 32.9632 15.3118 33.0757 15.4243C33.1883 15.5368 33.3409 15.6 33.5 15.6C33.6381 15.5999 33.7719 15.5522 33.8788 15.4648C33.9858 15.3775 34.0593 15.256 34.0871 15.1208C34.4983 15.0487 34.9061 15 35.3 15C39.2702 15 42.5 18.2298 42.5 22.2C42.5 22.7982 42.4177 23.4148 42.2551 24.034L42.098 24.6282L42.6957 24.77C45.4059 25.4168 47.3 27.8142 47.3 30.6C47.3 33.9084 44.6084 36.6 41.3 36.6H28.1V37.8001H41.3C45.2702 37.8001 48.5 34.5702 48.5 30.6C48.5 27.4566 46.4913 24.7251 43.5465 23.7645C43.6485 23.2383 43.7 22.7142 43.7 22.2C43.7 17.568 39.932 13.8 35.3 13.8C34.8248 13.8 34.3371 13.8448 33.8445 13.9336C32.2359 10.2448 28.544 7.80005 24.5 7.80005ZM17.9 15.6C17.7409 15.6 17.5883 15.6633 17.4757 15.7758C17.3632 15.8883 17.3 16.0409 17.3 16.2C17.3 16.3592 17.3632 16.5118 17.4757 16.6243C17.5883 16.7368 17.7409 16.8 17.9 16.8C18.0591 16.8 18.2117 16.7368 18.3243 16.6243C18.4368 16.5118 18.5 16.3592 18.5 16.2C18.5 16.0409 18.4368 15.8883 18.3243 15.7758C18.2117 15.6633 18.0591 15.6 17.9 15.6ZM20.3 16.8C20.1409 16.8 19.9883 16.8633 19.8757 16.9758C19.7632 17.0883 19.7 17.2409 19.7 17.4C19.7 17.5592 19.7632 17.7118 19.8757 17.8243C19.9883 17.9368 20.1409 18 20.3 18C20.4591 18 20.6117 17.9368 20.7243 17.8243C20.8368 17.7118 20.9 17.5592 20.9 17.4C20.9 17.2409 20.8368 17.0883 20.7243 16.9758C20.6117 16.8633 20.4591 16.8 20.3 16.8ZM34.1 16.8C33.9409 16.8 33.7883 16.8633 33.6757 16.9758C33.5632 17.0883 33.5 17.2409 33.5 17.4C33.5 17.5592 33.5632 17.7118 33.6757 17.8243C33.7883 17.9368 33.9409 18 34.1 18C34.2591 18 34.4117 17.9368 34.5243 17.8243C34.6368 17.7118 34.7 17.5592 34.7 17.4C34.7 17.2409 34.6368 17.0883 34.5243 16.9758C34.4117 16.8633 34.2591 16.8 34.1 16.8ZM22.1 18.6C21.9409 18.6 21.7883 18.6633 21.6757 18.7758C21.5632 18.8883 21.5 19.0409 21.5 19.2C21.5 19.3592 21.5632 19.5118 21.6757 19.6243C21.7883 19.7368 21.9409 19.8 22.1 19.8C22.2591 19.8 22.4117 19.7368 22.5243 19.6243C22.6368 19.5118 22.7 19.3592 22.7 19.2C22.7 19.0409 22.6368 18.8883 22.5243 18.7758C22.4117 18.6633 22.2591 18.6 22.1 18.6ZM34.1 19.2C33.9409 19.2 33.7883 19.2633 33.6757 19.3758C33.5632 19.4883 33.5 19.6409 33.5 19.8C33.5 19.9592 33.5632 20.1118 33.6757 20.2243C33.7883 20.3368 33.9409 20.4 34.1 20.4C34.2591 20.4 34.4117 20.3368 34.5243 20.2243C34.6368 20.1118 34.7 19.9592 34.7 19.8C34.7 19.6409 34.6368 19.4883 34.5243 19.3758C34.4117 19.2633 34.2591 19.2 34.1 19.2ZM11.9 21C11.7409 21 11.5883 21.0633 11.4757 21.1758C11.3632 21.2883 11.3 21.4409 11.3 21.6C11.3 21.7592 11.3632 21.9118 11.4757 22.0243C11.5883 22.1368 11.7409 22.2 11.9 22.2C12.0591 22.2 12.2117 22.1368 12.3243 22.0243C12.4368 21.9118 12.5 21.7592 12.5 21.6C12.5 21.4409 12.4368 21.2883 12.3243 21.1758C12.2117 21.0633 12.0591 21 11.9 21ZM14.3 22.2C14.1409 22.2 13.9883 22.2633 13.8757 22.3758C13.7632 22.4883 13.7 22.6409 13.7 22.8C13.7 22.9592 13.7632 23.1118 13.8757 23.2243C13.9883 23.3368 14.1409 23.4 14.3 23.4C14.4591 23.4 14.6117 23.3368 14.7243 23.2243C14.8368 23.1118 14.9 22.9592 14.9 22.8C14.9 22.6409 14.8368 22.4883 14.7243 22.3758C14.6117 22.2633 14.4591 22.2 14.3 22.2ZM16.1 24C15.9409 24 15.7883 24.0633 15.6757 24.1758C15.5632 24.2883 15.5 24.4409 15.5 24.6C15.5 24.7592 15.5632 24.9118 15.6757 25.0243C15.7883 25.1368 15.9409 25.2001 16.1 25.2001C16.2591 25.2001 16.4117 25.1368 16.5243 25.0243C16.6368 24.9118 16.7 24.7592 16.7 24.6C16.7 24.4409 16.6368 24.2883 16.5243 24.1758C16.4117 24.0633 16.2591 24 16.1 24ZM25.1 25.6125L19.9062 30.8063L20.7547 31.6547L24.5 27.9094V43.2001H25.7V27.9094L29.4453 31.6547L30.2938 30.8063L25.1 25.6125ZM41.9 25.8C41.7409 25.8 41.5883 25.8633 41.4757 25.9758C41.3632 26.0883 41.3 26.2409 41.3 26.4C41.3 26.5592 41.3632 26.7118 41.4757 26.8243C41.5883 26.9368 41.7409 27 41.9 27C42.0591 27 42.2117 26.9368 42.3243 26.8243C42.4368 26.7118 42.5 26.5592 42.5 26.4C42.5 26.2409 42.4368 26.0883 42.3243 25.9758C42.2117 25.8633 42.0591 25.8 41.9 25.8ZM40.7 27.6C40.5409 27.6 40.3883 27.6633 40.2757 27.7758C40.1632 27.8883 40.1 28.0409 40.1 28.2001C40.1 28.3592 40.1632 28.5118 40.2757 28.6243C40.3883 28.7368 40.5409 28.8 40.7 28.8C40.8591 28.8 41.0117 28.7368 41.1243 28.6243C41.2368 28.5118 41.3 28.3592 41.3 28.2001C41.3 28.0409 41.2368 27.8883 41.1243 27.7758C41.0117 27.6633 40.8591 27.6 40.7 27.6ZM25.1 44.4001C24.9409 44.4001 24.7883 44.4633 24.6757 44.5758C24.5632 44.6883 24.5 44.8409 24.5 45C24.5 45.1592 24.5632 45.3118 24.6757 45.4243C24.7883 45.5368 24.9409 45.6001 25.1 45.6001C25.2591 45.6001 25.4117 45.5368 25.5243 45.4243C25.6368 45.3118 25.7 45.1592 25.7 45C25.7 44.8409 25.6368 44.6883 25.5243 44.5758C25.4117 44.4633 25.2591 44.4001 25.1 44.4001ZM25.1 46.8C24.9409 46.8 24.7883 46.8633 24.6757 46.9758C24.5632 47.0883 24.5 47.2409 24.5 47.4001C24.5 47.5592 24.5632 47.7118 24.6757 47.8243C24.7883 47.9368 24.9409 48 25.1 48C25.2591 48 25.4117 47.9368 25.5243 47.8243C25.6368 47.7118 25.7 47.5592 25.7 47.4001C25.7 47.2409 25.6368 47.0883 25.5243 46.9758C25.4117 46.8633 25.2591 46.8 25.1 46.8Z" fill="#F64A91"/>
</g>
<defs>
<clipPath id="clip0_20_762">
<rect width="48" height="48" fill="white" transform="translate(0.5)"/>
</clipPath>
</defs>
</svg>
