<svg width="49" height="48" viewBox="0 0 49 48" fill="none" xmlns="http://www.w3.org/2000/svg">
<g id="icons8_Cash 1">
<path id="Vector" d="M3.25 7.80005V8.40005V33V34.8V35.4V37.8H3.85C21.1911 37.8 39.632 44.959 39.632 44.959L40.45 45.2778V39.5942C41.8112 39.9324 42.6801 40.1754 42.6801 40.1754L43.45 40.4028V33H45.25V7.80005H3.25ZM4.45 9.00005H44.05V31.8H4.45V9.00005ZM11.05 10.2C10.8909 10.2 10.7383 10.2633 10.6257 10.3758C10.5132 10.4883 10.45 10.6409 10.45 10.8C10.45 10.9592 10.5132 11.1118 10.6257 11.2243C10.7383 11.3368 10.8909 11.4 11.05 11.4C11.2091 11.4 11.3617 11.3368 11.4743 11.2243C11.5868 11.1118 11.65 10.9592 11.65 10.8C11.65 10.6409 11.5868 10.4883 11.4743 10.3758C11.3617 10.2633 11.2091 10.2 11.05 10.2ZM13.45 10.2C13.2909 10.2 13.1383 10.2633 13.0257 10.3758C12.9132 10.4883 12.85 10.6409 12.85 10.8C12.85 10.9592 12.9132 11.1118 13.0257 11.2243C13.1383 11.3368 13.2909 11.4 13.45 11.4C13.6091 11.4 13.7617 11.3368 13.8743 11.2243C13.9868 11.1118 14.05 10.9592 14.05 10.8C14.05 10.6409 13.9868 10.4883 13.8743 10.3758C13.7617 10.2633 13.6091 10.2 13.45 10.2ZM15.85 10.2C15.6909 10.2 15.5383 10.2633 15.4257 10.3758C15.3132 10.4883 15.25 10.6409 15.25 10.8C15.25 10.9592 15.3132 11.1118 15.4257 11.2243C15.5383 11.3368 15.6909 11.4 15.85 11.4C16.0091 11.4 16.1617 11.3368 16.2743 11.2243C16.3868 11.1118 16.45 10.9592 16.45 10.8C16.45 10.6409 16.3868 10.4883 16.2743 10.3758C16.1617 10.2633 16.0091 10.2 15.85 10.2ZM18.25 10.2C18.0909 10.2 17.9383 10.2633 17.8257 10.3758C17.7132 10.4883 17.65 10.6409 17.65 10.8C17.65 10.9592 17.7132 11.1118 17.8257 11.2243C17.9383 11.3368 18.0909 11.4 18.25 11.4C18.4091 11.4 18.5617 11.3368 18.6743 11.2243C18.7868 11.1118 18.85 10.9592 18.85 10.8C18.85 10.6409 18.7868 10.4883 18.6743 10.3758C18.5617 10.2633 18.4091 10.2 18.25 10.2ZM20.65 10.2C20.4909 10.2 20.3383 10.2633 20.2257 10.3758C20.1132 10.4883 20.05 10.6409 20.05 10.8C20.05 10.9592 20.1132 11.1118 20.2257 11.2243C20.3383 11.3368 20.4909 11.4 20.65 11.4C20.8091 11.4 20.9617 11.3368 21.0743 11.2243C21.1868 11.1118 21.25 10.9592 21.25 10.8C21.25 10.6409 21.1868 10.4883 21.0743 10.3758C20.9617 10.2633 20.8091 10.2 20.65 10.2ZM23.05 10.2C22.8909 10.2 22.7383 10.2633 22.6257 10.3758C22.5132 10.4883 22.45 10.6409 22.45 10.8C22.45 10.9592 22.5132 11.1118 22.6257 11.2243C22.7383 11.3368 22.8909 11.4 23.05 11.4C23.2091 11.4 23.3617 11.3368 23.4743 11.2243C23.5868 11.1118 23.65 10.9592 23.65 10.8C23.65 10.6409 23.5868 10.4883 23.4743 10.3758C23.3617 10.2633 23.2091 10.2 23.05 10.2ZM25.45 10.2C25.2909 10.2 25.1383 10.2633 25.0257 10.3758C24.9132 10.4883 24.85 10.6409 24.85 10.8C24.85 10.9592 24.9132 11.1118 25.0257 11.2243C25.1383 11.3368 25.2909 11.4 25.45 11.4C25.6091 11.4 25.7617 11.3368 25.8743 11.2243C25.9868 11.1118 26.05 10.9592 26.05 10.8C26.05 10.6409 25.9868 10.4883 25.8743 10.3758C25.7617 10.2633 25.6091 10.2 25.45 10.2ZM27.85 10.2C27.6909 10.2 27.5383 10.2633 27.4257 10.3758C27.3132 10.4883 27.25 10.6409 27.25 10.8C27.25 10.9592 27.3132 11.1118 27.4257 11.2243C27.5383 11.3368 27.6909 11.4 27.85 11.4C28.0091 11.4 28.1617 11.3368 28.2743 11.2243C28.3868 11.1118 28.45 10.9592 28.45 10.8C28.45 10.6409 28.3868 10.4883 28.2743 10.3758C28.1617 10.2633 28.0091 10.2 27.85 10.2ZM30.25 10.2C30.0909 10.2 29.9383 10.2633 29.8257 10.3758C29.7132 10.4883 29.65 10.6409 29.65 10.8C29.65 10.9592 29.7132 11.1118 29.8257 11.2243C29.9383 11.3368 30.0909 11.4 30.25 11.4C30.4091 11.4 30.5617 11.3368 30.6743 11.2243C30.7868 11.1118 30.85 10.9592 30.85 10.8C30.85 10.6409 30.7868 10.4883 30.6743 10.3758C30.5617 10.2633 30.4091 10.2 30.25 10.2ZM32.65 10.2C32.4909 10.2 32.3383 10.2633 32.2257 10.3758C32.1132 10.4883 32.05 10.6409 32.05 10.8C32.05 10.9592 32.1132 11.1118 32.2257 11.2243C32.3383 11.3368 32.4909 11.4 32.65 11.4C32.8091 11.4 32.9617 11.3368 33.0743 11.2243C33.1868 11.1118 33.25 10.9592 33.25 10.8C33.25 10.6409 33.1868 10.4883 33.0743 10.3758C32.9617 10.2633 32.8091 10.2 32.65 10.2ZM35.05 10.2C34.8909 10.2 34.7383 10.2633 34.6257 10.3758C34.5132 10.4883 34.45 10.6409 34.45 10.8C34.45 10.9592 34.5132 11.1118 34.6257 11.2243C34.7383 11.3368 34.8909 11.4 35.05 11.4C35.2091 11.4 35.3617 11.3368 35.4743 11.2243C35.5868 11.1118 35.65 10.9592 35.65 10.8C35.65 10.6409 35.5868 10.4883 35.4743 10.3758C35.3617 10.2633 35.2091 10.2 35.05 10.2ZM37.45 10.2C37.2909 10.2 37.1383 10.2633 37.0257 10.3758C36.9132 10.4883 36.85 10.6409 36.85 10.8C36.85 10.9592 36.9132 11.1118 37.0257 11.2243C37.1383 11.3368 37.2909 11.4 37.45 11.4C37.6091 11.4 37.7617 11.3368 37.8743 11.2243C37.9868 11.1118 38.05 10.9592 38.05 10.8C38.05 10.6409 37.9868 10.4883 37.8743 10.3758C37.7617 10.2633 37.6091 10.2 37.45 10.2ZM38.0922 12.5989C37.9331 12.5989 37.7804 12.6621 37.6679 12.7746C37.5554 12.8871 37.4922 13.0397 37.4922 13.1989C37.4922 13.358 37.5554 13.5106 37.6679 13.6231C37.7804 13.7357 37.9331 13.7989 38.0922 13.7989C38.2513 13.7989 38.4039 13.7357 38.5165 13.6231C38.629 13.5106 38.6922 13.358 38.6922 13.1989C38.6922 13.0397 38.629 12.8871 38.5165 12.7746C38.4039 12.6621 38.2513 12.5989 38.0922 12.5989ZM10.4066 12.6012C10.2475 12.6012 10.0949 12.6644 9.98238 12.777C9.86985 12.8895 9.80664 13.0421 9.80664 13.2012C9.80664 13.3604 9.86985 13.513 9.98238 13.6255C10.0949 13.738 10.2475 13.8012 10.4066 13.8012C10.5658 13.8012 10.7184 13.738 10.8309 13.6255C10.9434 13.513 11.0066 13.3604 11.0066 13.2012C11.0066 13.0421 10.9434 12.8895 10.8309 12.777C10.7184 12.6644 10.5658 12.6012 10.4066 12.6012ZM24.25 13.8C20.612 13.8 17.65 16.7621 17.65 20.4C17.65 24.038 20.612 27 24.25 27C27.888 27 30.85 24.038 30.85 20.4C30.85 16.7621 27.888 13.8 24.25 13.8ZM8.64883 14.3567C8.4897 14.3567 8.33709 14.4199 8.22456 14.5324C8.11204 14.6449 8.04883 14.7976 8.04883 14.9567C8.04883 15.1158 8.11204 15.2684 8.22456 15.381C8.33709 15.4935 8.4897 15.5567 8.64883 15.5567C8.80796 15.5567 8.96057 15.4935 9.07309 15.381C9.18561 15.2684 9.24883 15.1158 9.24883 14.9567C9.24883 14.7976 9.18561 14.6449 9.07309 14.5324C8.96057 14.4199 8.80796 14.3567 8.64883 14.3567ZM39.8488 14.3579C39.6897 14.3579 39.5371 14.4211 39.4246 14.5336C39.312 14.6461 39.2488 14.7987 39.2488 14.9579C39.2488 15.117 39.312 15.2696 39.4246 15.3821C39.5371 15.4946 39.6897 15.5579 39.8488 15.5579C40.008 15.5579 40.1606 15.4946 40.2731 15.3821C40.3856 15.2696 40.4488 15.117 40.4488 14.9579C40.4488 14.7987 40.3856 14.6461 40.2731 14.5336C40.1606 14.4211 40.008 14.3579 39.8488 14.3579ZM6.25 15C6.09087 15 5.93826 15.0633 5.82574 15.1758C5.71321 15.2883 5.65 15.4409 5.65 15.6C5.65 15.7592 5.71321 15.9118 5.82574 16.0243C5.93826 16.1368 6.09087 16.2 6.25 16.2C6.40913 16.2 6.56174 16.1368 6.67426 16.0243C6.78679 15.9118 6.85 15.7592 6.85 15.6C6.85 15.4409 6.78679 15.2883 6.67426 15.1758C6.56174 15.0633 6.40913 15 6.25 15ZM24.25 15C27.2394 15 29.65 17.4106 29.65 20.4C29.65 23.3895 27.2394 25.8 24.25 25.8C21.2606 25.8 18.85 23.3895 18.85 20.4C18.85 17.4106 21.2606 15 24.25 15ZM42.25 15C42.0909 15 41.9383 15.0633 41.8257 15.1758C41.7132 15.2883 41.65 15.4409 41.65 15.6C41.65 15.7592 41.7132 15.9118 41.8257 16.0243C41.9383 16.1368 42.0909 16.2 42.25 16.2C42.4091 16.2 42.5617 16.1368 42.6743 16.0243C42.7868 15.9118 42.85 15.7592 42.85 15.6C42.85 15.4409 42.7868 15.2883 42.6743 15.1758C42.5617 15.0633 42.4091 15 42.25 15ZM6.25 17.4C6.09087 17.4 5.93826 17.4633 5.82574 17.5758C5.71321 17.6883 5.65 17.8409 5.65 18C5.65 18.1592 5.71321 18.3118 5.82574 18.4243C5.93826 18.5368 6.09087 18.6 6.25 18.6C6.40913 18.6 6.56174 18.5368 6.67426 18.4243C6.78679 18.3118 6.85 18.1592 6.85 18C6.85 17.8409 6.78679 17.6883 6.67426 17.5758C6.56174 17.4633 6.40913 17.4 6.25 17.4ZM42.25 17.4C42.0909 17.4 41.9383 17.4633 41.8257 17.5758C41.7132 17.6883 41.65 17.8409 41.65 18C41.65 18.1592 41.7132 18.3118 41.8257 18.4243C41.9383 18.5368 42.0909 18.6 42.25 18.6C42.4091 18.6 42.5617 18.5368 42.6743 18.4243C42.7868 18.3118 42.85 18.1592 42.85 18C42.85 17.8409 42.7868 17.6883 42.6743 17.5758C42.5617 17.4633 42.4091 17.4 42.25 17.4ZM11.65 18C10.3316 18 9.25 19.0817 9.25 20.4C9.25 21.7184 10.3316 22.8 11.65 22.8C12.9684 22.8 14.05 21.7184 14.05 20.4C14.05 19.0817 12.9684 18 11.65 18ZM36.25 18C34.9316 18 33.85 19.0817 33.85 20.4C33.85 21.7184 34.9316 22.8 36.25 22.8C37.5684 22.8 38.65 21.7184 38.65 20.4C38.65 19.0817 37.5684 18 36.25 18ZM11.65 19.2C12.3198 19.2 12.85 19.7302 12.85 20.4C12.85 21.0699 12.3198 21.6 11.65 21.6C10.9802 21.6 10.45 21.0699 10.45 20.4C10.45 19.7302 10.9802 19.2 11.65 19.2ZM36.25 19.2C36.9198 19.2 37.45 19.7302 37.45 20.4C37.45 21.0699 36.9198 21.6 36.25 21.6C35.5802 21.6 35.05 21.0699 35.05 20.4C35.05 19.7302 35.5802 19.2 36.25 19.2ZM6.25 19.8C6.09087 19.8 5.93826 19.8633 5.82574 19.9758C5.71321 20.0883 5.65 20.2409 5.65 20.4C5.65 20.5592 5.71321 20.7118 5.82574 20.8243C5.93826 20.9368 6.09087 21 6.25 21C6.40913 21 6.56174 20.9368 6.67426 20.8243C6.78679 20.7118 6.85 20.5592 6.85 20.4C6.85 20.2409 6.78679 20.0883 6.67426 19.9758C6.56174 19.8633 6.40913 19.8 6.25 19.8ZM42.25 19.8C42.0909 19.8 41.9383 19.8633 41.8257 19.9758C41.7132 20.0883 41.65 20.2409 41.65 20.4C41.65 20.5592 41.7132 20.7118 41.8257 20.8243C41.9383 20.9368 42.0909 21 42.25 21C42.4091 21 42.5617 20.9368 42.6743 20.8243C42.7868 20.7118 42.85 20.5592 42.85 20.4C42.85 20.2409 42.7868 20.0883 42.6743 19.9758C42.5617 19.8633 42.4091 19.8 42.25 19.8ZM6.25 22.2C6.09087 22.2 5.93826 22.2633 5.82574 22.3758C5.71321 22.4883 5.65 22.6409 5.65 22.8C5.65 22.9592 5.71321 23.1118 5.82574 23.2243C5.93826 23.3368 6.09087 23.4 6.25 23.4C6.40913 23.4 6.56174 23.3368 6.67426 23.2243C6.78679 23.1118 6.85 22.9592 6.85 22.8C6.85 22.6409 6.78679 22.4883 6.67426 22.3758C6.56174 22.2633 6.40913 22.2 6.25 22.2ZM42.25 22.2C42.0909 22.2 41.9383 22.2633 41.8257 22.3758C41.7132 22.4883 41.65 22.6409 41.65 22.8C41.65 22.9592 41.7132 23.1118 41.8257 23.2243C41.9383 23.3368 42.0909 23.4 42.25 23.4C42.4091 23.4 42.5617 23.3368 42.6743 23.2243C42.7868 23.1118 42.85 22.9592 42.85 22.8C42.85 22.6409 42.7868 22.4883 42.6743 22.3758C42.5617 22.2633 42.4091 22.2 42.25 22.2ZM6.25 24.6C6.09087 24.6 5.93826 24.6633 5.82574 24.7758C5.71321 24.8883 5.65 25.0409 5.65 25.2C5.65 25.3592 5.71321 25.5118 5.82574 25.6243C5.93826 25.7368 6.09087 25.8 6.25 25.8C6.40913 25.8 6.56174 25.7368 6.67426 25.6243C6.78679 25.5118 6.85 25.3592 6.85 25.2C6.85 25.0409 6.78679 24.8883 6.67426 24.7758C6.56174 24.6633 6.40913 24.6 6.25 24.6ZM42.25 24.6C42.0909 24.6 41.9383 24.6633 41.8257 24.7758C41.7132 24.8883 41.65 25.0409 41.65 25.2C41.65 25.3592 41.7132 25.5118 41.8257 25.6243C41.9383 25.7368 42.0909 25.8 42.25 25.8C42.4091 25.8 42.5617 25.7368 42.6743 25.6243C42.7868 25.5118 42.85 25.3592 42.85 25.2C42.85 25.0409 42.7868 24.8883 42.6743 24.7758C42.5617 24.6633 42.4091 24.6 42.25 24.6ZM39.8488 25.2422C39.6897 25.2422 39.5371 25.3054 39.4246 25.418C39.312 25.5305 39.2488 25.6831 39.2488 25.8422C39.2488 26.0014 39.312 26.154 39.4246 26.2665C39.5371 26.379 39.6897 26.4422 39.8488 26.4422C40.008 26.4422 40.1606 26.379 40.2731 26.2665C40.3856 26.154 40.4488 26.0014 40.4488 25.8422C40.4488 25.6831 40.3856 25.5305 40.2731 25.418C40.1606 25.3054 40.008 25.2422 39.8488 25.2422ZM8.64883 25.2434C8.4897 25.2434 8.33709 25.3066 8.22456 25.4191C8.11204 25.5317 8.04883 25.6843 8.04883 25.8434C8.04883 26.0025 8.11204 26.1551 8.22456 26.2677C8.33709 26.3802 8.4897 26.4434 8.64883 26.4434C8.80796 26.4434 8.96057 26.3802 9.07309 26.2677C9.18561 26.1551 9.24883 26.0025 9.24883 25.8434C9.24883 25.6843 9.18561 25.5317 9.07309 25.4191C8.96057 25.3066 8.80796 25.2434 8.64883 25.2434ZM10.4055 26.9989C10.2463 26.9989 10.0937 27.0621 9.9812 27.1746C9.86868 27.2871 9.80547 27.4397 9.80547 27.5989C9.80547 27.758 9.86868 27.9106 9.9812 28.0231C10.0937 28.1357 10.2463 28.1989 10.4055 28.1989C10.5646 28.1989 10.7172 28.1357 10.8297 28.0231C10.9423 27.9106 11.0055 27.758 11.0055 27.5989C11.0055 27.4397 10.9423 27.2871 10.8297 27.1746C10.7172 27.0621 10.5646 26.9989 10.4055 26.9989ZM38.0922 27.0012C37.9331 27.0012 37.7804 27.0644 37.6679 27.177C37.5554 27.2895 37.4922 27.4421 37.4922 27.6012C37.4922 27.7603 37.5554 27.913 37.6679 28.0255C37.7804 28.138 37.9331 28.2012 38.0922 28.2012C38.2513 28.2012 38.4039 28.138 38.5165 28.0255C38.629 27.913 38.6922 27.7603 38.6922 27.6012C38.6922 27.4421 38.629 27.2895 38.5165 27.177C38.4039 27.0644 38.2513 27.0012 38.0922 27.0012ZM11.05 29.4C10.8909 29.4 10.7383 29.4633 10.6257 29.5758C10.5132 29.6883 10.45 29.8409 10.45 30C10.45 30.1592 10.5132 30.3118 10.6257 30.4243C10.7383 30.5368 10.8909 30.6 11.05 30.6C11.2091 30.6 11.3617 30.5368 11.4743 30.4243C11.5868 30.3118 11.65 30.1592 11.65 30C11.65 29.8409 11.5868 29.6883 11.4743 29.5758C11.3617 29.4633 11.2091 29.4 11.05 29.4ZM13.45 29.4C13.2909 29.4 13.1383 29.4633 13.0257 29.5758C12.9132 29.6883 12.85 29.8409 12.85 30C12.85 30.1592 12.9132 30.3118 13.0257 30.4243C13.1383 30.5368 13.2909 30.6 13.45 30.6C13.6091 30.6 13.7617 30.5368 13.8743 30.4243C13.9868 30.3118 14.05 30.1592 14.05 30C14.05 29.8409 13.9868 29.6883 13.8743 29.5758C13.7617 29.4633 13.6091 29.4 13.45 29.4ZM15.85 29.4C15.6909 29.4 15.5383 29.4633 15.4257 29.5758C15.3132 29.6883 15.25 29.8409 15.25 30C15.25 30.1592 15.3132 30.3118 15.4257 30.4243C15.5383 30.5368 15.6909 30.6 15.85 30.6C16.0091 30.6 16.1617 30.5368 16.2743 30.4243C16.3868 30.3118 16.45 30.1592 16.45 30C16.45 29.8409 16.3868 29.6883 16.2743 29.5758C16.1617 29.4633 16.0091 29.4 15.85 29.4ZM18.25 29.4C18.0909 29.4 17.9383 29.4633 17.8257 29.5758C17.7132 29.6883 17.65 29.8409 17.65 30C17.65 30.1592 17.7132 30.3118 17.8257 30.4243C17.9383 30.5368 18.0909 30.6 18.25 30.6C18.4091 30.6 18.5617 30.5368 18.6743 30.4243C18.7868 30.3118 18.85 30.1592 18.85 30C18.85 29.8409 18.7868 29.6883 18.6743 29.5758C18.5617 29.4633 18.4091 29.4 18.25 29.4ZM20.65 29.4C20.4909 29.4 20.3383 29.4633 20.2257 29.5758C20.1132 29.6883 20.05 29.8409 20.05 30C20.05 30.1592 20.1132 30.3118 20.2257 30.4243C20.3383 30.5368 20.4909 30.6 20.65 30.6C20.8091 30.6 20.9617 30.5368 21.0743 30.4243C21.1868 30.3118 21.25 30.1592 21.25 30C21.25 29.8409 21.1868 29.6883 21.0743 29.5758C20.9617 29.4633 20.8091 29.4 20.65 29.4ZM23.05 29.4C22.8909 29.4 22.7383 29.4633 22.6257 29.5758C22.5132 29.6883 22.45 29.8409 22.45 30C22.45 30.1592 22.5132 30.3118 22.6257 30.4243C22.7383 30.5368 22.8909 30.6 23.05 30.6C23.2091 30.6 23.3617 30.5368 23.4743 30.4243C23.5868 30.3118 23.65 30.1592 23.65 30C23.65 29.8409 23.5868 29.6883 23.4743 29.5758C23.3617 29.4633 23.2091 29.4 23.05 29.4ZM25.45 29.4C25.2909 29.4 25.1383 29.4633 25.0257 29.5758C24.9132 29.6883 24.85 29.8409 24.85 30C24.85 30.1592 24.9132 30.3118 25.0257 30.4243C25.1383 30.5368 25.2909 30.6 25.45 30.6C25.6091 30.6 25.7617 30.5368 25.8743 30.4243C25.9868 30.3118 26.05 30.1592 26.05 30C26.05 29.8409 25.9868 29.6883 25.8743 29.5758C25.7617 29.4633 25.6091 29.4 25.45 29.4ZM27.85 29.4C27.6909 29.4 27.5383 29.4633 27.4257 29.5758C27.3132 29.6883 27.25 29.8409 27.25 30C27.25 30.1592 27.3132 30.3118 27.4257 30.4243C27.5383 30.5368 27.6909 30.6 27.85 30.6C28.0091 30.6 28.1617 30.5368 28.2743 30.4243C28.3868 30.3118 28.45 30.1592 28.45 30C28.45 29.8409 28.3868 29.6883 28.2743 29.5758C28.1617 29.4633 28.0091 29.4 27.85 29.4ZM30.25 29.4C30.0909 29.4 29.9383 29.4633 29.8257 29.5758C29.7132 29.6883 29.65 29.8409 29.65 30C29.65 30.1592 29.7132 30.3118 29.8257 30.4243C29.9383 30.5368 30.0909 30.6 30.25 30.6C30.4091 30.6 30.5617 30.5368 30.6743 30.4243C30.7868 30.3118 30.85 30.1592 30.85 30C30.85 29.8409 30.7868 29.6883 30.6743 29.5758C30.5617 29.4633 30.4091 29.4 30.25 29.4ZM32.65 29.4C32.4909 29.4 32.3383 29.4633 32.2257 29.5758C32.1132 29.6883 32.05 29.8409 32.05 30C32.05 30.1592 32.1132 30.3118 32.2257 30.4243C32.3383 30.5368 32.4909 30.6 32.65 30.6C32.8091 30.6 32.9617 30.5368 33.0743 30.4243C33.1868 30.3118 33.25 30.1592 33.25 30C33.25 29.8409 33.1868 29.6883 33.0743 29.5758C32.9617 29.4633 32.8091 29.4 32.65 29.4ZM35.05 29.4C34.8909 29.4 34.7383 29.4633 34.6257 29.5758C34.5132 29.6883 34.45 29.8409 34.45 30C34.45 30.1592 34.5132 30.3118 34.6257 30.4243C34.7383 30.5368 34.8909 30.6 35.05 30.6C35.2091 30.6 35.3617 30.5368 35.4743 30.4243C35.5868 30.3118 35.65 30.1592 35.65 30C35.65 29.8409 35.5868 29.6883 35.4743 29.5758C35.3617 29.4633 35.2091 29.4 35.05 29.4ZM37.45 29.4C37.2909 29.4 37.1383 29.4633 37.0257 29.5758C36.9132 29.6883 36.85 29.8409 36.85 30C36.85 30.1592 36.9132 30.3118 37.0257 30.4243C37.1383 30.5368 37.2909 30.6 37.45 30.6C37.6091 30.6 37.7617 30.5368 37.8743 30.4243C37.9868 30.3118 38.05 30.1592 38.05 30C38.05 29.8409 37.9868 29.6883 37.8743 29.5758C37.7617 29.4633 37.6091 29.4 37.45 29.4ZM4.45 33H38.65H42.25V38.8254C40.2909 38.2744 25.4475 34.2958 4.45 34.2153V33ZM38.65 33C38.4909 33 38.3383 33.0633 38.2257 33.1758C38.1132 33.2883 38.05 33.4409 38.05 33.6C38.05 33.7592 38.1132 33.9118 38.2257 34.0243C38.3383 34.1368 38.4909 34.2 38.65 34.2C38.8091 34.2 38.9617 34.1368 39.0743 34.0243C39.1868 33.9118 39.25 33.7592 39.25 33.6C39.25 33.4409 39.1868 33.2883 39.0743 33.1758C38.9617 33.0633 38.8091 33 38.65 33ZM37.45 34.8C37.2909 34.8 37.1383 34.8633 37.0257 34.9758C36.9132 35.0883 36.85 35.2409 36.85 35.4C36.85 35.5592 36.9132 35.7118 37.0257 35.8243C37.1383 35.9368 37.2909 36 37.45 36C37.6091 36 37.7617 35.9368 37.8743 35.8243C37.9868 35.7118 38.05 35.5592 38.05 35.4C38.05 35.2409 37.9868 35.0883 37.8743 34.9758C37.7617 34.8633 37.6091 34.8 37.45 34.8ZM4.45 35.4083C17.476 35.4574 28.2833 37.0641 35.05 38.4024C35.0506 38.5611 35.1141 38.7131 35.2266 38.8251C35.339 38.9372 35.4913 39 35.65 39C35.7682 39 35.8837 38.9651 35.9821 38.8996C36.0805 38.8341 36.1574 38.7411 36.2031 38.6321C37.3981 38.879 38.3689 39.1005 39.25 39.3071V43.5493C37.1159 42.7426 20.798 36.7779 4.45 36.6282V35.4083ZM34.45 39.6C34.2909 39.6 34.1383 39.6633 34.0257 39.7758C33.9132 39.8883 33.85 40.0409 33.85 40.2C33.85 40.3592 33.9132 40.5118 34.0257 40.6243C34.1383 40.7368 34.2909 40.8 34.45 40.8C34.6091 40.8 34.7617 40.7368 34.8743 40.6243C34.9868 40.5118 35.05 40.3592 35.05 40.2C35.05 40.0409 34.9868 39.8883 34.8743 39.7758C34.7617 39.6633 34.6091 39.6 34.45 39.6Z" fill="black"/>
</g>
</svg>
