<svg width="49" height="48" viewBox="0 0 49 48" fill="none" xmlns="http://www.w3.org/2000/svg">
<g id="icons8_children 1">
<path id="Vector" d="M14.6499 7.80005C12.3366 7.80005 10.4499 9.68677 10.4499 12C10.4499 14.3133 12.3366 16.2 14.6499 16.2C16.9632 16.2 18.8499 14.3133 18.8499 12C18.8499 9.68677 16.9632 7.80005 14.6499 7.80005ZM33.8499 7.80005C31.7382 7.80005 29.9874 9.37505 29.6968 11.4071C29.5632 11.4 29.4202 11.3977 29.2632 11.4024C28.6866 11.4282 27.9343 11.5477 27.3671 12.1149C26.7999 12.6844 26.678 13.4368 26.6546 14.0133C26.6312 14.5875 26.7226 15.054 26.7226 15.054L26.7999 15.45L27.196 15.5274C27.196 15.5274 27.6601 15.6188 28.2366 15.5954C28.8132 15.5719 29.5655 15.45 30.1351 14.8829C30.2663 14.7516 30.3718 14.611 30.4585 14.4633C31.2226 15.5133 32.4577 16.2 33.8499 16.2C35.2421 16.2 36.4772 15.5133 37.2413 14.4633C37.328 14.611 37.4335 14.7516 37.5647 14.8829C38.1343 15.45 38.8866 15.5719 39.4632 15.5954C40.0374 15.6188 40.5038 15.5274 40.5038 15.5274L40.8999 15.45L40.9772 15.054C40.9772 15.054 41.0687 14.5875 41.0452 14.0133C41.0218 13.4368 40.8999 12.6844 40.3327 12.1149C39.7655 11.5477 39.0132 11.4282 38.4366 11.4024C38.2796 11.3977 38.1366 11.4 38.003 11.4071C37.7124 9.37505 35.9616 7.80005 33.8499 7.80005ZM14.6499 9.00005C16.314 9.00005 17.6499 10.336 17.6499 12C17.6499 13.6641 16.314 15 14.6499 15C12.9858 15 11.6499 13.6641 11.6499 12C11.6499 10.336 12.9858 9.00005 14.6499 9.00005ZM33.8499 9.00005C35.514 9.00005 36.8499 10.336 36.8499 12C36.8499 13.6641 35.514 15 33.8499 15C32.1858 15 30.8499 13.6641 30.8499 12C30.8499 10.336 32.1858 9.00005 33.8499 9.00005ZM29.3124 12.6024C29.4882 12.5954 29.4999 12.6118 29.6288 12.6211C29.6382 12.75 29.6546 12.7618 29.6476 12.9375C29.6312 13.3618 29.5116 13.8071 29.2843 14.0344C29.0593 14.2618 28.6116 14.379 28.1874 14.3977C28.0116 14.4047 27.9999 14.386 27.8733 14.3766C27.864 14.25 27.8452 14.2383 27.8522 14.0625C27.871 13.6383 27.9882 13.1907 28.2155 12.9657C28.4429 12.7383 28.8882 12.6188 29.3124 12.6024ZM38.3874 12.6024C38.8116 12.6188 39.2569 12.7383 39.4843 12.9657C39.7116 13.1907 39.8288 13.6383 39.8476 14.0625C39.8546 14.2383 39.8358 14.25 39.8265 14.3766C39.6999 14.386 39.6882 14.4047 39.5124 14.3977C39.0882 14.379 38.6405 14.2618 38.4155 14.0344C38.1882 13.8071 38.0687 13.3618 38.0522 12.9375C38.0452 12.7618 38.0616 12.75 38.071 12.6211C38.1999 12.6118 38.2116 12.5954 38.3874 12.6024ZM13.4499 17.4C12.5897 17.4 11.8233 17.7399 11.2069 18.2438C11.2046 18.2438 11.2046 18.2438 11.2022 18.2438C11.1343 18.2672 11.071 18.3024 11.0147 18.3469L3.38115 24.5063C3.29912 24.5719 3.23818 24.654 3.19834 24.75C2.87959 25.1157 2.6499 25.5727 2.6499 26.1C2.6499 27.2532 3.59678 28.2001 4.7499 28.2001C5.13428 28.2001 5.43897 27.9961 5.74834 27.8157C5.88428 27.8133 6.01553 27.7665 6.12334 27.6821L9.8499 24.6797V27.9141L8.67803 37.4344C8.67334 37.4672 8.67334 37.5024 8.67568 37.5375C8.66397 37.6196 8.6499 37.6946 8.6499 37.8001C8.6499 39.1196 9.73037 40.2001 11.0499 40.2001C12.2288 40.2001 13.178 39.3211 13.3726 38.1961C13.4101 38.1305 13.4335 38.0555 13.4429 37.9782L14.2843 31.2001H15.0155L15.8569 37.9782C15.8663 38.0555 15.8897 38.1282 15.9272 38.1961C16.1218 39.3211 17.071 40.2001 18.2499 40.2001C19.5694 40.2001 20.6499 39.1196 20.6499 37.8001C20.6499 37.6993 20.6358 37.629 20.6241 37.5493C20.6265 37.5469 20.6265 37.5469 20.6241 37.5469C20.6288 37.5071 20.6265 37.4696 20.6218 37.4344L19.4499 27.9141V24.7993L22.4757 27.5977C22.5132 27.6376 22.5601 27.6704 22.6093 27.6961C22.9749 28.0055 23.439 28.2001 23.9499 28.2001C24.3343 28.2001 24.639 27.9961 24.9483 27.8157C25.0843 27.8133 25.2155 27.7665 25.321 27.6821L29.0499 24.6797V27.9141L27.878 37.4344C27.8733 37.4672 27.8733 37.5024 27.8757 37.5375C27.864 37.6196 27.8499 37.6946 27.8499 37.8001C27.8499 39.1196 28.9304 40.2001 30.2499 40.2001C31.4288 40.2001 32.378 39.3211 32.5726 38.1961C32.6101 38.1305 32.6335 38.0555 32.6429 37.9782L33.4843 31.2001H34.2155L35.0569 37.9782C35.0663 38.0555 35.0897 38.1282 35.1272 38.1961C35.3218 39.3211 36.271 40.2001 37.4499 40.2001C38.7694 40.2001 39.8499 39.1196 39.8499 37.8001C39.8499 37.6993 39.8358 37.629 39.8241 37.5493C39.8265 37.5469 39.8265 37.5469 39.8241 37.5469C39.8288 37.5071 39.8265 37.4696 39.8218 37.4344L38.6499 27.9141V24.6797L42.3788 27.6821C42.4843 27.7665 42.6155 27.8133 42.7491 27.8157C43.0585 27.9961 43.3655 28.2001 43.7499 28.2001C44.903 28.2001 45.8499 27.2532 45.8499 26.1C45.8499 25.5727 45.6202 25.1133 45.2968 24.7477C45.2593 24.6516 45.1983 24.5696 45.1187 24.5063L37.4827 18.3469C37.4288 18.3047 37.3679 18.2696 37.3022 18.2485C36.6835 17.7422 35.9147 17.4 35.0499 17.4H32.6499C31.7897 17.4 31.0233 17.7399 30.4069 18.2438C30.4046 18.2438 30.4046 18.2438 30.4022 18.2438C30.3343 18.2672 30.271 18.3024 30.2147 18.3469L24.0015 23.3602L18.3038 18.3633C18.2429 18.3118 18.1749 18.2719 18.0999 18.2461C17.4812 17.7399 16.7124 17.4 15.8499 17.4H13.4499ZM13.4499 18.6H15.8499C16.4874 18.6 17.0569 18.8508 17.4905 19.2586C17.5187 19.2868 17.5515 19.3102 17.5843 19.3313C17.5866 19.3313 17.5866 19.3313 17.5866 19.3313L23.0522 24.1243L22.5812 24.5063C22.4991 24.5719 22.4382 24.654 22.4007 24.75C22.2108 24.9657 22.0608 25.2165 21.9624 25.4907L19.2577 22.9875C19.0819 22.8235 18.8288 22.7813 18.6085 22.8774C18.3905 22.9735 18.2499 23.1891 18.2499 23.4282V27.9493C18.2499 27.975 18.2522 28.0008 18.2546 28.0243L19.4218 37.4977C19.4194 37.5329 19.4241 37.568 19.4288 37.6032C19.4429 37.6922 19.4499 37.7555 19.4499 37.8001C19.4499 38.4704 18.9202 39 18.2499 39C17.6054 39 17.0968 38.5055 17.0593 37.868C17.0569 37.8211 17.0476 37.7743 17.0335 37.7297L16.1405 30.525C16.103 30.225 15.8476 30 15.5429 30H13.7569C13.4522 30 13.1968 30.225 13.1593 30.525L12.2663 37.7321C12.2522 37.7766 12.2429 37.8211 12.2405 37.868C12.203 38.5055 11.6944 39 11.0499 39C10.3796 39 9.8499 38.4704 9.8499 37.8001C9.8499 37.7555 9.85693 37.6922 9.871 37.6032C9.87803 37.568 9.88037 37.5329 9.87803 37.4977L11.0452 28.0243C11.0476 28.0008 11.0499 27.975 11.0499 27.9493V23.4282C11.0499 23.1961 10.9163 22.9852 10.7101 22.8868C10.5015 22.786 10.253 22.8141 10.0749 22.9594L5.79053 26.4094L6.17022 26.7915C5.94522 26.5665 5.58193 26.5547 5.34522 26.7657C5.18115 26.9133 4.97959 27 4.7499 27C4.246 27 3.8499 26.604 3.8499 26.1C3.8499 25.8305 3.96709 25.5985 4.15928 25.4297C4.17568 25.4133 4.19209 25.3969 4.20615 25.3805L11.6874 19.3454C11.7319 19.3219 11.7718 19.2915 11.8093 19.2586C12.2429 18.8508 12.8124 18.6 13.4499 18.6ZM32.6499 18.6H35.0499C35.6874 18.6 36.2569 18.8508 36.6905 19.2563C36.7257 19.2915 36.7655 19.3196 36.8077 19.343L44.2937 25.3805C44.3077 25.3993 44.3241 25.4157 44.3405 25.4297C44.5327 25.5985 44.6499 25.8305 44.6499 26.1C44.6499 26.604 44.2538 27 43.7499 27C43.5202 27 43.3187 26.9133 43.1546 26.7657C42.9226 26.5594 42.571 26.5641 42.3437 26.775L42.7093 26.4094L38.4249 22.9594C38.2468 22.8141 37.9983 22.786 37.7897 22.8868C37.5835 22.9852 37.4499 23.1961 37.4499 23.4282V27.9493C37.4499 27.975 37.4522 28.0008 37.4546 28.0243L38.6218 37.4977C38.6194 37.5329 38.6241 37.568 38.6288 37.6032C38.6429 37.6922 38.6499 37.7555 38.6499 37.8001C38.6499 38.4704 38.1202 39 37.4499 39C36.8054 39 36.2968 38.5055 36.2593 37.868C36.2569 37.8211 36.2476 37.7743 36.2335 37.7297L35.3405 30.525C35.303 30.225 35.0476 30 34.7429 30H32.9569C32.6522 30 32.3968 30.225 32.3593 30.525L31.4663 37.7321C31.4522 37.7766 31.4429 37.8211 31.4405 37.868C31.403 38.5055 30.8944 39 30.2499 39C29.5796 39 29.0499 38.4704 29.0499 37.8001C29.0499 37.7555 29.0569 37.6922 29.071 37.6032C29.078 37.568 29.0804 37.5329 29.078 37.4977L30.2452 28.0243C30.2476 28.0008 30.2499 27.975 30.2499 27.9493V23.4282C30.2499 23.1961 30.1163 22.9852 29.9101 22.8868C29.7015 22.786 29.453 22.8141 29.2749 22.9594L24.9905 26.4094L25.3679 26.7915C25.1452 26.5665 24.7819 26.5547 24.5452 26.7657C24.3812 26.9133 24.1796 27 23.9499 27C23.446 27 23.0499 26.604 23.0499 26.1C23.0499 25.8305 23.1671 25.5985 23.3593 25.4297C23.3757 25.4133 23.3921 25.3969 23.4062 25.3805L30.8874 19.3454C30.9319 19.3219 30.9718 19.2915 31.0093 19.2586C31.4429 18.8508 32.0124 18.6 32.6499 18.6ZM14.6499 19.8C14.3194 19.8 14.0499 20.0696 14.0499 20.4C14.0499 20.7305 14.3194 21 14.6499 21C14.9804 21 15.2499 20.7305 15.2499 20.4C15.2499 20.0696 14.9804 19.8 14.6499 19.8ZM33.8499 19.8C33.5194 19.8 33.2499 20.0696 33.2499 20.4C33.2499 20.7305 33.5194 21 33.8499 21C34.1804 21 34.4499 20.7305 34.4499 20.4C34.4499 20.0696 34.1804 19.8 33.8499 19.8ZM14.6499 22.2C14.3194 22.2 14.0499 22.4696 14.0499 22.8C14.0499 23.1305 14.3194 23.4 14.6499 23.4C14.9804 23.4 15.2499 23.1305 15.2499 22.8C15.2499 22.4696 14.9804 22.2 14.6499 22.2ZM33.8499 22.2C33.5194 22.2 33.2499 22.4696 33.2499 22.8C33.2499 23.1305 33.5194 23.4 33.8499 23.4C34.1804 23.4 34.4499 23.1305 34.4499 22.8C34.4499 22.4696 34.1804 22.2 33.8499 22.2ZM14.6499 24.6C14.3194 24.6 14.0499 24.8696 14.0499 25.2001C14.0499 25.5305 14.3194 25.8 14.6499 25.8C14.9804 25.8 15.2499 25.5305 15.2499 25.2001C15.2499 24.8696 14.9804 24.6 14.6499 24.6ZM33.8499 24.6C33.5194 24.6 33.2499 24.8696 33.2499 25.2001C33.2499 25.5305 33.5194 25.8 33.8499 25.8C34.1804 25.8 34.4499 25.5305 34.4499 25.2001C34.4499 24.8696 34.1804 24.6 33.8499 24.6ZM14.6499 27C14.3194 27 14.0499 27.2696 14.0499 27.6C14.0499 27.9305 14.3194 28.2001 14.6499 28.2001C14.9804 28.2001 15.2499 27.9305 15.2499 27.6C15.2499 27.2696 14.9804 27 14.6499 27ZM33.8499 27C33.5194 27 33.2499 27.2696 33.2499 27.6C33.2499 27.9305 33.5194 28.2001 33.8499 28.2001C34.1804 28.2001 34.4499 27.9305 34.4499 27.6C34.4499 27.2696 34.1804 27 33.8499 27Z" fill="black"/>
</g>
</svg>
