<svg width="49" height="48" viewBox="0 0 49 48" fill="none" xmlns="http://www.w3.org/2000/svg">
<g id="icons8_hamburger 1">
<path id="Vector" d="M19.5681 7.19995C12.285 7.19995 6.36807 13.1169 6.36807 20.4V21H6.61768C6.63868 21.0524 6.67191 21.097 6.69619 21.1476C5.73638 21.3396 4.92181 21.7055 4.29033 22.1648C3.35692 22.8436 2.76807 23.6999 2.76807 24.6C2.76807 25.2999 2.94706 25.836 3.13838 26.196C3.32507 26.5474 3.54901 26.7551 3.56025 26.7656C3.86423 27.0626 4.22024 27.2738 4.59736 27.4113C4.57759 27.4722 4.5677 27.5359 4.56807 27.6C4.56807 28.5831 5.05368 29.4519 5.79033 30C5.05368 30.548 4.56807 31.4168 4.56807 32.4V33H4.68994C4.89108 33.9469 5.51999 34.7336 6.36807 35.1269V36.5999C6.36807 38.9125 8.25547 40.7999 10.5681 40.7999H38.1681C40.4807 40.7999 42.3681 38.9125 42.3681 36.5999V35.1269C43.2161 34.7336 43.8451 33.9469 44.0462 33H44.1681V32.4C44.1681 31.4168 43.6825 30.548 42.9458 30C43.6825 29.4519 44.1681 28.5831 44.1681 27.6C44.1688 27.536 44.1593 27.4723 44.1399 27.4113C44.5165 27.2738 44.8711 27.0622 45.1747 26.7656C45.1859 26.7551 45.4111 26.5474 45.5978 26.196C45.7891 25.836 45.9669 25.2999 45.9669 24.6C45.9669 23.6999 45.3909 22.8604 44.5419 22.1812C43.8901 21.6597 43.0443 21.2452 42.0763 21.0796C42.0886 21.0519 42.1071 21.0282 42.1185 21H42.3681V20.4C42.3681 13.1169 36.4511 7.19995 29.1681 7.19995H19.5681ZM19.5681 8.39995H29.1681C35.8026 8.39995 41.1681 13.7654 41.1681 20.4C41.1681 20.739 40.9071 21 40.5681 21H8.16807C7.82905 21 7.56807 20.739 7.56807 20.4C7.56807 13.7654 12.9335 8.39995 19.5681 8.39995ZM19.3853 10.8C19.3057 10.7988 19.2268 10.8135 19.153 10.8432C19.0792 10.8728 19.0121 10.9168 18.9555 10.9727C18.8989 11.0285 18.8539 11.095 18.8232 11.1684C18.7925 11.2417 18.7767 11.3204 18.7767 11.4C18.7767 11.4795 18.7925 11.5582 18.8232 11.6315C18.8539 11.7049 18.8989 11.7714 18.9555 11.8272C19.0121 11.8831 19.0792 11.9271 19.153 11.9567C19.2268 11.9864 19.3057 12.0011 19.3853 12H19.4157C19.4952 12.0011 19.5742 11.9864 19.6479 11.9567C19.7217 11.9271 19.7889 11.8831 19.8455 11.8272C19.9021 11.7714 19.9471 11.7049 19.9778 11.6315C20.0085 11.5582 20.0243 11.4795 20.0243 11.4C20.0243 11.3204 20.0085 11.2417 19.9778 11.1684C19.9471 11.095 19.9021 11.0285 19.8455 10.9727C19.7889 10.9168 19.7217 10.8728 19.6479 10.8432C19.5742 10.8135 19.4952 10.7988 19.4157 10.8H19.3853ZM21.9353 10.8L21.4548 11.0414L21.3599 11.5699L21.7278 11.9625L21.9353 12H21.9985L22.479 11.7585L22.5739 11.23L22.2071 10.8375L21.9985 10.8H21.9353ZM24.5134 10.8L24.0329 11.0414L23.938 11.5699L24.3048 11.9625L24.5134 12H24.5767L25.0571 11.7585L25.1521 11.23L24.7841 10.8375L24.5767 10.8H24.5134ZM27.0915 10.8L26.611 11.0414L26.5161 11.5699L26.8829 11.9625L27.0915 12H27.1548L27.6353 11.7585L27.7302 11.23L27.3622 10.8375L27.1548 10.8H27.0915ZM29.6884 10.8105L29.1997 11.0355L29.0884 11.5617L29.4435 11.966L29.6497 12.0093L29.713 12.0117L30.2005 11.7867L30.313 11.2605L29.9579 10.8562L29.7517 10.8128L29.6884 10.8105ZM32.3919 11.3425L31.8575 11.4058L31.588 11.8699L31.7989 12.3644L31.9829 12.471L32.0415 12.4921L32.5759 12.43L32.8454 11.9648L32.6345 11.4703L32.4517 11.3648L32.3919 11.3425ZM34.2646 12.5824L33.8673 12.9445L33.92 13.4789L34.0618 13.6359L34.1122 13.6734L34.6396 13.7753L35.0368 13.4132L34.9853 12.8777L34.8423 12.7218L34.7931 12.6832L34.2646 12.5824ZM36.1911 14.441L35.7036 14.6683L35.5946 15.1945L35.6849 15.3867L35.7212 15.4382L36.1946 15.6914L36.6821 15.464L36.7911 14.9378L36.7009 14.7457L36.6646 14.6941L36.1911 14.441ZM37.254 16.7625C37.1602 16.7627 37.0677 16.7849 36.9841 16.8274C36.9004 16.8698 36.8279 16.9313 36.7723 17.0068C36.7166 17.0824 36.6795 17.1699 36.6639 17.2624C36.6482 17.3549 36.6545 17.4498 36.6821 17.5394C36.6808 17.535 36.6829 17.5479 36.6927 17.5792C36.7402 17.7312 36.8462 17.8581 36.9873 17.9319C37.1284 18.0058 37.293 18.0205 37.445 17.973C37.597 17.9254 37.7239 17.8195 37.7977 17.6784C37.8716 17.5373 37.8863 17.3726 37.8388 17.2207C37.8426 17.2328 37.8402 17.2256 37.8329 17.2007C37.7976 17.0745 37.7218 16.9632 37.6173 16.8841C37.5127 16.8049 37.3851 16.7622 37.254 16.7625ZM40.9243 22.1519C41.001 22.1846 41.0836 22.201 41.1669 22.2C42.2169 22.2 43.1421 22.5979 43.7931 23.1187C44.444 23.6395 44.7669 24.2999 44.7669 24.6C44.7669 25.1 44.6459 25.429 44.5372 25.6335C44.4285 25.8381 44.3708 25.8796 44.3708 25.8796L44.3579 25.8902L44.3462 25.9019C43.6708 26.5696 42.6016 26.5696 41.9263 25.9019V25.9031L41.4353 25.4179C40.3022 24.2977 38.462 24.2977 37.329 25.4179L36.838 25.9031V25.9019C36.1626 26.5696 35.0946 26.5696 34.4192 25.9019V25.9031L33.9282 25.4179C33.2629 24.7601 32.3529 24.4841 31.4884 24.5988C30.8798 24.6796 30.2896 24.9556 29.822 25.4179H29.8208L29.331 25.9031V25.9019C28.6556 26.5696 27.5864 26.5696 26.911 25.9019V25.9031L26.4212 25.4179C25.2882 24.2977 23.4468 24.2977 22.3138 25.4179L21.8239 25.9031V25.9019C21.1486 26.5696 20.0794 26.5696 19.404 25.9019V25.9031L18.9142 25.4179C17.7811 24.2977 15.9398 24.2977 14.8067 25.4179L14.3169 25.9031V25.9019C13.6415 26.5696 12.5723 26.5696 11.897 25.9019V25.9031L11.4071 25.4179C10.2741 24.2977 8.43275 24.2977 7.29971 25.4179L6.80986 25.9031V25.9019C6.13451 26.5696 5.0653 26.5696 4.38994 25.9019L4.37822 25.8902L4.36533 25.8796C4.36533 25.8796 4.30643 25.8381 4.19775 25.6335C4.0891 25.429 3.96807 25.1 3.96807 24.6C3.96807 24.2999 4.27922 23.6563 4.9958 23.1351C5.71239 22.614 6.78807 22.2 8.16807 22.2H40.5681C40.694 22.2 40.811 22.1799 40.9243 22.1519ZM9.354 25.7707C9.79014 25.7707 10.2257 25.9372 10.5634 26.271L11.0532 26.7562C12.1863 27.8765 14.0276 27.8765 15.1606 26.7562L15.6505 26.271C16.3258 25.6033 17.3951 25.6033 18.0704 26.271L18.5603 26.7562C19.6933 27.8765 21.5346 27.8765 22.6677 26.7562L23.1575 26.271C23.8329 25.6033 24.9021 25.6033 25.5774 26.271L26.0673 26.7562C27.2003 27.8765 29.0417 27.8765 30.1747 26.7562L30.6646 26.271C30.9434 25.9954 31.288 25.8358 31.6466 25.7882C32.1573 25.7205 32.6878 25.8788 33.0845 26.271L33.5755 26.7562C34.7085 27.8765 36.5487 27.8765 37.6817 26.7562L38.1728 26.271C38.8481 25.6033 39.9161 25.6033 40.5915 26.271L41.0825 26.7562C41.6065 27.2743 42.2818 27.5418 42.9681 27.58C42.968 27.5867 42.968 27.5933 42.9681 27.6C42.9681 28.601 42.1692 29.4 41.1681 29.4H39.9669H32.7681C32.6886 29.3988 32.6096 29.4135 32.5358 29.4432C32.4621 29.4728 32.3949 29.5168 32.3383 29.5727C32.2817 29.6285 32.2367 29.695 32.206 29.7684C32.1753 29.8417 32.1595 29.9204 32.1595 30C32.1595 30.0795 32.1753 30.1582 32.206 30.2315C32.2367 30.3049 32.2817 30.3714 32.3383 30.4272C32.3949 30.4831 32.4621 30.5271 32.5358 30.5567C32.6096 30.5864 32.6886 30.6011 32.7681 30.5999H32.8267H34.895C29.8794 32.4219 23.6148 34.9604 20.3052 37.0406C19.6099 36.1358 19.035 35.5571 18.3763 34.7976C18.3757 34.6547 18.3242 34.5167 18.2309 34.4085C18.1377 34.3002 18.0089 34.2288 17.8677 34.207C17.216 33.4764 16.4546 32.4854 15.906 31.9265H15.9048C14.3134 30.306 12.1394 29.4 9.86963 29.4H8.81143H7.56807C6.56698 29.4 5.76807 28.601 5.76807 27.6C5.76779 27.5933 5.7674 27.5867 5.76689 27.58C6.45351 27.5419 7.12953 27.2744 7.65361 26.7562L8.14346 26.271C8.48114 25.9372 8.91786 25.7707 9.354 25.7707ZM15.9974 29.4C15.6656 29.4 15.3974 29.6688 15.3974 30C15.3974 30.3312 15.6656 30.5999 15.9974 30.5999H16.056C16.3878 30.5999 16.6267 30.3312 16.6267 30C16.6267 29.6688 16.3292 29.4 15.9974 29.4ZM18.3974 29.4C18.0656 29.4 17.7974 29.6688 17.7974 30C17.7974 30.3312 18.0656 30.5999 18.3974 30.5999H18.456C18.7878 30.5999 19.0267 30.3312 19.0267 30C19.0267 29.6688 18.7292 29.4 18.3974 29.4ZM20.7974 29.4C20.4656 29.4 20.1974 29.6688 20.1974 30C20.1974 30.3312 20.4656 30.5999 20.7974 30.5999H20.856C21.1878 30.5999 21.4267 30.3312 21.4267 30C21.4267 29.6688 21.1292 29.4 20.7974 29.4ZM23.1974 29.4C22.8656 29.4 22.5974 29.6688 22.5974 30C22.5974 30.3312 22.8656 30.5999 23.1974 30.5999H23.256C23.5878 30.5999 23.8267 30.3312 23.8267 30C23.8267 29.6688 23.5292 29.4 23.1974 29.4ZM25.5388 29.4C25.207 29.4 24.9388 29.6688 24.9388 30C24.9388 30.3312 25.207 30.5999 25.5388 30.5999H25.5974C25.9292 30.5999 26.1681 30.3312 26.1681 30C26.1681 29.6688 25.8706 29.4 25.5388 29.4ZM27.9388 29.4C27.607 29.4 27.3388 29.6688 27.3388 30C27.3388 30.3312 27.607 30.5999 27.9388 30.5999H27.9974C28.3292 30.5999 28.5681 30.3312 28.5681 30C28.5681 29.6688 28.2706 29.4 27.9388 29.4ZM30.3681 29.4C30.0363 29.4 29.7681 29.6688 29.7681 30C29.7681 30.3312 30.0363 30.5999 30.3681 30.5999H30.4267C30.7579 30.5999 30.9974 30.3312 30.9974 30C30.9974 29.6688 30.6999 29.4 30.3681 29.4ZM7.56807 30.5999H8.81143H9.86963C11.8203 30.5999 13.684 31.3776 15.0493 32.7679C15.3937 33.1188 15.8909 33.7782 16.281 34.1999H9.96807H7.56807C6.56698 34.1999 5.76807 33.401 5.76807 32.4C5.76807 31.3989 6.56698 30.5999 7.56807 30.5999ZM38.27 30.5999H41.1681C42.1692 30.5999 42.9681 31.3989 42.9681 32.4C42.9681 33.401 42.1692 34.1999 41.1681 34.1999H38.7681H28.8399C32.2007 32.7829 35.7489 31.4435 38.27 30.5999ZM26.1001 35.3964C26.1227 35.3989 26.1454 35.4001 26.1681 35.4H38.7681H41.1681V36.5999C41.1681 38.2641 39.8323 39.5999 38.1681 39.5999H10.5681C8.90387 39.5999 7.56807 38.2641 7.56807 36.5999V35.4H9.96807H17.3134C18.1183 36.32 18.8314 37.0179 19.6876 38.1597L20.0286 38.6144L20.5009 38.2992C21.7481 37.4677 23.784 36.4431 26.1001 35.3964Z" fill="black"/>
</g>
</svg>
