<svg width="49" height="48" viewBox="0 0 49 48" fill="none" xmlns="http://www.w3.org/2000/svg">
<g id="icons8_add_1 1">
<path id="Vector" d="M24.7502 4.19995C13.8213 4.19995 4.9502 13.071 4.9502 24C4.9502 34.9289 13.8213 43.7999 24.7502 43.7999C35.6791 43.7999 44.5502 34.9289 44.5502 24C44.5502 13.071 35.6791 4.19995 24.7502 4.19995ZM24.7502 5.39995C35.0299 5.39995 43.3502 13.7203 43.3502 24C43.3502 34.2796 35.0299 42.5999 24.7502 42.5999C14.4705 42.5999 6.1502 34.2796 6.1502 24C6.1502 13.7203 14.4705 5.39995 24.7502 5.39995ZM24.7502 7.19995C24.4197 7.19995 24.1502 7.46948 24.1502 7.79995C24.1502 8.13042 24.4197 8.39995 24.7502 8.39995C25.0807 8.39995 25.3502 8.13042 25.3502 7.79995C25.3502 7.46948 25.0807 7.19995 24.7502 7.19995ZM27.926 7.50933C27.633 7.50229 27.3799 7.7062 27.3213 7.99448C27.258 8.31792 27.4689 8.63433 27.7947 8.69995C28.1182 8.76323 28.4346 8.55229 28.5002 8.22886C28.5635 7.90308 28.3525 7.58667 28.0291 7.52104C27.9939 7.51636 27.9611 7.51167 27.926 7.50933ZM21.5932 7.51167C21.5533 7.51167 21.5135 7.51401 21.4736 7.52104C21.1479 7.58667 20.9369 7.90308 21.0025 8.22886C21.033 8.38354 21.1244 8.52183 21.258 8.61089C21.3893 8.69761 21.551 8.73042 21.708 8.69995C22.0338 8.63433 22.2447 8.32026 22.1791 7.99448C22.1229 7.71558 21.8791 7.51401 21.5932 7.51167ZM18.5557 8.43276C18.476 8.43276 18.3963 8.44683 18.3213 8.47729C18.0143 8.6062 17.8689 8.95542 17.9979 9.26245C18.1244 9.56948 18.4736 9.71479 18.7807 9.58823C19.0877 9.45933 19.233 9.11011 19.1064 8.80308C19.0127 8.58042 18.7971 8.43511 18.5557 8.43276ZM30.9635 8.43276C30.715 8.42808 30.49 8.57339 30.3939 8.80308C30.2674 9.11011 30.4127 9.45933 30.7197 9.58823C31.0268 9.71479 31.376 9.56948 31.5025 9.26245C31.6314 8.95542 31.4861 8.6062 31.1791 8.47729C31.1111 8.44917 31.0361 8.43511 30.9635 8.43276ZM15.7572 9.92808C15.6354 9.92808 15.5158 9.96323 15.415 10.0312C15.1408 10.214 15.0658 10.5867 15.251 10.8632C15.4338 11.1375 15.8064 11.2125 16.083 11.0273C16.3596 10.8445 16.4322 10.4718 16.2494 10.1976C16.1393 10.0312 15.9541 9.93042 15.7572 9.92808ZM33.7596 9.92808C33.5557 9.92573 33.3635 10.0265 33.251 10.1976C33.0658 10.4718 33.1408 10.8445 33.415 11.0273C33.6916 11.2125 34.0643 11.1375 34.2471 10.8632C34.3361 10.732 34.3689 10.5679 34.3385 10.4132C34.308 10.2562 34.2166 10.1179 34.083 10.0312C33.9869 9.96558 33.8768 9.93042 33.7596 9.92808ZM13.3033 11.9437C13.1416 11.9437 12.9846 12.007 12.8721 12.1218C12.6377 12.3539 12.6377 12.7359 12.8721 12.9679C13.1041 13.2023 13.4861 13.2023 13.7182 12.9679C13.9525 12.7359 13.9525 12.3539 13.7182 12.1218C13.608 12.0093 13.4604 11.946 13.3033 11.9437ZM36.2135 11.9437C36.0518 11.9437 35.8947 12.007 35.7822 12.1218C35.5478 12.3539 35.5478 12.7359 35.7822 12.9679C36.0143 13.2023 36.3963 13.2023 36.6283 12.9679C36.8627 12.7359 36.8627 12.3539 36.6283 12.1218C36.5182 12.0093 36.3705 11.946 36.2135 11.9437ZM38.2268 14.4C38.1049 14.3976 37.9877 14.4328 37.8869 14.5007C37.6127 14.6835 37.5377 15.0562 37.7229 15.3304C37.9057 15.607 38.2783 15.682 38.5525 15.4968C38.8291 15.3117 38.9041 14.9414 38.7189 14.6648C38.6088 14.5007 38.4236 14.4 38.2268 14.4ZM11.29 14.4C11.0861 14.3953 10.8939 14.496 10.7814 14.6648C10.5986 14.9414 10.6713 15.314 10.9479 15.4968C11.2244 15.682 11.5947 15.607 11.7799 15.3328C11.9627 15.0562 11.89 14.6835 11.6135 14.5007C11.5174 14.4375 11.4072 14.4023 11.29 14.4ZM22.3502 15.6V21.6H16.3502V26.4H22.3502V32.4H27.1502V26.4H33.1502V21.6H27.1502V15.6H22.3502ZM23.5502 16.8H25.9502V22.7999H31.9502V25.1999H25.9502V31.1999H23.5502V25.1999H17.5502V22.7999H23.5502V16.8ZM39.7221 17.2007C39.6424 17.1984 39.5627 17.2148 39.4877 17.2453C39.1807 17.3718 39.0354 17.7234 39.1619 18.0281C39.2908 18.3351 39.64 18.4804 39.9471 18.3539C40.2541 18.2273 40.3994 17.8757 40.2729 17.5687C40.1791 17.3484 39.9635 17.2007 39.7221 17.2007ZM9.79707 17.2007C9.54863 17.196 9.32363 17.3414 9.22988 17.571C9.10332 17.8781 9.24863 18.2273 9.55332 18.3562C9.86035 18.4828 10.2119 18.3375 10.3385 18.0304C10.465 17.7234 10.3197 17.3742 10.0127 17.2476C9.94473 17.2171 9.87207 17.2031 9.79707 17.2007ZM40.6408 20.2406C40.601 20.2382 40.5611 20.2429 40.5213 20.25C40.1978 20.3156 39.9869 20.632 40.0502 20.9554C40.1158 21.2812 40.4322 21.4921 40.7557 21.4289C41.0814 21.3632 41.2924 21.0468 41.2291 20.721C41.1728 20.4421 40.9268 20.2406 40.6408 20.2406ZM8.87832 20.2406C8.58535 20.2335 8.33223 20.4351 8.27363 20.721C8.24316 20.8781 8.27363 21.0421 8.3627 21.1734C8.45176 21.307 8.59004 21.3984 8.74707 21.4289C8.90176 21.4593 9.06348 21.4265 9.19707 21.3398C9.32832 21.2507 9.41973 21.1124 9.45019 20.9554C9.51582 20.632 9.30488 20.3156 8.98144 20.25C8.94629 20.2453 8.91348 20.2406 8.87832 20.2406ZM8.5502 23.4C8.21973 23.4 7.9502 23.6695 7.9502 24C7.9502 24.3304 8.21973 24.6 8.5502 24.6C8.88066 24.6 9.1502 24.3304 9.1502 24C9.1502 23.6695 8.88066 23.4 8.5502 23.4ZM40.9502 23.4C40.6197 23.4 40.3502 23.6695 40.3502 24C40.3502 24.3304 40.6197 24.6 40.9502 24.6C41.2807 24.6 41.5502 24.3304 41.5502 24C41.5502 23.6695 41.2807 23.4 40.9502 23.4ZM8.86426 26.5593C8.82441 26.5593 8.78457 26.564 8.74473 26.571C8.41895 26.6367 8.20801 26.9531 8.27363 27.2789C8.33926 27.6023 8.65332 27.8132 8.9791 27.75C9.30488 27.6843 9.51582 27.3679 9.45019 27.0445C9.39395 26.7632 9.1502 26.5617 8.86426 26.5593ZM40.6549 26.5593C40.3619 26.5523 40.1088 26.7562 40.0502 27.0445C39.9869 27.3679 40.1978 27.6843 40.5213 27.75C40.8471 27.8132 41.1635 27.6023 41.2291 27.2789C41.2924 26.9531 41.0814 26.6367 40.7557 26.571C40.7229 26.5664 40.69 26.5617 40.6549 26.5593ZM39.7314 29.5968C39.483 29.5921 39.258 29.7398 39.1619 29.9695C39.0354 30.2742 39.1807 30.6257 39.4877 30.7523C39.7947 30.8789 40.1439 30.7335 40.2729 30.4289C40.3994 30.1218 40.2541 29.7703 39.9471 29.6437C39.8791 29.6156 39.8041 29.5992 39.7314 29.5968ZM9.78769 29.5992C9.70801 29.5992 9.62832 29.6132 9.55332 29.6437C9.40801 29.7046 9.29082 29.8218 9.22988 29.9695C9.16895 30.1171 9.16895 30.2812 9.22754 30.4289C9.35645 30.7359 9.70566 30.8812 10.0127 30.7523C10.1604 30.6937 10.2775 30.5765 10.3385 30.4289C10.3994 30.2812 10.3994 30.1171 10.3385 29.9695C10.2471 29.7468 10.0291 29.6015 9.78769 29.5992ZM38.2314 32.4C38.0275 32.3953 37.8354 32.496 37.7229 32.6648C37.5377 32.9414 37.6127 33.3117 37.8869 33.4968C38.0182 33.5859 38.1822 33.6187 38.3369 33.5859C38.4939 33.5554 38.6322 33.464 38.7189 33.3304C38.9041 33.0562 38.8291 32.6835 38.5525 32.5007C38.4588 32.4351 38.3463 32.4 38.2314 32.4ZM11.2877 32.4C11.1658 32.3976 11.0486 32.4328 10.9479 32.5007C10.6736 32.6859 10.5986 33.0562 10.7814 33.3328C10.9666 33.607 11.3393 33.682 11.6158 33.4968C11.89 33.314 11.965 32.9414 11.7799 32.6648C11.6697 32.5007 11.4846 32.4023 11.2877 32.4ZM13.3033 34.8562C13.1416 34.8539 12.9846 34.9171 12.8721 35.032C12.6377 35.264 12.6377 35.646 12.8721 35.8781C13.1041 36.1124 13.4861 36.1124 13.7182 35.8781C13.9525 35.646 13.9525 35.264 13.7182 35.032C13.608 34.9195 13.4604 34.8562 13.3033 34.8562ZM36.2135 34.8562C36.0518 34.8539 35.8947 34.9171 35.7822 35.032C35.5478 35.264 35.5478 35.646 35.7822 35.8781C36.0143 36.1124 36.3963 36.1124 36.6283 35.8781C36.8627 35.646 36.8627 35.264 36.6283 35.032C36.5182 34.9195 36.3705 34.8562 36.2135 34.8562ZM15.7619 36.8695C15.558 36.8648 15.3658 36.9656 15.2533 37.1343C15.0682 37.4109 15.1432 37.7835 15.4197 37.9687C15.6939 38.1515 16.0666 38.0765 16.2494 37.8023C16.4346 37.5257 16.3596 37.1554 16.0854 36.9703C15.9893 36.907 15.8768 36.8695 15.7619 36.8695ZM33.7572 36.8695C33.6353 36.8671 33.5182 36.9023 33.4174 36.9679C33.2838 37.057 33.1924 37.1953 33.1619 37.3523C33.1314 37.507 33.1643 37.671 33.2533 37.8023C33.4361 38.0765 33.8088 38.1515 34.0854 37.9687C34.3596 37.7835 34.4346 37.4109 34.2494 37.1343C34.1416 36.9703 33.9564 36.8695 33.7572 36.8695ZM18.565 38.3648C18.3166 38.3601 18.0916 38.5078 17.9979 38.7374C17.8713 39.0421 18.0166 39.3937 18.3213 39.5203C18.6283 39.6468 18.9799 39.5015 19.1064 39.1968C19.233 38.8898 19.0877 38.5382 18.7807 38.4117C18.7127 38.3835 18.64 38.3671 18.565 38.3648ZM30.9541 38.3648C30.8744 38.3648 30.7947 38.3812 30.7221 38.4117C30.5744 38.4726 30.4572 38.5898 30.3963 38.7351C30.3354 38.8828 30.3354 39.0492 30.3939 39.1968C30.5229 39.5015 30.8721 39.6468 31.1791 39.5203C31.3268 39.4593 31.4439 39.3421 31.5049 39.1968C31.5658 39.0492 31.5658 38.8828 31.5049 38.7374C31.4135 38.5124 31.1955 38.3671 30.9541 38.3648ZM21.6072 39.2882C21.3143 39.2812 21.0588 39.4851 21.0025 39.771C20.9369 40.0968 21.1479 40.4109 21.4736 40.4765C21.7994 40.5421 22.1135 40.3312 22.1791 40.0054C22.2447 39.6796 22.0338 39.3656 21.708 39.2999C21.6752 39.2929 21.64 39.2882 21.6072 39.2882ZM27.9119 39.2906C27.8721 39.2882 27.8322 39.2929 27.7947 39.2999C27.4689 39.3656 27.258 39.6796 27.3213 40.0054C27.3541 40.1624 27.4455 40.2984 27.5768 40.3874C27.7104 40.4765 27.8721 40.5093 28.0291 40.4789C28.1838 40.446 28.3221 40.3546 28.4111 40.2234C28.4979 40.0898 28.5307 39.9281 28.5002 39.771C28.4439 39.4921 28.1979 39.2906 27.9119 39.2906ZM24.7502 39.5999C24.4197 39.5999 24.1502 39.8695 24.1502 40.1999C24.1502 40.5304 24.4197 40.7999 24.7502 40.7999C25.0807 40.7999 25.3502 40.5304 25.3502 40.1999C25.3502 39.8695 25.0807 39.5999 24.7502 39.5999Z" fill="black"/>
</g>
</svg>
