<svg width="49" height="48" viewBox="0 0 49 48" fill="none" xmlns="http://www.w3.org/2000/svg">
<g id="icons8_Clock 1">
<path id="Vector" d="M13.7897 3.82157C13.6892 3.8205 13.5901 3.84468 13.5014 3.89188C13.4319 3.92904 13.3704 3.97953 13.3204 4.04045C13.2705 4.10138 13.233 4.17155 13.2101 4.24696C13.1873 4.32237 13.1795 4.40155 13.1872 4.47997C13.195 4.55838 13.2181 4.63451 13.2553 4.70399C13.2923 4.77357 13.3427 4.83517 13.4036 4.88527C13.4645 4.93536 13.5347 4.97296 13.6101 4.99592C13.6855 5.01889 13.7647 5.02676 13.8432 5.0191C13.9216 5.01143 13.9978 4.98838 14.0674 4.95125C14.1369 4.91409 14.1984 4.86361 14.2483 4.80268C14.2983 4.74176 14.3358 4.67158 14.3586 4.59617C14.3815 4.52076 14.3893 4.44158 14.3815 4.36317C14.3738 4.28475 14.3506 4.20863 14.3135 4.13915C14.2627 4.04404 14.1873 3.96435 14.0951 3.90847C14.003 3.85259 13.8974 3.82257 13.7897 3.82157ZM24.2498 4.20008C13.3217 4.20008 4.44981 13.072 4.44981 24.0001C4.44981 34.9282 13.3217 43.8001 24.2498 43.8001C35.1779 43.8001 44.0498 34.9282 44.0498 24.0001C44.0498 13.072 35.1779 4.20008 24.2498 4.20008ZM11.9229 4.94071C11.8019 4.93966 11.6834 4.97519 11.583 5.04266C11.4508 5.13111 11.3591 5.26845 11.3281 5.42447C11.2972 5.58049 11.3294 5.74243 11.4178 5.87469C11.5062 6.0069 11.6436 6.09857 11.7996 6.12956C11.9556 6.16054 12.1175 6.1283 12.2498 6.03993C12.382 5.95147 12.4737 5.81414 12.5047 5.65812C12.5357 5.5021 12.5034 5.34016 12.415 5.2079C12.3609 5.12669 12.2878 5.05991 12.202 5.01335C12.1163 4.96679 12.0204 4.94186 11.9229 4.94071ZM24.2498 5.40008C34.5294 5.40008 42.8498 13.7205 42.8498 24.0001C42.8498 34.2797 34.5294 42.6001 24.2498 42.6001C13.9702 42.6001 5.64981 34.2797 5.64981 24.0001C5.64981 13.7205 13.9702 5.40008 24.2498 5.40008ZM10.1732 6.23915C10.0318 6.23771 9.89445 6.28627 9.78535 6.37625C9.66254 6.47718 9.5848 6.62272 9.5692 6.78092C9.55361 6.93911 9.60142 7.09703 9.70215 7.22C9.75214 7.28098 9.81366 7.33151 9.88319 7.3687C9.95272 7.40589 10.0289 7.42901 10.1074 7.43674C10.1858 7.44446 10.2651 7.43665 10.3405 7.41374C10.416 7.39082 10.4861 7.35327 10.5471 7.30321C10.6081 7.25322 10.6586 7.1917 10.6958 7.12217C10.733 7.05264 10.7561 6.97646 10.7638 6.89799C10.7715 6.81952 10.7637 6.7403 10.7408 6.66485C10.7179 6.5894 10.6803 6.51921 10.6303 6.45829C10.5747 6.39062 10.505 6.33594 10.426 6.29809C10.3471 6.26023 10.2608 6.24011 10.1732 6.23915ZM24.2498 6.60008C23.9315 6.60008 23.6263 6.72651 23.4013 6.95156C23.1762 7.1766 23.0498 7.48182 23.0498 7.80008C23.0498 8.11834 23.1762 8.42357 23.4013 8.64861C23.6263 8.87365 23.9315 9.00008 24.2498 9.00008C24.5681 9.00008 24.8733 8.87365 25.0983 8.64861C25.3234 8.42357 25.4498 8.11834 25.4498 7.80008C25.4498 7.48182 25.3234 7.1766 25.0983 6.95156C24.8733 6.72651 24.5681 6.60008 24.2498 6.60008ZM8.56074 7.70282C8.48038 7.70158 8.40059 7.71651 8.32611 7.7467C8.25162 7.7769 8.18397 7.82175 8.12715 7.8786C8.01481 7.99127 7.95183 8.14395 7.95204 8.30306C7.95226 8.46217 8.01567 8.61467 8.12832 8.72704C8.24084 8.83953 8.39343 8.90273 8.55254 8.90273C8.71165 8.90273 8.86424 8.83953 8.97676 8.72704C9.03264 8.6713 9.07697 8.60509 9.10722 8.53219C9.13747 8.4593 9.15304 8.38115 9.15304 8.30223C9.15304 8.22331 9.13747 8.14516 9.10722 8.07227C9.07697 7.99937 9.03264 7.93316 8.97676 7.87743C8.86609 7.76732 8.71685 7.70468 8.56074 7.70282ZM20.0615 7.75204C20.0475 7.75193 20.0334 7.75232 20.0193 7.75321C19.9793 7.75588 19.9397 7.76255 19.901 7.77313C19.7473 7.81433 19.6163 7.91488 19.5367 8.05267C19.4572 8.19046 19.4356 8.35421 19.4768 8.5079C19.518 8.66158 19.6185 8.7926 19.7563 8.87216C19.8941 8.95171 20.0578 8.97328 20.2115 8.93211C20.3652 8.89092 20.4962 8.79037 20.5758 8.65258C20.6553 8.51479 20.6769 8.35104 20.6357 8.19735C20.6019 8.07053 20.5274 7.95831 20.4237 7.87788C20.32 7.79745 20.1928 7.75324 20.0615 7.75204ZM28.4369 7.75321C28.3057 7.75441 28.1784 7.79862 28.0747 7.87905C27.971 7.95948 27.8965 8.07171 27.8627 8.19852C27.8215 8.35221 27.8431 8.51596 27.9227 8.65375C28.0022 8.79154 28.1332 8.89209 28.2869 8.93329C28.4406 8.97445 28.6044 8.95288 28.7421 8.87333C28.8799 8.79377 28.9805 8.66275 29.0217 8.50907C29.0422 8.43289 29.0476 8.3534 29.0374 8.27516C29.0272 8.19692 29.0016 8.12146 28.9622 8.0531C28.9228 7.98475 28.8703 7.92483 28.8077 7.87679C28.7451 7.82875 28.6737 7.79352 28.5975 7.77313C28.5451 7.75927 28.4911 7.75257 28.4369 7.75321ZM7.09824 9.31649C7.00792 9.31502 6.91844 9.33397 6.83646 9.37191C6.75449 9.40985 6.68213 9.46582 6.62481 9.53563C6.57475 9.59655 6.53719 9.66675 6.51428 9.74219C6.49137 9.81764 6.48355 9.89686 6.49128 9.97534C6.49901 10.0538 6.52212 10.13 6.55931 10.1995C6.5965 10.269 6.64703 10.3306 6.70801 10.3806C6.76893 10.4306 6.83913 10.4682 6.91457 10.4911C6.99002 10.514 7.06925 10.5218 7.14772 10.5141C7.22619 10.5064 7.30237 10.4832 7.3719 10.446C7.44142 10.4089 7.50294 10.3583 7.55293 10.2973C7.60299 10.2364 7.64055 10.1662 7.66346 10.0908C7.68637 10.0153 7.69419 9.93611 7.68646 9.85764C7.67873 9.77917 7.65561 9.70299 7.61842 9.63346C7.58124 9.56393 7.53071 9.50242 7.46973 9.45243C7.36483 9.36642 7.23388 9.31851 7.09824 9.31649ZM16.1346 9.3704C16.034 9.37295 15.9357 9.40075 15.8486 9.45125C15.711 9.5309 15.6107 9.6619 15.5696 9.81548C15.5285 9.96907 15.55 10.1327 15.6295 10.2704C15.7091 10.408 15.8401 10.5084 15.9937 10.5495C16.1473 10.5905 16.3109 10.569 16.4486 10.4895C16.5864 10.4101 16.687 10.2792 16.7284 10.1256C16.7697 9.97197 16.7483 9.80825 16.6689 9.6704C16.6151 9.57698 16.537 9.49982 16.443 9.44703C16.3489 9.39423 16.2424 9.36776 16.1346 9.3704ZM32.3205 9.37274C32.22 9.37728 32.1222 9.40704 32.0362 9.45925C31.9502 9.51147 31.8787 9.58448 31.8283 9.67157C31.7888 9.73988 31.7632 9.8153 31.7529 9.89352C31.7426 9.97174 31.7479 10.0512 31.7683 10.1274C31.7888 10.2036 31.8241 10.275 31.8722 10.3376C31.9203 10.4001 31.9802 10.4525 32.0486 10.4919C32.1865 10.5712 32.3502 10.5926 32.5038 10.5513C32.6574 10.51 32.7883 10.4094 32.8678 10.2716C32.9472 10.1339 32.9688 9.97024 32.9277 9.81666C32.8866 9.66307 32.7862 9.53207 32.6486 9.45243C32.5491 9.395 32.4353 9.36734 32.3205 9.37274ZM24.2498 10.2001C24.0907 10.2001 23.9381 10.2633 23.8255 10.3758C23.713 10.4883 23.6498 10.641 23.6498 10.8001C23.6498 10.9592 23.713 11.1118 23.8255 11.2243C23.9381 11.3369 24.0907 11.4001 24.2498 11.4001C24.4089 11.4001 24.5616 11.3369 24.6741 11.2243C24.7866 11.1118 24.8498 10.9592 24.8498 10.8001C24.8498 10.641 24.7866 10.4883 24.6741 10.3758C24.5616 10.2633 24.4089 10.2001 24.2498 10.2001ZM5.80215 11.0661C5.7017 11.0642 5.60239 11.0876 5.51333 11.1341C5.42426 11.1805 5.34829 11.2486 5.29238 11.3321C5.20412 11.4645 5.17207 11.6266 5.20327 11.7826C5.23448 11.9386 5.32639 12.0759 5.45879 12.1641C5.59105 12.2525 5.75299 12.2848 5.90901 12.2538C6.06504 12.2228 6.20237 12.1311 6.29082 11.9989C6.37909 11.8665 6.41114 11.7045 6.37993 11.5484C6.34873 11.3924 6.25681 11.2551 6.12442 11.1669C6.02886 11.1031 5.917 11.0682 5.80215 11.0661ZM12.8041 11.945C12.7237 11.9438 12.644 11.9587 12.5695 11.9889C12.495 12.0191 12.4273 12.0639 12.3705 12.1208C12.258 12.2333 12.1948 12.3859 12.1948 12.545C12.1948 12.7041 12.258 12.8567 12.3705 12.9692C12.483 13.0817 12.6356 13.1449 12.7947 13.1449C12.9538 13.1449 13.1064 13.0817 13.2189 12.9692C13.3314 12.8567 13.3946 12.7041 13.3946 12.545C13.3946 12.3859 13.3314 12.2333 13.2189 12.1208C13.1088 12.0105 12.96 11.9475 12.8041 11.945ZM35.7131 11.945C35.6327 11.9438 35.5529 11.9587 35.4785 11.9889C35.404 12.0191 35.3363 12.0639 35.2795 12.1208C35.167 12.2333 35.1038 12.3859 35.1038 12.545C35.1038 12.7041 35.167 12.8567 35.2795 12.9692C35.392 13.0817 35.5446 13.1449 35.7037 13.1449C35.8628 13.1449 36.0154 13.0817 36.1279 12.9692C36.2404 12.8567 36.3036 12.7041 36.3036 12.545C36.3036 12.3859 36.2404 12.2333 36.1279 12.1208C36.0177 12.0105 35.869 11.9475 35.7131 11.945ZM28.5647 12.7864L24.64 21.6399C24.5123 21.6186 24.3833 21.6001 24.2498 21.6001C22.9314 21.6001 21.8498 22.6817 21.8498 24.0001C21.8498 25.3185 22.9314 26.4001 24.2498 26.4001C24.6923 26.4001 25.1031 26.2708 25.4604 26.0591L30.5111 31.1098L31.3596 30.2614L26.3088 25.2106C26.5205 24.8534 26.6498 24.4426 26.6498 24.0001C26.6498 23.2438 26.2869 22.5731 25.7346 22.1321L29.6615 13.2727L28.5647 12.7864ZM4.68301 12.9352C4.57224 12.933 4.46303 12.9615 4.36747 13.0176C4.27191 13.0736 4.19373 13.1551 4.1416 13.2528C4.10443 13.3223 4.08131 13.3984 4.07357 13.4768C4.06582 13.5553 4.07359 13.6344 4.09644 13.7098C4.1193 13.7853 4.15678 13.8554 4.20675 13.9164C4.25673 13.9773 4.31821 14.0278 4.3877 14.0649C4.45725 14.1021 4.53343 14.1251 4.6119 14.1328C4.69037 14.1404 4.76957 14.1326 4.845 14.1096C4.92042 14.0866 4.99057 14.049 5.05145 13.9989C5.11233 13.9488 5.16275 13.8872 5.19981 13.8177C5.23698 13.7482 5.2601 13.6721 5.26784 13.5936C5.27559 13.5152 5.26782 13.436 5.24497 13.3606C5.22211 13.2852 5.18463 13.215 5.13466 13.1541C5.08468 13.0932 5.0232 13.0427 4.95371 13.0056C4.87028 12.9611 4.77752 12.937 4.68301 12.9352ZM3.75254 14.904C3.6317 14.9014 3.5129 14.9354 3.41169 15.0015C3.31049 15.0675 3.2316 15.1626 3.18535 15.2743C3.15519 15.3471 3.13966 15.4251 3.13965 15.5039C3.13964 15.5827 3.15515 15.6607 3.18529 15.7335C3.21543 15.8063 3.25962 15.8725 3.31533 15.9282C3.37103 15.9839 3.43717 16.0281 3.50996 16.0583C3.58275 16.0884 3.66077 16.104 3.73957 16.104C3.81836 16.104 3.89638 16.0885 3.96918 16.0584C4.04198 16.0282 4.10813 15.984 4.16386 15.9283C4.21958 15.8726 4.26378 15.8065 4.29395 15.7337C4.32411 15.6609 4.33964 15.5829 4.33965 15.5041C4.33966 15.4253 4.32415 15.3473 4.29401 15.2745C4.26387 15.2017 4.21968 15.1355 4.16397 15.0798C4.10827 15.0241 4.04213 14.9799 3.96934 14.9497C3.90054 14.9211 3.82702 14.9056 3.75254 14.904ZM10.192 15.3001C10.0917 15.3048 9.99416 15.3347 9.90837 15.3869C9.82259 15.4391 9.75128 15.512 9.70098 15.5989C9.66145 15.6672 9.63577 15.7425 9.62539 15.8207C9.61501 15.8989 9.62015 15.9783 9.6405 16.0545C9.66085 16.1307 9.69603 16.2021 9.744 16.2647C9.79198 16.3273 9.85183 16.3798 9.92012 16.4192C9.98843 16.4587 10.0639 16.4843 10.1421 16.4946C10.2203 16.5049 10.2998 16.4997 10.376 16.4792C10.4522 16.4587 10.5236 16.4234 10.5861 16.3754C10.6487 16.3273 10.7011 16.2673 10.7404 16.1989C10.8198 16.0611 10.8412 15.8973 10.7998 15.7437C10.7585 15.5901 10.6579 15.4592 10.5201 15.3798C10.4206 15.3223 10.3067 15.2947 10.192 15.3001ZM38.2631 15.3001C38.1626 15.3023 38.0643 15.3297 37.9772 15.3798C37.9089 15.4192 37.849 15.4717 37.801 15.5343C37.7531 15.5969 37.7179 15.6683 37.6975 15.7445C37.6772 15.8207 37.672 15.9001 37.6824 15.9783C37.6928 16.0565 37.7185 16.1318 37.758 16.2001C37.8377 16.3377 37.9687 16.4381 38.1222 16.4791C38.2758 16.5202 38.4394 16.4987 38.5772 16.4192C38.715 16.3398 38.8156 16.2089 38.8569 16.0553C38.8982 15.9017 38.8768 15.7379 38.7975 15.6001C38.7436 15.5067 38.6655 15.4295 38.5715 15.3767C38.4774 15.3239 38.3709 15.2974 38.2631 15.3001ZM39.9014 19.2071C39.8873 19.207 39.8732 19.2074 39.8592 19.2083C39.8192 19.211 39.7795 19.2176 39.7408 19.2282C39.5871 19.2694 39.4561 19.37 39.3766 19.5077C39.297 19.6455 39.2754 19.8093 39.3166 19.963C39.3578 20.1167 39.4584 20.2477 39.5961 20.3272C39.7339 20.4068 39.8977 20.4284 40.0514 20.3872C40.2051 20.346 40.3361 20.2454 40.4156 20.1077C40.4952 19.9699 40.5168 19.8061 40.4756 19.6524C40.4418 19.5256 40.3673 19.4134 40.2636 19.333C40.1598 19.2525 40.0326 19.2083 39.9014 19.2071ZM8.5959 19.2083C8.46466 19.2095 8.33743 19.2537 8.23371 19.3341C8.13 19.4146 8.05551 19.5268 8.02168 19.6536C7.98052 19.8073 8.00209 19.971 8.08164 20.1088C8.16119 20.2466 8.29222 20.3472 8.4459 20.3884C8.59959 20.4295 8.76334 20.408 8.90113 20.3284C9.03892 20.2489 9.13947 20.1178 9.18067 19.9641C9.20122 19.888 9.20655 19.8085 9.19635 19.7302C9.18615 19.652 9.16061 19.5765 9.12121 19.5082C9.0818 19.4398 9.0293 19.3799 8.96671 19.3319C8.90412 19.2838 8.83267 19.2486 8.75645 19.2282C8.70408 19.2144 8.65007 19.2076 8.5959 19.2083ZM8.04981 22.8001C7.73155 22.8001 7.42632 22.9265 7.20128 23.1516C6.97623 23.3766 6.84981 23.6818 6.84981 24.0001C6.84981 24.3183 6.97623 24.6236 7.20128 24.8486C7.42632 25.0737 7.73155 25.2001 8.04981 25.2001C8.36807 25.2001 8.67329 25.0737 8.89833 24.8486C9.12338 24.6236 9.24981 24.3183 9.24981 24.0001C9.24981 23.6818 9.12338 23.3766 8.89833 23.1516C8.67329 22.9265 8.36807 22.8001 8.04981 22.8001ZM24.2498 22.8001C24.9197 22.8001 25.4498 23.3302 25.4498 24.0001C25.4498 24.6699 24.9197 25.2001 24.2498 25.2001C23.58 25.2001 23.0498 24.6699 23.0498 24.0001C23.0498 23.3302 23.58 22.8001 24.2498 22.8001ZM40.4498 22.8001C40.1315 22.8001 39.8263 22.9265 39.6013 23.1516C39.3762 23.3766 39.2498 23.6818 39.2498 24.0001C39.2498 24.3183 39.3762 24.6236 39.6013 24.8486C39.8263 25.0737 40.1315 25.2001 40.4498 25.2001C40.7681 25.2001 41.0733 25.0737 41.2983 24.8486C41.5234 24.6236 41.6498 24.3183 41.6498 24.0001C41.6498 23.6818 41.5234 23.3766 41.2983 23.1516C41.0733 22.9265 40.7681 22.8001 40.4498 22.8001ZM11.0498 23.4001C10.8907 23.4001 10.7381 23.4633 10.6255 23.5758C10.513 23.6883 10.4498 23.841 10.4498 24.0001C10.4498 24.1592 10.513 24.3118 10.6255 24.4243C10.7381 24.5369 10.8907 24.6001 11.0498 24.6001C11.2089 24.6001 11.3615 24.5369 11.4741 24.4243C11.5866 24.3118 11.6498 24.1592 11.6498 24.0001C11.6498 23.841 11.5866 23.6883 11.4741 23.5758C11.3615 23.4633 11.2089 23.4001 11.0498 23.4001ZM37.4498 23.4001C37.2907 23.4001 37.1381 23.4633 37.0255 23.5758C36.913 23.6883 36.8498 23.841 36.8498 24.0001C36.8498 24.1592 36.913 24.3118 37.0255 24.4243C37.1381 24.5369 37.2907 24.6001 37.4498 24.6001C37.6089 24.6001 37.7616 24.5369 37.8741 24.4243C37.9866 24.3118 38.0498 24.1592 38.0498 24.0001C38.0498 23.841 37.9866 23.6883 37.8741 23.5758C37.7616 23.4633 37.6089 23.4001 37.4498 23.4001ZM8.60645 27.5919C8.59238 27.5918 8.5783 27.5922 8.56426 27.5931C8.52424 27.5957 8.48459 27.6024 8.4459 27.613C8.29222 27.6542 8.16119 27.7547 8.08164 27.8925C8.00209 28.0303 7.98052 28.194 8.02168 28.3477C8.06288 28.5014 8.16343 28.6324 8.30122 28.712C8.43901 28.7916 8.60276 28.8131 8.75645 28.772C8.91013 28.7308 9.04115 28.6302 9.12071 28.4924C9.20026 28.3546 9.22183 28.1909 9.18067 28.0372C9.14683 27.9104 9.07235 27.7982 8.96864 27.7177C8.86492 27.6373 8.73769 27.5931 8.60645 27.5919ZM39.8908 27.5954C39.7598 27.5969 39.6328 27.6412 39.5293 27.7216C39.4259 27.802 39.3516 27.9141 39.3178 28.0407C39.2766 28.1944 39.2982 28.3581 39.3777 28.4959C39.4573 28.6337 39.5883 28.7343 39.742 28.7755C39.8957 28.8166 40.0594 28.7951 40.1972 28.7155C40.335 28.636 40.4356 28.5049 40.4768 28.3513C40.5179 28.1976 40.4964 28.0338 40.4168 27.896C40.3372 27.7582 40.2062 27.6577 40.0525 27.6165C39.9998 27.6021 39.9454 27.595 39.8908 27.5954ZM10.2049 31.4989C10.1047 31.5017 10.0068 31.5295 9.92012 31.5798C9.78232 31.6592 9.6817 31.7901 9.64039 31.9437C9.59908 32.0973 9.62045 32.2611 9.69981 32.3989C9.73924 32.4672 9.79175 32.527 9.85434 32.575C9.91692 32.623 9.98835 32.6582 10.0645 32.6785C10.1407 32.6989 10.2202 32.704 10.2983 32.6936C10.3765 32.6833 10.4519 32.6576 10.5201 32.6181C10.6577 32.5384 10.7581 32.4074 10.7992 32.2538C10.8403 32.1002 10.8187 31.9366 10.7393 31.7989C10.6854 31.7055 10.6073 31.6283 10.5133 31.5755C10.4192 31.5227 10.3127 31.4963 10.2049 31.4989ZM38.249 31.5013C38.1486 31.5061 38.051 31.5361 37.9652 31.5886C37.8794 31.641 37.8082 31.7141 37.758 31.8013C37.6786 31.939 37.657 32.1026 37.6981 32.2562C37.7392 32.4098 37.8396 32.5408 37.9772 32.6204C38.0454 32.6599 38.1208 32.6856 38.1989 32.696C38.2771 32.7064 38.3565 32.7012 38.4327 32.6809C38.5089 32.6605 38.5803 32.6254 38.6429 32.5774C38.7055 32.5294 38.758 32.4695 38.7975 32.4013C38.8369 32.3329 38.8626 32.2575 38.8728 32.1793C38.8831 32.1011 38.8779 32.0216 38.8574 31.9454C38.837 31.8692 38.8017 31.7978 38.7536 31.7353C38.7055 31.6727 38.6455 31.6203 38.5772 31.5809C38.4777 31.5235 38.3638 31.4959 38.249 31.5013ZM44.7729 31.8938C44.652 31.8912 44.5332 31.9252 44.432 31.9913C44.3308 32.0574 44.2519 32.1525 44.2057 32.2641C44.1755 32.3369 44.16 32.415 44.16 32.4938C44.16 32.5725 44.1755 32.6506 44.2056 32.7234C44.2357 32.7962 44.2799 32.8623 44.3356 32.918C44.3913 32.9738 44.4575 33.018 44.5303 33.0481C44.6031 33.0783 44.6811 33.0938 44.7599 33.0938C44.8387 33.0938 44.9167 33.0783 44.9895 33.0482C45.0623 33.0181 45.1284 32.9739 45.1842 32.9182C45.2399 32.8625 45.2841 32.7963 45.3143 32.7235C45.3444 32.6507 45.36 32.5727 45.36 32.4939C45.36 32.4151 45.3445 32.3371 45.3143 32.2643C45.2842 32.1915 45.24 32.1253 45.1843 32.0696C45.1286 32.0139 45.0624 31.9697 44.9897 31.9395C44.9208 31.911 44.8473 31.8955 44.7729 31.8938ZM43.84 33.8661C43.7293 33.8639 43.6201 33.8924 43.5245 33.9484C43.4289 34.0045 43.3508 34.0859 43.2986 34.1837C43.2615 34.2532 43.2385 34.3294 43.2308 34.4079C43.2231 34.4863 43.231 34.5656 43.254 34.641C43.2769 34.7164 43.3145 34.7866 43.3646 34.8474C43.4147 34.9083 43.4763 34.9587 43.5459 34.9958C43.6863 35.0704 43.8505 35.0863 44.0025 35.0399C44.1546 34.9935 44.282 34.8887 44.3568 34.7485C44.394 34.679 44.4171 34.6029 44.4249 34.5245C44.4326 34.4461 44.4248 34.3669 44.402 34.2915C44.3791 34.2161 44.3417 34.1459 44.2917 34.085C44.2417 34.0241 44.1802 33.9736 44.1107 33.9364C44.0273 33.892 43.9346 33.8679 43.84 33.8661ZM12.8029 34.8552C12.7228 34.8541 12.6432 34.8691 12.5689 34.8993C12.4947 34.9295 12.4272 34.9742 12.3705 35.0309C12.258 35.1435 12.1948 35.2961 12.1948 35.4552C12.1948 35.6143 12.258 35.7669 12.3705 35.8794C12.483 35.9919 12.6356 36.0551 12.7947 36.0551C12.9538 36.0551 13.1064 35.9919 13.2189 35.8794C13.3314 35.7669 13.3946 35.6143 13.3946 35.4552C13.3946 35.2961 13.3314 35.1435 13.2189 35.0309C13.1085 34.9204 12.9592 34.8573 12.8029 34.8552ZM35.7131 34.8552C35.6327 34.8539 35.5529 34.8689 35.4785 34.899C35.404 34.9292 35.3363 34.9741 35.2795 35.0309C35.167 35.1435 35.1038 35.2961 35.1038 35.4552C35.1038 35.6143 35.167 35.7669 35.2795 35.8794C35.392 35.9919 35.5446 36.0551 35.7037 36.0551C35.8628 36.0551 36.0154 35.9919 36.1279 35.8794C36.2404 35.7669 36.3036 35.6143 36.3036 35.4552C36.3036 35.2961 36.2404 35.1435 36.1279 35.0309C36.0177 34.9207 35.869 34.8576 35.7131 34.8552ZM42.7197 35.7317C42.6192 35.73 42.5198 35.7535 42.4307 35.8002C42.3416 35.8469 42.2657 35.9152 42.21 35.9989C42.1216 36.1312 42.0893 36.2931 42.1203 36.4491C42.1513 36.6052 42.243 36.7425 42.3752 36.8309C42.5075 36.9193 42.6694 36.9516 42.8254 36.9206C42.9814 36.8896 43.1188 36.7979 43.2072 36.6657C43.2956 36.5335 43.3278 36.3715 43.2969 36.2155C43.2659 36.0595 43.1742 35.9221 43.042 35.8337C42.9466 35.7695 42.8347 35.7341 42.7197 35.7317ZM24.2498 36.6001C24.0907 36.6001 23.9381 36.6633 23.8255 36.7758C23.713 36.8883 23.6498 37.041 23.6498 37.2001C23.6498 37.3592 23.713 37.5118 23.8255 37.6243C23.9381 37.7369 24.0907 37.8001 24.2498 37.8001C24.4089 37.8001 24.5616 37.7369 24.6741 37.6243C24.7866 37.5118 24.8498 37.3592 24.8498 37.2001C24.8498 37.041 24.7866 36.8883 24.6741 36.7758C24.5616 36.6633 24.4089 36.6001 24.2498 36.6001ZM32.3346 37.4286C32.2341 37.4308 32.1358 37.4582 32.0486 37.5083C31.9802 37.5476 31.9203 37.6001 31.8722 37.6626C31.8241 37.7251 31.7888 37.7966 31.7683 37.8727C31.7479 37.9489 31.7426 38.0284 31.7529 38.1066C31.7632 38.1849 31.7888 38.2603 31.8283 38.3286C31.8678 38.3969 31.9203 38.4567 31.9829 38.5047C32.0454 38.5527 32.1169 38.5879 32.1931 38.6082C32.2692 38.6286 32.3487 38.6337 32.4269 38.6233C32.505 38.613 32.5804 38.5873 32.6486 38.5477C32.7862 38.4681 32.8866 38.3371 32.9277 38.1835C32.9688 38.0299 32.9472 37.8663 32.8678 37.7286C32.814 37.6354 32.7361 37.5583 32.6423 37.5055C32.5485 37.4528 32.4422 37.4262 32.3346 37.4286ZM16.1193 37.4309C16.019 37.4357 15.9215 37.4655 15.8357 37.5177C15.7499 37.5699 15.6786 37.6428 15.6283 37.7298C15.5888 37.798 15.5631 37.8734 15.5527 37.9515C15.5424 38.0297 15.5475 38.1092 15.5678 38.1854C15.5882 38.2615 15.6234 38.333 15.6713 38.3956C15.7193 38.4581 15.7792 38.5106 15.8475 38.5501C15.9158 38.5896 15.9912 38.6152 16.0694 38.6255C16.1476 38.6358 16.2271 38.6305 16.3033 38.6101C16.3795 38.5896 16.4509 38.5543 16.5135 38.5062C16.576 38.4581 16.6284 38.3982 16.6678 38.3298C16.7471 38.1919 16.7685 38.0282 16.7272 37.8746C16.6859 37.721 16.5853 37.5901 16.4475 37.5106C16.348 37.4532 16.2341 37.4255 16.1193 37.4309ZM41.4201 37.4849C41.3298 37.4834 41.2403 37.5023 41.1583 37.5403C41.0764 37.5782 41.004 37.6342 40.9467 37.704C40.8966 37.7649 40.8591 37.8351 40.8362 37.9106C40.8132 37.986 40.8054 38.0652 40.8132 38.1437C40.8209 38.2222 40.844 38.2983 40.8812 38.3679C40.9184 38.4374 40.9689 38.4989 41.0299 38.5489C41.0908 38.599 41.161 38.6365 41.2364 38.6594C41.3119 38.6824 41.3911 38.6902 41.4696 38.6824C41.5481 38.6747 41.6242 38.6516 41.6938 38.6144C41.7633 38.5772 41.8248 38.5267 41.8748 38.4657C41.9249 38.4048 41.9624 38.3346 41.9853 38.2591C42.0082 38.1837 42.0161 38.1045 42.0083 38.026C42.0006 37.9475 41.9775 37.8714 41.9403 37.8018C41.9031 37.7323 41.8526 37.6708 41.7916 37.6208C41.6867 37.5348 41.5558 37.4869 41.4201 37.4849ZM24.2498 39.0001C23.9315 39.0001 23.6263 39.1265 23.4013 39.3516C23.1762 39.5766 23.0498 39.8818 23.0498 40.2001C23.0498 40.5183 23.1762 40.8236 23.4013 41.0486C23.6263 41.2737 23.9315 41.4001 24.2498 41.4001C24.5681 41.4001 24.8733 41.2737 25.0983 41.0486C25.3234 40.8236 25.4498 40.5183 25.4498 40.2001C25.4498 39.8818 25.3234 39.5766 25.0983 39.3516C24.8733 39.1265 24.5681 39.0001 24.2498 39.0001ZM20.0498 39.0481C19.9186 39.0493 19.7913 39.0935 19.6876 39.174C19.5839 39.2544 19.5094 39.3666 19.4756 39.4934C19.4344 39.6471 19.456 39.8109 19.5355 39.9487C19.6151 40.0865 19.7461 40.187 19.8998 40.2282C20.0535 40.2694 20.2172 40.2478 20.355 40.1683C20.4928 40.0887 20.5934 39.9577 20.6346 39.804C20.6757 39.6503 20.6542 39.4866 20.5746 39.3488C20.4951 39.211 20.364 39.1104 20.2104 39.0692C20.158 39.055 20.104 39.0479 20.0498 39.0481ZM28.4639 39.0481C28.4038 39.0458 28.3438 39.0525 28.2857 39.0681C28.1321 39.1092 28.001 39.2098 27.9215 39.3476C27.8419 39.4854 27.8204 39.6491 27.8615 39.8028C27.9027 39.9565 28.0033 40.0875 28.1411 40.1671C28.2789 40.2466 28.4426 40.2682 28.5963 40.227C28.75 40.1858 28.881 40.0853 28.9606 39.9475C29.0401 39.8097 29.0617 39.646 29.0205 39.4923C28.9873 39.3685 28.9154 39.2586 28.8152 39.1787C28.715 39.0988 28.5919 39.053 28.4639 39.0481ZM39.9553 39.0974C39.8751 39.0963 39.7955 39.1113 39.7213 39.1415C39.647 39.1717 39.5795 39.2164 39.5229 39.2731C39.4104 39.3857 39.3472 39.5382 39.3472 39.6973C39.3472 39.8565 39.4104 40.0091 39.5229 40.1216C39.6354 40.2341 39.788 40.2973 39.9471 40.2973C40.1062 40.2973 40.2588 40.2341 40.3713 40.1216C40.4838 40.0091 40.547 39.8565 40.547 39.6973C40.547 39.5382 40.4838 39.3857 40.3713 39.2731C40.2608 39.1626 40.1115 39.0995 39.9553 39.0974ZM38.3404 40.5598C38.1992 40.5581 38.0618 40.6062 37.9525 40.6958C37.8916 40.7458 37.841 40.8073 37.8038 40.8768C37.7667 40.9464 37.7435 41.0225 37.7358 41.101C37.7281 41.1795 37.7359 41.2587 37.7588 41.3341C37.7817 41.4096 37.8193 41.4798 37.8693 41.5407C37.9193 41.6017 37.9808 41.6522 38.0504 41.6894C38.1199 41.7266 38.1961 41.7497 38.2746 41.7574C38.353 41.7652 38.4323 41.7574 38.5077 41.7344C38.5831 41.7115 38.6533 41.674 38.7143 41.6239C38.7752 41.5739 38.8258 41.5124 38.863 41.4429C38.9001 41.3733 38.9233 41.2972 38.931 41.2187C38.9387 41.1402 38.9309 41.061 38.908 40.9856C38.8851 40.9101 38.8475 40.8399 38.7975 40.779C38.7419 40.7113 38.6722 40.6567 38.5932 40.6188C38.5143 40.5809 38.428 40.5608 38.3404 40.5598ZM36.5908 41.8571C36.47 41.8557 36.3515 41.8908 36.251 41.9579C36.1188 42.0464 36.0271 42.1837 35.9961 42.3397C35.9651 42.4957 35.9974 42.6577 36.0857 42.7899C36.174 42.9223 36.3113 43.0142 36.4673 43.0454C36.6233 43.0767 36.7854 43.0446 36.9178 42.9563C37.05 42.8679 37.1417 42.7305 37.1726 42.5745C37.2036 42.4185 37.1714 42.2566 37.083 42.1243C37.0289 42.0431 36.9558 41.9763 36.87 41.9298C36.7842 41.8832 36.6884 41.8583 36.5908 41.8571ZM34.7193 42.9774C34.6188 42.9767 34.5196 43.0013 34.4311 43.0489C34.3616 43.0861 34.3001 43.1366 34.2501 43.1975C34.2001 43.2584 34.1627 43.3286 34.1398 43.404C34.117 43.4794 34.1092 43.5586 34.1169 43.637C34.1247 43.7154 34.1478 43.7915 34.185 43.861C34.2221 43.9305 34.2726 43.992 34.3335 44.042C34.3945 44.0919 34.4646 44.1294 34.54 44.1523C34.6155 44.1751 34.6946 44.1829 34.7731 44.1752C34.8515 44.1674 34.9276 44.1443 34.9971 44.1071C35.0666 44.07 35.128 44.0195 35.178 43.9585C35.228 43.8976 35.2655 43.8274 35.2883 43.752C35.3112 43.6766 35.319 43.5974 35.3112 43.519C35.3035 43.4406 35.2803 43.3645 35.2432 43.295C35.1924 43.1999 35.117 43.1202 35.0248 43.0643C34.9327 43.0084 34.8271 42.9784 34.7193 42.9774ZM32.7506 43.9091C32.6702 43.9084 32.5905 43.924 32.5162 43.9548C32.4434 43.9849 32.3773 44.0291 32.3216 44.0849C32.2659 44.1406 32.2217 44.2067 32.1915 44.2795C32.1614 44.3523 32.1459 44.4304 32.1459 44.5091C32.1459 44.5879 32.1614 44.666 32.1916 44.7388C32.2218 44.8115 32.266 44.8777 32.3217 44.9334C32.3774 44.9891 32.4436 45.0333 32.5164 45.0634C32.5892 45.0936 32.6672 45.1091 32.746 45.1091C32.8248 45.1091 32.9028 45.0935 32.9756 45.0634C33.1223 45.0024 33.2389 44.8858 33.2997 44.7391C33.3606 44.5923 33.3608 44.4274 33.3002 44.2806C33.2553 44.1715 33.1792 44.078 33.0814 44.0119C32.9836 43.9459 32.8686 43.9101 32.7506 43.9091Z" fill="black"/>
</g>
</svg>
